G04 #@! TF.GenerationSoftware,KiCad,Pcbnew,(5.1.5)-3*
G04 #@! TF.CreationDate,2020-02-29T16:26:23-03:00*
G04 #@! TF.ProjectId,BKR01AT,424b5230-3141-4542-9e6b-696361645f70,rev?*
G04 #@! TF.SameCoordinates,Original*
G04 #@! TF.FileFunction,Soldermask,Bot*
G04 #@! TF.FilePolarity,Negative*
%FSLAX46Y46*%
G04 Gerber Fmt 4.6, Leading zero omitted, Abs format (unit mm)*
G04 Created by KiCad (PCBNEW (5.1.5)-3) date 2020-02-29 16:26:23*
%MOMM*%
%LPD*%
G04 APERTURE LIST*
%ADD10C,0.100000*%
G04 APERTURE END LIST*
D10*
G36*
X174631956Y-112348398D02*
G01*
X174738279Y-112369547D01*
X175038742Y-112494003D01*
X175309151Y-112674685D01*
X175539115Y-112904649D01*
X175719797Y-113175058D01*
X175844253Y-113475521D01*
X175907700Y-113794491D01*
X175907700Y-114119709D01*
X175844253Y-114438679D01*
X175719797Y-114739142D01*
X175539115Y-115009551D01*
X175309151Y-115239515D01*
X175038742Y-115420197D01*
X174738279Y-115544653D01*
X174631956Y-115565802D01*
X174419311Y-115608100D01*
X174094089Y-115608100D01*
X173881444Y-115565802D01*
X173775121Y-115544653D01*
X173474658Y-115420197D01*
X173204249Y-115239515D01*
X172974285Y-115009551D01*
X172793603Y-114739142D01*
X172669147Y-114438679D01*
X172605700Y-114119709D01*
X172605700Y-113794491D01*
X172669147Y-113475521D01*
X172793603Y-113175058D01*
X172974285Y-112904649D01*
X173204249Y-112674685D01*
X173474658Y-112494003D01*
X173775121Y-112369547D01*
X173881444Y-112348398D01*
X174094089Y-112306100D01*
X174419311Y-112306100D01*
X174631956Y-112348398D01*
G37*
G36*
X143255364Y-109978889D02*
G01*
X143446633Y-110058115D01*
X143446635Y-110058116D01*
X143618773Y-110173135D01*
X143765165Y-110319527D01*
X143854728Y-110453567D01*
X143880185Y-110491667D01*
X143959411Y-110682936D01*
X143999800Y-110885984D01*
X143999800Y-111093016D01*
X143959411Y-111296064D01*
X143880185Y-111487333D01*
X143880184Y-111487335D01*
X143765165Y-111659473D01*
X143618773Y-111805865D01*
X143446635Y-111920884D01*
X143446634Y-111920885D01*
X143446633Y-111920885D01*
X143255364Y-112000111D01*
X143052316Y-112040500D01*
X142845284Y-112040500D01*
X142642236Y-112000111D01*
X142450967Y-111920885D01*
X142450966Y-111920885D01*
X142450965Y-111920884D01*
X142278827Y-111805865D01*
X142132435Y-111659473D01*
X142017416Y-111487335D01*
X142017415Y-111487333D01*
X141938189Y-111296064D01*
X141897800Y-111093016D01*
X141897800Y-110885984D01*
X141938189Y-110682936D01*
X142017415Y-110491667D01*
X142042873Y-110453567D01*
X142132435Y-110319527D01*
X142278827Y-110173135D01*
X142450965Y-110058116D01*
X142450967Y-110058115D01*
X142642236Y-109978889D01*
X142845284Y-109938500D01*
X143052316Y-109938500D01*
X143255364Y-109978889D01*
G37*
G36*
X136755364Y-109978889D02*
G01*
X136946633Y-110058115D01*
X136946635Y-110058116D01*
X137118773Y-110173135D01*
X137265165Y-110319527D01*
X137354728Y-110453567D01*
X137380185Y-110491667D01*
X137459411Y-110682936D01*
X137499800Y-110885984D01*
X137499800Y-111093016D01*
X137459411Y-111296064D01*
X137380185Y-111487333D01*
X137380184Y-111487335D01*
X137265165Y-111659473D01*
X137118773Y-111805865D01*
X136946635Y-111920884D01*
X136946634Y-111920885D01*
X136946633Y-111920885D01*
X136755364Y-112000111D01*
X136552316Y-112040500D01*
X136345284Y-112040500D01*
X136142236Y-112000111D01*
X135950967Y-111920885D01*
X135950966Y-111920885D01*
X135950965Y-111920884D01*
X135778827Y-111805865D01*
X135632435Y-111659473D01*
X135517416Y-111487335D01*
X135517415Y-111487333D01*
X135438189Y-111296064D01*
X135397800Y-111093016D01*
X135397800Y-110885984D01*
X135438189Y-110682936D01*
X135517415Y-110491667D01*
X135542873Y-110453567D01*
X135632435Y-110319527D01*
X135778827Y-110173135D01*
X135950965Y-110058116D01*
X135950967Y-110058115D01*
X136142236Y-109978889D01*
X136345284Y-109938500D01*
X136552316Y-109938500D01*
X136755364Y-109978889D01*
G37*
G36*
X153402664Y-109940789D02*
G01*
X153593933Y-110020015D01*
X153593935Y-110020016D01*
X153766073Y-110135035D01*
X153912465Y-110281427D01*
X154027485Y-110453567D01*
X154106711Y-110644836D01*
X154147100Y-110847884D01*
X154147100Y-111054916D01*
X154106711Y-111257964D01*
X154090929Y-111296065D01*
X154027484Y-111449235D01*
X153912465Y-111621373D01*
X153766073Y-111767765D01*
X153593935Y-111882784D01*
X153593934Y-111882785D01*
X153593933Y-111882785D01*
X153402664Y-111962011D01*
X153199616Y-112002400D01*
X152992584Y-112002400D01*
X152789536Y-111962011D01*
X152598267Y-111882785D01*
X152598266Y-111882785D01*
X152598265Y-111882784D01*
X152426127Y-111767765D01*
X152279735Y-111621373D01*
X152164716Y-111449235D01*
X152101271Y-111296065D01*
X152085489Y-111257964D01*
X152045100Y-111054916D01*
X152045100Y-110847884D01*
X152085489Y-110644836D01*
X152164715Y-110453567D01*
X152279735Y-110281427D01*
X152426127Y-110135035D01*
X152598265Y-110020016D01*
X152598267Y-110020015D01*
X152789536Y-109940789D01*
X152992584Y-109900400D01*
X153199616Y-109900400D01*
X153402664Y-109940789D01*
G37*
G36*
X146902664Y-109940789D02*
G01*
X147093933Y-110020015D01*
X147093935Y-110020016D01*
X147266073Y-110135035D01*
X147412465Y-110281427D01*
X147527485Y-110453567D01*
X147606711Y-110644836D01*
X147647100Y-110847884D01*
X147647100Y-111054916D01*
X147606711Y-111257964D01*
X147590929Y-111296065D01*
X147527484Y-111449235D01*
X147412465Y-111621373D01*
X147266073Y-111767765D01*
X147093935Y-111882784D01*
X147093934Y-111882785D01*
X147093933Y-111882785D01*
X146902664Y-111962011D01*
X146699616Y-112002400D01*
X146492584Y-112002400D01*
X146289536Y-111962011D01*
X146098267Y-111882785D01*
X146098266Y-111882785D01*
X146098265Y-111882784D01*
X145926127Y-111767765D01*
X145779735Y-111621373D01*
X145664716Y-111449235D01*
X145601271Y-111296065D01*
X145585489Y-111257964D01*
X145545100Y-111054916D01*
X145545100Y-110847884D01*
X145585489Y-110644836D01*
X145664715Y-110453567D01*
X145779735Y-110281427D01*
X145926127Y-110135035D01*
X146098265Y-110020016D01*
X146098267Y-110020015D01*
X146289536Y-109940789D01*
X146492584Y-109900400D01*
X146699616Y-109900400D01*
X146902664Y-109940789D01*
G37*
G36*
X156834064Y-109940789D02*
G01*
X157025333Y-110020015D01*
X157025335Y-110020016D01*
X157197473Y-110135035D01*
X157343865Y-110281427D01*
X157458885Y-110453567D01*
X157538111Y-110644836D01*
X157578500Y-110847884D01*
X157578500Y-111054916D01*
X157538111Y-111257964D01*
X157522329Y-111296065D01*
X157458884Y-111449235D01*
X157343865Y-111621373D01*
X157197473Y-111767765D01*
X157025335Y-111882784D01*
X157025334Y-111882785D01*
X157025333Y-111882785D01*
X156834064Y-111962011D01*
X156631016Y-112002400D01*
X156423984Y-112002400D01*
X156220936Y-111962011D01*
X156029667Y-111882785D01*
X156029666Y-111882785D01*
X156029665Y-111882784D01*
X155857527Y-111767765D01*
X155711135Y-111621373D01*
X155596116Y-111449235D01*
X155532671Y-111296065D01*
X155516889Y-111257964D01*
X155476500Y-111054916D01*
X155476500Y-110847884D01*
X155516889Y-110644836D01*
X155596115Y-110453567D01*
X155711135Y-110281427D01*
X155857527Y-110135035D01*
X156029665Y-110020016D01*
X156029667Y-110020015D01*
X156220936Y-109940789D01*
X156423984Y-109900400D01*
X156631016Y-109900400D01*
X156834064Y-109940789D01*
G37*
G36*
X163334064Y-109940789D02*
G01*
X163525333Y-110020015D01*
X163525335Y-110020016D01*
X163697473Y-110135035D01*
X163843865Y-110281427D01*
X163958885Y-110453567D01*
X164038111Y-110644836D01*
X164078500Y-110847884D01*
X164078500Y-111054916D01*
X164038111Y-111257964D01*
X164022329Y-111296065D01*
X163958884Y-111449235D01*
X163843865Y-111621373D01*
X163697473Y-111767765D01*
X163525335Y-111882784D01*
X163525334Y-111882785D01*
X163525333Y-111882785D01*
X163334064Y-111962011D01*
X163131016Y-112002400D01*
X162923984Y-112002400D01*
X162720936Y-111962011D01*
X162529667Y-111882785D01*
X162529666Y-111882785D01*
X162529665Y-111882784D01*
X162357527Y-111767765D01*
X162211135Y-111621373D01*
X162096116Y-111449235D01*
X162032671Y-111296065D01*
X162016889Y-111257964D01*
X161976500Y-111054916D01*
X161976500Y-110847884D01*
X162016889Y-110644836D01*
X162096115Y-110453567D01*
X162211135Y-110281427D01*
X162357527Y-110135035D01*
X162529665Y-110020016D01*
X162529667Y-110020015D01*
X162720936Y-109940789D01*
X162923984Y-109900400D01*
X163131016Y-109900400D01*
X163334064Y-109940789D01*
G37*
G36*
X136755364Y-105478889D02*
G01*
X136946633Y-105558115D01*
X136946635Y-105558116D01*
X137118773Y-105673135D01*
X137265165Y-105819527D01*
X137354728Y-105953567D01*
X137380185Y-105991667D01*
X137459411Y-106182936D01*
X137499800Y-106385984D01*
X137499800Y-106593016D01*
X137459411Y-106796064D01*
X137380185Y-106987333D01*
X137380184Y-106987335D01*
X137265165Y-107159473D01*
X137118773Y-107305865D01*
X136946635Y-107420884D01*
X136946634Y-107420885D01*
X136946633Y-107420885D01*
X136755364Y-107500111D01*
X136552316Y-107540500D01*
X136345284Y-107540500D01*
X136142236Y-107500111D01*
X135950967Y-107420885D01*
X135950966Y-107420885D01*
X135950965Y-107420884D01*
X135778827Y-107305865D01*
X135632435Y-107159473D01*
X135517416Y-106987335D01*
X135517415Y-106987333D01*
X135438189Y-106796064D01*
X135397800Y-106593016D01*
X135397800Y-106385984D01*
X135438189Y-106182936D01*
X135517415Y-105991667D01*
X135542873Y-105953567D01*
X135632435Y-105819527D01*
X135778827Y-105673135D01*
X135950965Y-105558116D01*
X135950967Y-105558115D01*
X136142236Y-105478889D01*
X136345284Y-105438500D01*
X136552316Y-105438500D01*
X136755364Y-105478889D01*
G37*
G36*
X143255364Y-105478889D02*
G01*
X143446633Y-105558115D01*
X143446635Y-105558116D01*
X143618773Y-105673135D01*
X143765165Y-105819527D01*
X143854728Y-105953567D01*
X143880185Y-105991667D01*
X143959411Y-106182936D01*
X143999800Y-106385984D01*
X143999800Y-106593016D01*
X143959411Y-106796064D01*
X143880185Y-106987333D01*
X143880184Y-106987335D01*
X143765165Y-107159473D01*
X143618773Y-107305865D01*
X143446635Y-107420884D01*
X143446634Y-107420885D01*
X143446633Y-107420885D01*
X143255364Y-107500111D01*
X143052316Y-107540500D01*
X142845284Y-107540500D01*
X142642236Y-107500111D01*
X142450967Y-107420885D01*
X142450966Y-107420885D01*
X142450965Y-107420884D01*
X142278827Y-107305865D01*
X142132435Y-107159473D01*
X142017416Y-106987335D01*
X142017415Y-106987333D01*
X141938189Y-106796064D01*
X141897800Y-106593016D01*
X141897800Y-106385984D01*
X141938189Y-106182936D01*
X142017415Y-105991667D01*
X142042873Y-105953567D01*
X142132435Y-105819527D01*
X142278827Y-105673135D01*
X142450965Y-105558116D01*
X142450967Y-105558115D01*
X142642236Y-105478889D01*
X142845284Y-105438500D01*
X143052316Y-105438500D01*
X143255364Y-105478889D01*
G37*
G36*
X146902664Y-105440789D02*
G01*
X147093933Y-105520015D01*
X147093935Y-105520016D01*
X147266073Y-105635035D01*
X147412465Y-105781427D01*
X147527485Y-105953567D01*
X147606711Y-106144836D01*
X147647100Y-106347884D01*
X147647100Y-106554916D01*
X147606711Y-106757964D01*
X147590929Y-106796065D01*
X147527484Y-106949235D01*
X147412465Y-107121373D01*
X147266073Y-107267765D01*
X147093935Y-107382784D01*
X147093934Y-107382785D01*
X147093933Y-107382785D01*
X146902664Y-107462011D01*
X146699616Y-107502400D01*
X146492584Y-107502400D01*
X146289536Y-107462011D01*
X146098267Y-107382785D01*
X146098266Y-107382785D01*
X146098265Y-107382784D01*
X145926127Y-107267765D01*
X145779735Y-107121373D01*
X145664716Y-106949235D01*
X145601271Y-106796065D01*
X145585489Y-106757964D01*
X145545100Y-106554916D01*
X145545100Y-106347884D01*
X145585489Y-106144836D01*
X145664715Y-105953567D01*
X145779735Y-105781427D01*
X145926127Y-105635035D01*
X146098265Y-105520016D01*
X146098267Y-105520015D01*
X146289536Y-105440789D01*
X146492584Y-105400400D01*
X146699616Y-105400400D01*
X146902664Y-105440789D01*
G37*
G36*
X163334064Y-105440789D02*
G01*
X163525333Y-105520015D01*
X163525335Y-105520016D01*
X163697473Y-105635035D01*
X163843865Y-105781427D01*
X163958885Y-105953567D01*
X164038111Y-106144836D01*
X164078500Y-106347884D01*
X164078500Y-106554916D01*
X164038111Y-106757964D01*
X164022329Y-106796065D01*
X163958884Y-106949235D01*
X163843865Y-107121373D01*
X163697473Y-107267765D01*
X163525335Y-107382784D01*
X163525334Y-107382785D01*
X163525333Y-107382785D01*
X163334064Y-107462011D01*
X163131016Y-107502400D01*
X162923984Y-107502400D01*
X162720936Y-107462011D01*
X162529667Y-107382785D01*
X162529666Y-107382785D01*
X162529665Y-107382784D01*
X162357527Y-107267765D01*
X162211135Y-107121373D01*
X162096116Y-106949235D01*
X162032671Y-106796065D01*
X162016889Y-106757964D01*
X161976500Y-106554916D01*
X161976500Y-106347884D01*
X162016889Y-106144836D01*
X162096115Y-105953567D01*
X162211135Y-105781427D01*
X162357527Y-105635035D01*
X162529665Y-105520016D01*
X162529667Y-105520015D01*
X162720936Y-105440789D01*
X162923984Y-105400400D01*
X163131016Y-105400400D01*
X163334064Y-105440789D01*
G37*
G36*
X153402664Y-105440789D02*
G01*
X153593933Y-105520015D01*
X153593935Y-105520016D01*
X153766073Y-105635035D01*
X153912465Y-105781427D01*
X154027485Y-105953567D01*
X154106711Y-106144836D01*
X154147100Y-106347884D01*
X154147100Y-106554916D01*
X154106711Y-106757964D01*
X154090929Y-106796065D01*
X154027484Y-106949235D01*
X153912465Y-107121373D01*
X153766073Y-107267765D01*
X153593935Y-107382784D01*
X153593934Y-107382785D01*
X153593933Y-107382785D01*
X153402664Y-107462011D01*
X153199616Y-107502400D01*
X152992584Y-107502400D01*
X152789536Y-107462011D01*
X152598267Y-107382785D01*
X152598266Y-107382785D01*
X152598265Y-107382784D01*
X152426127Y-107267765D01*
X152279735Y-107121373D01*
X152164716Y-106949235D01*
X152101271Y-106796065D01*
X152085489Y-106757964D01*
X152045100Y-106554916D01*
X152045100Y-106347884D01*
X152085489Y-106144836D01*
X152164715Y-105953567D01*
X152279735Y-105781427D01*
X152426127Y-105635035D01*
X152598265Y-105520016D01*
X152598267Y-105520015D01*
X152789536Y-105440789D01*
X152992584Y-105400400D01*
X153199616Y-105400400D01*
X153402664Y-105440789D01*
G37*
G36*
X156834064Y-105440789D02*
G01*
X157025333Y-105520015D01*
X157025335Y-105520016D01*
X157197473Y-105635035D01*
X157343865Y-105781427D01*
X157458885Y-105953567D01*
X157538111Y-106144836D01*
X157578500Y-106347884D01*
X157578500Y-106554916D01*
X157538111Y-106757964D01*
X157522329Y-106796065D01*
X157458884Y-106949235D01*
X157343865Y-107121373D01*
X157197473Y-107267765D01*
X157025335Y-107382784D01*
X157025334Y-107382785D01*
X157025333Y-107382785D01*
X156834064Y-107462011D01*
X156631016Y-107502400D01*
X156423984Y-107502400D01*
X156220936Y-107462011D01*
X156029667Y-107382785D01*
X156029666Y-107382785D01*
X156029665Y-107382784D01*
X155857527Y-107267765D01*
X155711135Y-107121373D01*
X155596116Y-106949235D01*
X155532671Y-106796065D01*
X155516889Y-106757964D01*
X155476500Y-106554916D01*
X155476500Y-106347884D01*
X155516889Y-106144836D01*
X155596115Y-105953567D01*
X155711135Y-105781427D01*
X155857527Y-105635035D01*
X156029665Y-105520016D01*
X156029667Y-105520015D01*
X156220936Y-105440789D01*
X156423984Y-105400400D01*
X156631016Y-105400400D01*
X156834064Y-105440789D01*
G37*
G36*
X170578678Y-103032697D02*
G01*
X170631450Y-103043194D01*
X170730870Y-103084375D01*
X170820346Y-103144161D01*
X170896439Y-103220254D01*
X170956225Y-103309730D01*
X170997406Y-103409150D01*
X171018400Y-103514694D01*
X171018400Y-103622306D01*
X170997406Y-103727850D01*
X170956225Y-103827270D01*
X170896439Y-103916746D01*
X170820346Y-103992839D01*
X170730870Y-104052625D01*
X170631450Y-104093806D01*
X170578678Y-104104303D01*
X170525907Y-104114800D01*
X170418293Y-104114800D01*
X170365522Y-104104303D01*
X170312750Y-104093806D01*
X170213330Y-104052625D01*
X170123854Y-103992839D01*
X170047761Y-103916746D01*
X169987975Y-103827270D01*
X169946794Y-103727850D01*
X169925800Y-103622306D01*
X169925800Y-103514694D01*
X169946794Y-103409150D01*
X169987975Y-103309730D01*
X170047761Y-103220254D01*
X170123854Y-103144161D01*
X170213330Y-103084375D01*
X170312750Y-103043194D01*
X170365522Y-103032697D01*
X170418293Y-103022200D01*
X170525907Y-103022200D01*
X170578678Y-103032697D01*
G37*
G36*
X169562678Y-97952697D02*
G01*
X169615450Y-97963194D01*
X169714870Y-98004375D01*
X169804346Y-98064161D01*
X169880439Y-98140254D01*
X169940225Y-98229730D01*
X169981406Y-98329150D01*
X170002400Y-98434694D01*
X170002400Y-98542306D01*
X169981406Y-98647850D01*
X169940225Y-98747270D01*
X169880439Y-98836746D01*
X169804346Y-98912839D01*
X169714870Y-98972625D01*
X169615450Y-99013806D01*
X169562678Y-99024303D01*
X169509907Y-99034800D01*
X169402293Y-99034800D01*
X169349522Y-99024303D01*
X169296750Y-99013806D01*
X169197330Y-98972625D01*
X169107854Y-98912839D01*
X169031761Y-98836746D01*
X168971975Y-98747270D01*
X168930794Y-98647850D01*
X168909800Y-98542306D01*
X168909800Y-98434694D01*
X168930794Y-98329150D01*
X168971975Y-98229730D01*
X169031761Y-98140254D01*
X169107854Y-98064161D01*
X169197330Y-98004375D01*
X169296750Y-97963194D01*
X169349522Y-97952697D01*
X169402293Y-97942200D01*
X169509907Y-97942200D01*
X169562678Y-97952697D01*
G37*
G36*
X171594678Y-97952697D02*
G01*
X171647450Y-97963194D01*
X171746870Y-98004375D01*
X171836346Y-98064161D01*
X171912439Y-98140254D01*
X171972225Y-98229730D01*
X172013406Y-98329150D01*
X172034400Y-98434694D01*
X172034400Y-98542306D01*
X172013406Y-98647850D01*
X171972225Y-98747270D01*
X171912439Y-98836746D01*
X171836346Y-98912839D01*
X171746870Y-98972625D01*
X171647450Y-99013806D01*
X171594678Y-99024303D01*
X171541907Y-99034800D01*
X171434293Y-99034800D01*
X171381522Y-99024303D01*
X171328750Y-99013806D01*
X171229330Y-98972625D01*
X171139854Y-98912839D01*
X171063761Y-98836746D01*
X171003975Y-98747270D01*
X170962794Y-98647850D01*
X170941800Y-98542306D01*
X170941800Y-98434694D01*
X170962794Y-98329150D01*
X171003975Y-98229730D01*
X171063761Y-98140254D01*
X171139854Y-98064161D01*
X171229330Y-98004375D01*
X171328750Y-97963194D01*
X171381522Y-97952697D01*
X171434293Y-97942200D01*
X171541907Y-97942200D01*
X171594678Y-97952697D01*
G37*
G36*
X125013056Y-62081798D02*
G01*
X125119379Y-62102947D01*
X125419842Y-62227403D01*
X125690251Y-62408085D01*
X125920215Y-62638049D01*
X126100897Y-62908458D01*
X126225353Y-63208921D01*
X126288800Y-63527891D01*
X126288800Y-63853109D01*
X126225353Y-64172079D01*
X126100897Y-64472542D01*
X125920215Y-64742951D01*
X125690251Y-64972915D01*
X125419842Y-65153597D01*
X125119379Y-65278053D01*
X125013056Y-65299202D01*
X124800411Y-65341500D01*
X124475189Y-65341500D01*
X124262544Y-65299202D01*
X124156221Y-65278053D01*
X123855758Y-65153597D01*
X123585349Y-64972915D01*
X123355385Y-64742951D01*
X123174703Y-64472542D01*
X123050247Y-64172079D01*
X122986800Y-63853109D01*
X122986800Y-63527891D01*
X123050247Y-63208921D01*
X123174703Y-62908458D01*
X123355385Y-62638049D01*
X123585349Y-62408085D01*
X123855758Y-62227403D01*
X124156221Y-62102947D01*
X124262544Y-62081798D01*
X124475189Y-62039500D01*
X124800411Y-62039500D01*
X125013056Y-62081798D01*
G37*
M02*
