M48
; DRILL file {KiCad (5.1.5)-3} date 29/02/2020 16:26:41
; FORMAT={-:-/ absolute / inch / decimal}
; #@! TF.CreationDate,2020-02-29T16:26:41-03:00
; #@! TF.GenerationSoftware,Kicad,Pcbnew,(5.1.5)-3
FMAT,2
INCH
T1C0.0118
T2C0.0157
T3C0.0433
T4C0.0390
T5C0.1260
%
G90
G05
T1
X6.0787Y-3.6929
X6.0787Y-3.7717
X6.1181Y-3.6929
X6.1181Y-3.7717
X6.1575Y-3.6929
X6.1575Y-3.7717
X6.1969Y-3.6929
X6.1969Y-3.7717
X6.2362Y-3.6929
X6.2362Y-3.7717
X6.2756Y-3.6929
X6.2756Y-3.7717
X6.315Y-3.6929
X6.315Y-3.7717
X6.3543Y-3.6929
X6.3543Y-3.7717
X6.3937Y-3.6929
X6.3937Y-3.7717
X6.4331Y-3.6929
X6.4331Y-3.7717
X6.4724Y-3.6929
X6.4724Y-3.7717
X6.5118Y-3.6929
X6.5118Y-3.7717
X6.5512Y-3.6929
X6.5512Y-3.7717
X6.5906Y-3.6929
X6.5906Y-3.7717
X6.5945Y-3.2677
X6.5945Y-3.3465
X6.5945Y-3.4252
X6.5945Y-3.5039
X6.5945Y-3.5827
X6.5945Y-3.6417
X6.624Y-3.3071
X6.624Y-3.3858
X6.624Y-3.4646
X6.624Y-3.5433
X6.624Y-3.6122
X6.6299Y-3.6929
X6.6299Y-3.7717
X6.6535Y-3.2677
X6.6535Y-3.3465
X6.6535Y-3.4252
X6.6535Y-3.5039
X6.6535Y-3.5827
X6.6535Y-3.6417
X6.6693Y-3.6929
X6.6693Y-3.7717
X6.6831Y-3.3071
X6.6831Y-3.3858
X6.6831Y-3.4646
X6.6831Y-3.5433
X6.6831Y-3.6122
X6.7087Y-3.7717
X6.7126Y-3.2677
X6.7126Y-3.3465
X6.7126Y-3.4252
X6.7126Y-3.5039
X6.7126Y-3.5827
X6.7126Y-3.6417
X6.748Y-3.7717
X6.7874Y-3.7717
X6.8406Y-3.6417
X6.8701Y-3.4646
X6.8701Y-3.6122
X6.8701Y-3.6713
X6.8996Y-3.6417
X6.939Y-3.4646
X6.939Y-3.5433
X6.939Y-3.6122
X6.939Y-3.6713
X6.939Y-3.7303
X6.9783Y-3.2677
X6.9783Y-3.3465
X6.9783Y-3.4252
X6.9783Y-3.5039
X6.9783Y-3.5827
X6.9783Y-3.6417
X6.9783Y-3.7008
X6.9783Y-3.7598
T2
X5.191Y-3.569
X5.535Y-3.793
X5.613Y-3.462
X5.6135Y-3.204
X5.6841Y-3.8616
X5.702Y-4.0945
X5.7874Y-3.5039
X5.9701Y-3.3799
X6.0695Y-3.553
X6.1095Y-4.099
X6.204Y-3.403
X6.3745Y-3.4035
X6.4965Y-4.0995
X6.564Y-3.489
X6.6045Y-3.872
X6.6065Y-3.944
X6.6065Y-4.0265
X6.7126Y-3.1201
T3
X6.1625Y-4.191
X6.1625Y-4.3682
X6.4184Y-4.191
X6.4184Y-4.3682
X5.7715Y-4.191
X5.7715Y-4.3682
X6.0274Y-4.191
X6.0274Y-4.3682
X5.372Y-4.1925
X5.372Y-4.3697
X5.6279Y-4.1925
X5.6279Y-4.3697
T4
X6.6715Y-3.8775
X6.7115Y-4.0775
X6.7515Y-3.8775
T5
X6.8605Y-4.4865
X4.907Y-2.5075
T0
M30
