G04 #@! TF.GenerationSoftware,KiCad,Pcbnew,(5.1.5)-3*
G04 #@! TF.CreationDate,2020-02-29T16:26:23-03:00*
G04 #@! TF.ProjectId,BKR01AT,424b5230-3141-4542-9e6b-696361645f70,rev?*
G04 #@! TF.SameCoordinates,Original*
G04 #@! TF.FileFunction,Legend,Bot*
G04 #@! TF.FilePolarity,Positive*
%FSLAX46Y46*%
G04 Gerber Fmt 4.6, Leading zero omitted, Abs format (unit mm)*
G04 Created by KiCad (PCBNEW (5.1.5)-3) date 2020-02-29 16:26:23*
%MOMM*%
%LPD*%
G04 APERTURE LIST*
%ADD10C,0.010000*%
G04 APERTURE END LIST*
D10*
G36*
X177927318Y-63812996D02*
G01*
X177855854Y-64022583D01*
X177721637Y-64299726D01*
X177588519Y-64548092D01*
X177378557Y-64947701D01*
X177253744Y-65227161D01*
X177207777Y-65408842D01*
X177234353Y-65515109D01*
X177303167Y-65560694D01*
X177362491Y-65628261D01*
X177318309Y-65696541D01*
X177241683Y-65710494D01*
X177077087Y-65668878D01*
X176810629Y-65566120D01*
X176428417Y-65396649D01*
X175916560Y-65154893D01*
X175668460Y-65034782D01*
X175142598Y-64779882D01*
X174747089Y-64592317D01*
X174460472Y-64464420D01*
X174261287Y-64388522D01*
X174128070Y-64356952D01*
X174039361Y-64362043D01*
X173973697Y-64396125D01*
X173945629Y-64419158D01*
X173829789Y-64513483D01*
X173810618Y-64491077D01*
X173837689Y-64409730D01*
X173833647Y-64226030D01*
X173738216Y-64025977D01*
X173593685Y-63878227D01*
X173488414Y-63842666D01*
X173405391Y-63828644D01*
X173461391Y-63765544D01*
X173501420Y-63735579D01*
X173555329Y-63685687D01*
X173590109Y-63611506D01*
X173606055Y-63486823D01*
X173603462Y-63285425D01*
X173582627Y-62981098D01*
X173543846Y-62547629D01*
X173517894Y-62275079D01*
X173473261Y-61798448D01*
X173435033Y-61367628D01*
X173406095Y-61016936D01*
X173389333Y-60780692D01*
X173386329Y-60710000D01*
X173372413Y-60575149D01*
X173325327Y-60594277D01*
X173306355Y-60622264D01*
X173203348Y-60701239D01*
X173026288Y-60673755D01*
X172999859Y-60664597D01*
X172775773Y-60539066D01*
X172633313Y-60373402D01*
X172600929Y-60209909D01*
X172642818Y-60133716D01*
X172812371Y-60046847D01*
X173006426Y-60046191D01*
X173146817Y-60127927D01*
X173163762Y-60159173D01*
X173277275Y-60251954D01*
X173405653Y-60265006D01*
X173554268Y-60285571D01*
X173577427Y-60378110D01*
X173582832Y-60435472D01*
X173641094Y-60463082D01*
X173780429Y-60460330D01*
X174029053Y-60426605D01*
X174415182Y-60361296D01*
X174423775Y-60359791D01*
X174652160Y-60326768D01*
X174652160Y-60763174D01*
X174130732Y-60773444D01*
X174073675Y-60775418D01*
X173532351Y-60794667D01*
X173588839Y-61402458D01*
X173622981Y-61792165D01*
X173660776Y-62257773D01*
X173694699Y-62706221D01*
X173698342Y-62757125D01*
X173725298Y-63088774D01*
X173752610Y-63344806D01*
X173775911Y-63487164D01*
X173783991Y-63504000D01*
X173870346Y-63462711D01*
X174024696Y-63367666D01*
X174256646Y-63278387D01*
X174425878Y-63279801D01*
X174550664Y-63275766D01*
X174732468Y-63203468D01*
X174994146Y-63050851D01*
X175358554Y-62805856D01*
X175462470Y-62732938D01*
X175880743Y-62435356D01*
X176175125Y-62220665D01*
X176341414Y-62092088D01*
X176375407Y-62052849D01*
X176299474Y-62090816D01*
X176167073Y-62082617D01*
X176022491Y-61957775D01*
X175899491Y-61762629D01*
X175831832Y-61543521D01*
X175828808Y-61444780D01*
X175794668Y-61175481D01*
X175649985Y-60981835D01*
X175506818Y-60880759D01*
X175311756Y-60813107D01*
X175036353Y-60775154D01*
X174652160Y-60763174D01*
X174652160Y-60326768D01*
X174955720Y-60282875D01*
X175364350Y-60268238D01*
X175685963Y-60321615D01*
X175956857Y-60448742D01*
X176196995Y-60639964D01*
X176365291Y-60829741D01*
X176430483Y-61025903D01*
X176432469Y-61238017D01*
X176435168Y-61512762D01*
X176464714Y-61744366D01*
X176475946Y-61785642D01*
X176489917Y-61817232D01*
X176489917Y-62383511D01*
X176450373Y-62390773D01*
X176300814Y-62480523D01*
X176068311Y-62635842D01*
X175917403Y-62741304D01*
X175599201Y-62965258D01*
X175299364Y-63173751D01*
X175069293Y-63331114D01*
X175018215Y-63365234D01*
X174818890Y-63545979D01*
X174743051Y-63726641D01*
X174743048Y-63727096D01*
X174673208Y-63903447D01*
X174512090Y-64058501D01*
X174282179Y-64209144D01*
X174490923Y-64296229D01*
X174640591Y-64364376D01*
X174908076Y-64491640D01*
X175259577Y-64661737D01*
X175661290Y-64858387D01*
X175800333Y-64926936D01*
X176183605Y-65114306D01*
X176501309Y-65265913D01*
X176728577Y-65370187D01*
X176840539Y-65415562D01*
X176846601Y-65413603D01*
X176852468Y-65315169D01*
X176914280Y-65100232D01*
X177020129Y-64807430D01*
X177077886Y-64663157D01*
X177274440Y-64112757D01*
X177358645Y-63682408D01*
X177329726Y-63364783D01*
X177186905Y-63152555D01*
X176929408Y-63038395D01*
X176905319Y-63033557D01*
X176676197Y-62950841D01*
X176548139Y-62780481D01*
X176526362Y-62723855D01*
X176479184Y-62520776D01*
X176488903Y-62385229D01*
X176489917Y-62383511D01*
X176489917Y-61817232D01*
X176530851Y-61909790D01*
X176611943Y-61915560D01*
X176747632Y-61834754D01*
X176957531Y-61697222D01*
X176767667Y-61595610D01*
X176651554Y-61525189D01*
X176660147Y-61477253D01*
X176810010Y-61419124D01*
X176866401Y-61400812D01*
X177144320Y-61326177D01*
X177463072Y-61260550D01*
X177524424Y-61250458D01*
X177709201Y-61226044D01*
X177811086Y-61236984D01*
X177826627Y-61305063D01*
X177752370Y-61452067D01*
X177584863Y-61699780D01*
X177415554Y-61937396D01*
X177250423Y-62162966D01*
X177159651Y-62263001D01*
X177121118Y-62251123D01*
X177112703Y-62140957D01*
X177112667Y-62123943D01*
X177104414Y-61962764D01*
X177049530Y-61943325D01*
X176914770Y-62036701D01*
X176783754Y-62152688D01*
X176781169Y-62242220D01*
X176851270Y-62327125D01*
X177030638Y-62446747D01*
X177250201Y-62524863D01*
X177584981Y-62674764D01*
X177814832Y-62953888D01*
X177932882Y-63353405D01*
X177939348Y-63410464D01*
X177950368Y-63624458D01*
X177927318Y-63812996D01*
G37*
X177927318Y-63812996D02*
X177855854Y-64022583D01*
X177721637Y-64299726D01*
X177588519Y-64548092D01*
X177378557Y-64947701D01*
X177253744Y-65227161D01*
X177207777Y-65408842D01*
X177234353Y-65515109D01*
X177303167Y-65560694D01*
X177362491Y-65628261D01*
X177318309Y-65696541D01*
X177241683Y-65710494D01*
X177077087Y-65668878D01*
X176810629Y-65566120D01*
X176428417Y-65396649D01*
X175916560Y-65154893D01*
X175668460Y-65034782D01*
X175142598Y-64779882D01*
X174747089Y-64592317D01*
X174460472Y-64464420D01*
X174261287Y-64388522D01*
X174128070Y-64356952D01*
X174039361Y-64362043D01*
X173973697Y-64396125D01*
X173945629Y-64419158D01*
X173829789Y-64513483D01*
X173810618Y-64491077D01*
X173837689Y-64409730D01*
X173833647Y-64226030D01*
X173738216Y-64025977D01*
X173593685Y-63878227D01*
X173488414Y-63842666D01*
X173405391Y-63828644D01*
X173461391Y-63765544D01*
X173501420Y-63735579D01*
X173555329Y-63685687D01*
X173590109Y-63611506D01*
X173606055Y-63486823D01*
X173603462Y-63285425D01*
X173582627Y-62981098D01*
X173543846Y-62547629D01*
X173517894Y-62275079D01*
X173473261Y-61798448D01*
X173435033Y-61367628D01*
X173406095Y-61016936D01*
X173389333Y-60780692D01*
X173386329Y-60710000D01*
X173372413Y-60575149D01*
X173325327Y-60594277D01*
X173306355Y-60622264D01*
X173203348Y-60701239D01*
X173026288Y-60673755D01*
X172999859Y-60664597D01*
X172775773Y-60539066D01*
X172633313Y-60373402D01*
X172600929Y-60209909D01*
X172642818Y-60133716D01*
X172812371Y-60046847D01*
X173006426Y-60046191D01*
X173146817Y-60127927D01*
X173163762Y-60159173D01*
X173277275Y-60251954D01*
X173405653Y-60265006D01*
X173554268Y-60285571D01*
X173577427Y-60378110D01*
X173582832Y-60435472D01*
X173641094Y-60463082D01*
X173780429Y-60460330D01*
X174029053Y-60426605D01*
X174415182Y-60361296D01*
X174423775Y-60359791D01*
X174652160Y-60326768D01*
X174652160Y-60763174D01*
X174130732Y-60773444D01*
X174073675Y-60775418D01*
X173532351Y-60794667D01*
X173588839Y-61402458D01*
X173622981Y-61792165D01*
X173660776Y-62257773D01*
X173694699Y-62706221D01*
X173698342Y-62757125D01*
X173725298Y-63088774D01*
X173752610Y-63344806D01*
X173775911Y-63487164D01*
X173783991Y-63504000D01*
X173870346Y-63462711D01*
X174024696Y-63367666D01*
X174256646Y-63278387D01*
X174425878Y-63279801D01*
X174550664Y-63275766D01*
X174732468Y-63203468D01*
X174994146Y-63050851D01*
X175358554Y-62805856D01*
X175462470Y-62732938D01*
X175880743Y-62435356D01*
X176175125Y-62220665D01*
X176341414Y-62092088D01*
X176375407Y-62052849D01*
X176299474Y-62090816D01*
X176167073Y-62082617D01*
X176022491Y-61957775D01*
X175899491Y-61762629D01*
X175831832Y-61543521D01*
X175828808Y-61444780D01*
X175794668Y-61175481D01*
X175649985Y-60981835D01*
X175506818Y-60880759D01*
X175311756Y-60813107D01*
X175036353Y-60775154D01*
X174652160Y-60763174D01*
X174652160Y-60326768D01*
X174955720Y-60282875D01*
X175364350Y-60268238D01*
X175685963Y-60321615D01*
X175956857Y-60448742D01*
X176196995Y-60639964D01*
X176365291Y-60829741D01*
X176430483Y-61025903D01*
X176432469Y-61238017D01*
X176435168Y-61512762D01*
X176464714Y-61744366D01*
X176475946Y-61785642D01*
X176489917Y-61817232D01*
X176489917Y-62383511D01*
X176450373Y-62390773D01*
X176300814Y-62480523D01*
X176068311Y-62635842D01*
X175917403Y-62741304D01*
X175599201Y-62965258D01*
X175299364Y-63173751D01*
X175069293Y-63331114D01*
X175018215Y-63365234D01*
X174818890Y-63545979D01*
X174743051Y-63726641D01*
X174743048Y-63727096D01*
X174673208Y-63903447D01*
X174512090Y-64058501D01*
X174282179Y-64209144D01*
X174490923Y-64296229D01*
X174640591Y-64364376D01*
X174908076Y-64491640D01*
X175259577Y-64661737D01*
X175661290Y-64858387D01*
X175800333Y-64926936D01*
X176183605Y-65114306D01*
X176501309Y-65265913D01*
X176728577Y-65370187D01*
X176840539Y-65415562D01*
X176846601Y-65413603D01*
X176852468Y-65315169D01*
X176914280Y-65100232D01*
X177020129Y-64807430D01*
X177077886Y-64663157D01*
X177274440Y-64112757D01*
X177358645Y-63682408D01*
X177329726Y-63364783D01*
X177186905Y-63152555D01*
X176929408Y-63038395D01*
X176905319Y-63033557D01*
X176676197Y-62950841D01*
X176548139Y-62780481D01*
X176526362Y-62723855D01*
X176479184Y-62520776D01*
X176488903Y-62385229D01*
X176489917Y-62383511D01*
X176489917Y-61817232D01*
X176530851Y-61909790D01*
X176611943Y-61915560D01*
X176747632Y-61834754D01*
X176957531Y-61697222D01*
X176767667Y-61595610D01*
X176651554Y-61525189D01*
X176660147Y-61477253D01*
X176810010Y-61419124D01*
X176866401Y-61400812D01*
X177144320Y-61326177D01*
X177463072Y-61260550D01*
X177524424Y-61250458D01*
X177709201Y-61226044D01*
X177811086Y-61236984D01*
X177826627Y-61305063D01*
X177752370Y-61452067D01*
X177584863Y-61699780D01*
X177415554Y-61937396D01*
X177250423Y-62162966D01*
X177159651Y-62263001D01*
X177121118Y-62251123D01*
X177112703Y-62140957D01*
X177112667Y-62123943D01*
X177104414Y-61962764D01*
X177049530Y-61943325D01*
X176914770Y-62036701D01*
X176783754Y-62152688D01*
X176781169Y-62242220D01*
X176851270Y-62327125D01*
X177030638Y-62446747D01*
X177250201Y-62524863D01*
X177584981Y-62674764D01*
X177814832Y-62953888D01*
X177932882Y-63353405D01*
X177939348Y-63410464D01*
X177950368Y-63624458D01*
X177927318Y-63812996D01*
G36*
X177282511Y-66286469D02*
G01*
X177254644Y-66329357D01*
X177107808Y-66508304D01*
X176982955Y-66530283D01*
X176845759Y-66398026D01*
X176821134Y-66363828D01*
X176725089Y-66159100D01*
X176690985Y-65943970D01*
X176719627Y-65774145D01*
X176811612Y-65705333D01*
X176953811Y-65757245D01*
X177141337Y-65884383D01*
X177167208Y-65906024D01*
X177316659Y-66046440D01*
X177350224Y-66149678D01*
X177282511Y-66286469D01*
G37*
X177282511Y-66286469D02*
X177254644Y-66329357D01*
X177107808Y-66508304D01*
X176982955Y-66530283D01*
X176845759Y-66398026D01*
X176821134Y-66363828D01*
X176725089Y-66159100D01*
X176690985Y-65943970D01*
X176719627Y-65774145D01*
X176811612Y-65705333D01*
X176953811Y-65757245D01*
X177141337Y-65884383D01*
X177167208Y-65906024D01*
X177316659Y-66046440D01*
X177350224Y-66149678D01*
X177282511Y-66286469D01*
M02*
