G04 #@! TF.GenerationSoftware,KiCad,Pcbnew,(5.1.5)-3*
G04 #@! TF.CreationDate,2020-02-29T16:38:02-03:00*
G04 #@! TF.ProjectId,BKR01AT,424b5230-3141-4542-9e6b-696361645f70,rev?*
G04 #@! TF.SameCoordinates,Original*
G04 #@! TF.FileFunction,Copper,L2,Bot*
G04 #@! TF.FilePolarity,Positive*
%FSLAX46Y46*%
G04 Gerber Fmt 4.6, Leading zero omitted, Abs format (unit mm)*
G04 Created by KiCad (PCBNEW (5.1.5)-3) date 2020-02-29 16:38:02*
%MOMM*%
%LPD*%
G04 APERTURE LIST*
%ADD10C,2.000000*%
%ADD11C,0.800000*%
%ADD12C,0.600000*%
%ADD13C,0.304800*%
%ADD14C,0.152400*%
%ADD15C,0.254000*%
G04 APERTURE END LIST*
D10*
X163027500Y-106451400D03*
X163027500Y-110951400D03*
X156527500Y-106451400D03*
X156527500Y-110951400D03*
X153096100Y-106451400D03*
X153096100Y-110951400D03*
X146596100Y-106451400D03*
X146596100Y-110951400D03*
X142948800Y-106489500D03*
X142948800Y-110989500D03*
X136448800Y-106489500D03*
X136448800Y-110989500D03*
D11*
X165011100Y-104127300D03*
X155181300Y-104114600D03*
X144377200Y-98085700D03*
X144830800Y-104000300D03*
X167805100Y-102273100D03*
X167805100Y-100177600D03*
X167754300Y-98348800D03*
X161912300Y-86448900D03*
X157581600Y-86436200D03*
X154165300Y-90246200D03*
X151640800Y-85849200D03*
X142570200Y-87934800D03*
X142582900Y-81381600D03*
X140589000Y-96342200D03*
X131851400Y-90652600D03*
X166725600Y-88620600D03*
D12*
X154400000Y-93800000D03*
X155400000Y-93800000D03*
X156400000Y-93800000D03*
X157400000Y-93800000D03*
X158400000Y-93800000D03*
X159400000Y-93800000D03*
X160400000Y-93800000D03*
X161400000Y-93800000D03*
X162400000Y-93800000D03*
X163400000Y-93800000D03*
X164400000Y-93800000D03*
X165400000Y-93800000D03*
X166400000Y-93800000D03*
X167400000Y-93800000D03*
X168400000Y-93800000D03*
X169400000Y-93800000D03*
X154400000Y-95800000D03*
X155400000Y-95800000D03*
X156400000Y-95800000D03*
X157400000Y-95800000D03*
X158400000Y-95800000D03*
X159400000Y-95800000D03*
X160400000Y-95800000D03*
X161400000Y-95800000D03*
X162400000Y-95800000D03*
X163400000Y-95800000D03*
X164400000Y-95800000D03*
X165400000Y-95800000D03*
X166400000Y-95800000D03*
X167400000Y-95800000D03*
X168400000Y-95800000D03*
X169400000Y-95800000D03*
X170400000Y-95800000D03*
X171400000Y-95800000D03*
X172400000Y-95800000D03*
X167500000Y-83000000D03*
X169000000Y-83000000D03*
X170500000Y-83000000D03*
X167500000Y-85000000D03*
X169000000Y-85000000D03*
X170500000Y-85000000D03*
X167500000Y-87000000D03*
X169000000Y-87000000D03*
X170500000Y-87000000D03*
X167500000Y-89000000D03*
X169000000Y-89000000D03*
X170500000Y-89000000D03*
X167500000Y-91000000D03*
X169000000Y-91000000D03*
X170500000Y-91000000D03*
X167500000Y-92500000D03*
X169000000Y-92500000D03*
X170500000Y-92500000D03*
X168250000Y-91750000D03*
X169750000Y-91750000D03*
X168250000Y-90000000D03*
X169750000Y-90000000D03*
X169750000Y-88000000D03*
X168250000Y-88000000D03*
X168250000Y-86000000D03*
X169750000Y-86000000D03*
X169750000Y-84000000D03*
X168250000Y-84000000D03*
X177250000Y-83000000D03*
X177250000Y-85000000D03*
X177250000Y-87000000D03*
X177250000Y-89000000D03*
X176250000Y-88000000D03*
X174500000Y-88000000D03*
X176250000Y-90000000D03*
X177250000Y-91000000D03*
X176250000Y-91750000D03*
X174500000Y-91750000D03*
X175250000Y-92500000D03*
X173750000Y-92500000D03*
X177250000Y-92500000D03*
X174500000Y-93250000D03*
X176250000Y-93250000D03*
X176250000Y-94750000D03*
X177250000Y-94000000D03*
X177250000Y-95500000D03*
D11*
X170500000Y-79250000D03*
X147000000Y-89000000D03*
D13*
X144942885Y-98085700D02*
X144377200Y-98085700D01*
X149718085Y-98085700D02*
X144942885Y-98085700D01*
X155181300Y-103548915D02*
X149718085Y-98085700D01*
X155181300Y-104114600D02*
X155181300Y-103548915D01*
X159535185Y-98085700D02*
X149718085Y-98085700D01*
X165011100Y-103561615D02*
X159535185Y-98085700D01*
X165011100Y-104127300D02*
X165011100Y-103561615D01*
X145503900Y-99212400D02*
X144377200Y-98085700D01*
X144830800Y-104000300D02*
X145503900Y-103327200D01*
X145503900Y-103327200D02*
X145503900Y-99212400D01*
D14*
X167805100Y-101707415D02*
X167805100Y-100177600D01*
X167805100Y-102273100D02*
X167805100Y-101707415D01*
X161086800Y-85623400D02*
X161912300Y-86448900D01*
X161899600Y-86436200D02*
X161912300Y-86448900D01*
X157581600Y-86436200D02*
X161899600Y-86436200D01*
X167754300Y-98348800D02*
X165989000Y-96583500D01*
X154165300Y-88373700D02*
X151640800Y-85849200D01*
X154165300Y-90246200D02*
X154165300Y-88373700D01*
X154165300Y-88373700D02*
X154170900Y-88373700D01*
X156108400Y-86436200D02*
X157581600Y-86436200D01*
X154170900Y-88373700D02*
X156108400Y-86436200D01*
X141554200Y-87934800D02*
X142570200Y-87934800D01*
X140589000Y-96342200D02*
X140589000Y-88900000D01*
X140589000Y-88900000D02*
X141554200Y-87934800D01*
X131851400Y-90086915D02*
X131864100Y-90074215D01*
X131851400Y-90652600D02*
X131851400Y-90086915D01*
X131864100Y-90074215D02*
X131864100Y-89154000D01*
X133083300Y-87934800D02*
X141554200Y-87934800D01*
X131864100Y-89154000D02*
X133083300Y-87934800D01*
X142570200Y-81394300D02*
X142582900Y-81381600D01*
X142570200Y-87934800D02*
X142570200Y-81394300D01*
X142582900Y-81381600D02*
X142582900Y-80784700D01*
X142582900Y-80784700D02*
X144538700Y-78828900D01*
X154838400Y-78828900D02*
X161010600Y-72656700D01*
X161086800Y-72555100D02*
X161010600Y-72656700D01*
X144538700Y-78828900D02*
X154838400Y-78828900D01*
X161010600Y-72656700D02*
X161086800Y-85623400D01*
X166725600Y-88054915D02*
X165094185Y-86423500D01*
X166725600Y-88620600D02*
X166725600Y-88054915D01*
X165094185Y-86423500D02*
X164769800Y-86423500D01*
X164833300Y-86448900D02*
X164769800Y-86423500D01*
X164769800Y-86423500D02*
X161912300Y-86448900D01*
X165989000Y-96583500D02*
X165989000Y-94011000D01*
X166725600Y-92583000D02*
X166725600Y-88620600D01*
X165989000Y-93319600D02*
X166725600Y-92583000D01*
X165989000Y-94011000D02*
X165989000Y-93319600D01*
D15*
G36*
X176860582Y-59874566D02*
G01*
X177122195Y-59931600D01*
X177372981Y-60025351D01*
X177607851Y-60153918D01*
X177821973Y-60314658D01*
X178010990Y-60504296D01*
X178171030Y-60718950D01*
X178298819Y-60954230D01*
X178391751Y-61205334D01*
X178447924Y-61467128D01*
X178466498Y-61738796D01*
X178289160Y-115756024D01*
X178268968Y-116026435D01*
X178211552Y-116286819D01*
X178117739Y-116536404D01*
X177989431Y-116770137D01*
X177829233Y-116983274D01*
X177640386Y-117171502D01*
X177426718Y-117331004D01*
X177192568Y-117458542D01*
X176942677Y-117551535D01*
X176682112Y-117608095D01*
X176411626Y-117627400D01*
X122311630Y-117627400D01*
X122040596Y-117608015D01*
X121779507Y-117551219D01*
X121529160Y-117457844D01*
X121294655Y-117329795D01*
X121080762Y-117169676D01*
X120891824Y-116980738D01*
X120731705Y-116766845D01*
X120603656Y-116532340D01*
X120510281Y-116281993D01*
X120453485Y-116020904D01*
X120434100Y-115749870D01*
X120434100Y-113736972D01*
X172021700Y-113736972D01*
X172021700Y-114177228D01*
X172107590Y-114609025D01*
X172276069Y-115015769D01*
X172520662Y-115381829D01*
X172831971Y-115693138D01*
X173198031Y-115937731D01*
X173604775Y-116106210D01*
X174036572Y-116192100D01*
X174476828Y-116192100D01*
X174908625Y-116106210D01*
X175315369Y-115937731D01*
X175681429Y-115693138D01*
X175992738Y-115381829D01*
X176237331Y-115015769D01*
X176405810Y-114609025D01*
X176491700Y-114177228D01*
X176491700Y-113736972D01*
X176405810Y-113305175D01*
X176237331Y-112898431D01*
X175992738Y-112532371D01*
X175681429Y-112221062D01*
X175315369Y-111976469D01*
X174908625Y-111807990D01*
X174476828Y-111722100D01*
X174036572Y-111722100D01*
X173604775Y-111807990D01*
X173198031Y-111976469D01*
X172831971Y-112221062D01*
X172520662Y-112532371D01*
X172276069Y-112898431D01*
X172107590Y-113305175D01*
X172021700Y-113736972D01*
X120434100Y-113736972D01*
X120434100Y-112124913D01*
X135492992Y-112124913D01*
X135588756Y-112389314D01*
X135878371Y-112530204D01*
X136189908Y-112611884D01*
X136511395Y-112631218D01*
X136830475Y-112587461D01*
X137134888Y-112482295D01*
X137308844Y-112389314D01*
X137404608Y-112124913D01*
X141992992Y-112124913D01*
X142088756Y-112389314D01*
X142378371Y-112530204D01*
X142689908Y-112611884D01*
X143011395Y-112631218D01*
X143330475Y-112587461D01*
X143634888Y-112482295D01*
X143808844Y-112389314D01*
X143904608Y-112124913D01*
X143866508Y-112086813D01*
X145640292Y-112086813D01*
X145736056Y-112351214D01*
X146025671Y-112492104D01*
X146337208Y-112573784D01*
X146658695Y-112593118D01*
X146977775Y-112549361D01*
X147282188Y-112444195D01*
X147456144Y-112351214D01*
X147551908Y-112086813D01*
X152140292Y-112086813D01*
X152236056Y-112351214D01*
X152525671Y-112492104D01*
X152837208Y-112573784D01*
X153158695Y-112593118D01*
X153477775Y-112549361D01*
X153782188Y-112444195D01*
X153956144Y-112351214D01*
X154051908Y-112086813D01*
X155571692Y-112086813D01*
X155667456Y-112351214D01*
X155957071Y-112492104D01*
X156268608Y-112573784D01*
X156590095Y-112593118D01*
X156909175Y-112549361D01*
X157213588Y-112444195D01*
X157387544Y-112351214D01*
X157483308Y-112086813D01*
X162071692Y-112086813D01*
X162167456Y-112351214D01*
X162457071Y-112492104D01*
X162768608Y-112573784D01*
X163090095Y-112593118D01*
X163409175Y-112549361D01*
X163713588Y-112444195D01*
X163887544Y-112351214D01*
X163983308Y-112086813D01*
X163027500Y-111131005D01*
X162071692Y-112086813D01*
X157483308Y-112086813D01*
X156527500Y-111131005D01*
X155571692Y-112086813D01*
X154051908Y-112086813D01*
X153096100Y-111131005D01*
X152140292Y-112086813D01*
X147551908Y-112086813D01*
X146596100Y-111131005D01*
X145640292Y-112086813D01*
X143866508Y-112086813D01*
X142948800Y-111169105D01*
X141992992Y-112124913D01*
X137404608Y-112124913D01*
X136448800Y-111169105D01*
X135492992Y-112124913D01*
X120434100Y-112124913D01*
X120434100Y-111052095D01*
X134807082Y-111052095D01*
X134850839Y-111371175D01*
X134956005Y-111675588D01*
X135048986Y-111849544D01*
X135313387Y-111945308D01*
X136269195Y-110989500D01*
X136628405Y-110989500D01*
X137584213Y-111945308D01*
X137848614Y-111849544D01*
X137989504Y-111559929D01*
X138071184Y-111248392D01*
X138082989Y-111052095D01*
X141307082Y-111052095D01*
X141350839Y-111371175D01*
X141456005Y-111675588D01*
X141548986Y-111849544D01*
X141813387Y-111945308D01*
X142769195Y-110989500D01*
X143128405Y-110989500D01*
X144084213Y-111945308D01*
X144348614Y-111849544D01*
X144489504Y-111559929D01*
X144571184Y-111248392D01*
X144585280Y-111013995D01*
X144954382Y-111013995D01*
X144998139Y-111333075D01*
X145103305Y-111637488D01*
X145196286Y-111811444D01*
X145460687Y-111907208D01*
X146416495Y-110951400D01*
X146775705Y-110951400D01*
X147731513Y-111907208D01*
X147995914Y-111811444D01*
X148136804Y-111521829D01*
X148218484Y-111210292D01*
X148230289Y-111013995D01*
X151454382Y-111013995D01*
X151498139Y-111333075D01*
X151603305Y-111637488D01*
X151696286Y-111811444D01*
X151960687Y-111907208D01*
X152916495Y-110951400D01*
X153275705Y-110951400D01*
X154231513Y-111907208D01*
X154495914Y-111811444D01*
X154636804Y-111521829D01*
X154718484Y-111210292D01*
X154730289Y-111013995D01*
X154885782Y-111013995D01*
X154929539Y-111333075D01*
X155034705Y-111637488D01*
X155127686Y-111811444D01*
X155392087Y-111907208D01*
X156347895Y-110951400D01*
X156707105Y-110951400D01*
X157662913Y-111907208D01*
X157927314Y-111811444D01*
X158068204Y-111521829D01*
X158149884Y-111210292D01*
X158161689Y-111013995D01*
X161385782Y-111013995D01*
X161429539Y-111333075D01*
X161534705Y-111637488D01*
X161627686Y-111811444D01*
X161892087Y-111907208D01*
X162847895Y-110951400D01*
X163207105Y-110951400D01*
X164162913Y-111907208D01*
X164427314Y-111811444D01*
X164568204Y-111521829D01*
X164649884Y-111210292D01*
X164669218Y-110888805D01*
X164625461Y-110569725D01*
X164520295Y-110265312D01*
X164427314Y-110091356D01*
X164162913Y-109995592D01*
X163207105Y-110951400D01*
X162847895Y-110951400D01*
X161892087Y-109995592D01*
X161627686Y-110091356D01*
X161486796Y-110380971D01*
X161405116Y-110692508D01*
X161385782Y-111013995D01*
X158161689Y-111013995D01*
X158169218Y-110888805D01*
X158125461Y-110569725D01*
X158020295Y-110265312D01*
X157927314Y-110091356D01*
X157662913Y-109995592D01*
X156707105Y-110951400D01*
X156347895Y-110951400D01*
X155392087Y-109995592D01*
X155127686Y-110091356D01*
X154986796Y-110380971D01*
X154905116Y-110692508D01*
X154885782Y-111013995D01*
X154730289Y-111013995D01*
X154737818Y-110888805D01*
X154694061Y-110569725D01*
X154588895Y-110265312D01*
X154495914Y-110091356D01*
X154231513Y-109995592D01*
X153275705Y-110951400D01*
X152916495Y-110951400D01*
X151960687Y-109995592D01*
X151696286Y-110091356D01*
X151555396Y-110380971D01*
X151473716Y-110692508D01*
X151454382Y-111013995D01*
X148230289Y-111013995D01*
X148237818Y-110888805D01*
X148194061Y-110569725D01*
X148088895Y-110265312D01*
X147995914Y-110091356D01*
X147731513Y-109995592D01*
X146775705Y-110951400D01*
X146416495Y-110951400D01*
X145460687Y-109995592D01*
X145196286Y-110091356D01*
X145055396Y-110380971D01*
X144973716Y-110692508D01*
X144954382Y-111013995D01*
X144585280Y-111013995D01*
X144590518Y-110926905D01*
X144546761Y-110607825D01*
X144441595Y-110303412D01*
X144348614Y-110129456D01*
X144084213Y-110033692D01*
X143128405Y-110989500D01*
X142769195Y-110989500D01*
X141813387Y-110033692D01*
X141548986Y-110129456D01*
X141408096Y-110419071D01*
X141326416Y-110730608D01*
X141307082Y-111052095D01*
X138082989Y-111052095D01*
X138090518Y-110926905D01*
X138046761Y-110607825D01*
X137941595Y-110303412D01*
X137848614Y-110129456D01*
X137584213Y-110033692D01*
X136628405Y-110989500D01*
X136269195Y-110989500D01*
X135313387Y-110033692D01*
X135048986Y-110129456D01*
X134908096Y-110419071D01*
X134826416Y-110730608D01*
X134807082Y-111052095D01*
X120434100Y-111052095D01*
X120434100Y-109854087D01*
X135492992Y-109854087D01*
X136448800Y-110809895D01*
X137404608Y-109854087D01*
X141992992Y-109854087D01*
X142948800Y-110809895D01*
X143904608Y-109854087D01*
X143890809Y-109815987D01*
X145640292Y-109815987D01*
X146596100Y-110771795D01*
X147551908Y-109815987D01*
X152140292Y-109815987D01*
X153096100Y-110771795D01*
X154051908Y-109815987D01*
X155571692Y-109815987D01*
X156527500Y-110771795D01*
X157483308Y-109815987D01*
X162071692Y-109815987D01*
X163027500Y-110771795D01*
X163983308Y-109815987D01*
X163887544Y-109551586D01*
X163597929Y-109410696D01*
X163286392Y-109329016D01*
X162964905Y-109309682D01*
X162645825Y-109353439D01*
X162341412Y-109458605D01*
X162167456Y-109551586D01*
X162071692Y-109815987D01*
X157483308Y-109815987D01*
X157387544Y-109551586D01*
X157097929Y-109410696D01*
X156786392Y-109329016D01*
X156464905Y-109309682D01*
X156145825Y-109353439D01*
X155841412Y-109458605D01*
X155667456Y-109551586D01*
X155571692Y-109815987D01*
X154051908Y-109815987D01*
X153956144Y-109551586D01*
X153666529Y-109410696D01*
X153354992Y-109329016D01*
X153033505Y-109309682D01*
X152714425Y-109353439D01*
X152410012Y-109458605D01*
X152236056Y-109551586D01*
X152140292Y-109815987D01*
X147551908Y-109815987D01*
X147456144Y-109551586D01*
X147166529Y-109410696D01*
X146854992Y-109329016D01*
X146533505Y-109309682D01*
X146214425Y-109353439D01*
X145910012Y-109458605D01*
X145736056Y-109551586D01*
X145640292Y-109815987D01*
X143890809Y-109815987D01*
X143808844Y-109589686D01*
X143519229Y-109448796D01*
X143207692Y-109367116D01*
X142886205Y-109347782D01*
X142567125Y-109391539D01*
X142262712Y-109496705D01*
X142088756Y-109589686D01*
X141992992Y-109854087D01*
X137404608Y-109854087D01*
X137308844Y-109589686D01*
X137019229Y-109448796D01*
X136707692Y-109367116D01*
X136386205Y-109347782D01*
X136067125Y-109391539D01*
X135762712Y-109496705D01*
X135588756Y-109589686D01*
X135492992Y-109854087D01*
X120434100Y-109854087D01*
X120434100Y-106328467D01*
X134813800Y-106328467D01*
X134813800Y-106650533D01*
X134876632Y-106966412D01*
X134999882Y-107263963D01*
X135178813Y-107531752D01*
X135406548Y-107759487D01*
X135674337Y-107938418D01*
X135971888Y-108061668D01*
X136287767Y-108124500D01*
X136609833Y-108124500D01*
X136925712Y-108061668D01*
X137223263Y-107938418D01*
X137491052Y-107759487D01*
X137718787Y-107531752D01*
X137897718Y-107263963D01*
X138020968Y-106966412D01*
X138083800Y-106650533D01*
X138083800Y-106328467D01*
X141313800Y-106328467D01*
X141313800Y-106650533D01*
X141376632Y-106966412D01*
X141499882Y-107263963D01*
X141678813Y-107531752D01*
X141906548Y-107759487D01*
X142174337Y-107938418D01*
X142471888Y-108061668D01*
X142787767Y-108124500D01*
X143109833Y-108124500D01*
X143425712Y-108061668D01*
X143723263Y-107938418D01*
X143991052Y-107759487D01*
X144218787Y-107531752D01*
X144397718Y-107263963D01*
X144520968Y-106966412D01*
X144583800Y-106650533D01*
X144583800Y-106328467D01*
X144576222Y-106290367D01*
X144961100Y-106290367D01*
X144961100Y-106612433D01*
X145023932Y-106928312D01*
X145147182Y-107225863D01*
X145326113Y-107493652D01*
X145553848Y-107721387D01*
X145821637Y-107900318D01*
X146119188Y-108023568D01*
X146435067Y-108086400D01*
X146757133Y-108086400D01*
X147073012Y-108023568D01*
X147370563Y-107900318D01*
X147638352Y-107721387D01*
X147866087Y-107493652D01*
X148045018Y-107225863D01*
X148168268Y-106928312D01*
X148231100Y-106612433D01*
X148231100Y-106290367D01*
X151461100Y-106290367D01*
X151461100Y-106612433D01*
X151523932Y-106928312D01*
X151647182Y-107225863D01*
X151826113Y-107493652D01*
X152053848Y-107721387D01*
X152321637Y-107900318D01*
X152619188Y-108023568D01*
X152935067Y-108086400D01*
X153257133Y-108086400D01*
X153573012Y-108023568D01*
X153870563Y-107900318D01*
X154138352Y-107721387D01*
X154366087Y-107493652D01*
X154545018Y-107225863D01*
X154668268Y-106928312D01*
X154731100Y-106612433D01*
X154731100Y-106290367D01*
X154892500Y-106290367D01*
X154892500Y-106612433D01*
X154955332Y-106928312D01*
X155078582Y-107225863D01*
X155257513Y-107493652D01*
X155485248Y-107721387D01*
X155753037Y-107900318D01*
X156050588Y-108023568D01*
X156366467Y-108086400D01*
X156688533Y-108086400D01*
X157004412Y-108023568D01*
X157301963Y-107900318D01*
X157569752Y-107721387D01*
X157797487Y-107493652D01*
X157976418Y-107225863D01*
X158099668Y-106928312D01*
X158162500Y-106612433D01*
X158162500Y-106290367D01*
X161392500Y-106290367D01*
X161392500Y-106612433D01*
X161455332Y-106928312D01*
X161578582Y-107225863D01*
X161757513Y-107493652D01*
X161985248Y-107721387D01*
X162253037Y-107900318D01*
X162550588Y-108023568D01*
X162866467Y-108086400D01*
X163188533Y-108086400D01*
X163504412Y-108023568D01*
X163801963Y-107900318D01*
X164069752Y-107721387D01*
X164297487Y-107493652D01*
X164476418Y-107225863D01*
X164599668Y-106928312D01*
X164662500Y-106612433D01*
X164662500Y-106290367D01*
X164599668Y-105974488D01*
X164476418Y-105676937D01*
X164297487Y-105409148D01*
X164069752Y-105181413D01*
X163801963Y-105002482D01*
X163504412Y-104879232D01*
X163188533Y-104816400D01*
X162866467Y-104816400D01*
X162550588Y-104879232D01*
X162253037Y-105002482D01*
X161985248Y-105181413D01*
X161757513Y-105409148D01*
X161578582Y-105676937D01*
X161455332Y-105974488D01*
X161392500Y-106290367D01*
X158162500Y-106290367D01*
X158099668Y-105974488D01*
X157976418Y-105676937D01*
X157797487Y-105409148D01*
X157569752Y-105181413D01*
X157301963Y-105002482D01*
X157004412Y-104879232D01*
X156688533Y-104816400D01*
X156366467Y-104816400D01*
X156050588Y-104879232D01*
X155753037Y-105002482D01*
X155485248Y-105181413D01*
X155257513Y-105409148D01*
X155078582Y-105676937D01*
X154955332Y-105974488D01*
X154892500Y-106290367D01*
X154731100Y-106290367D01*
X154668268Y-105974488D01*
X154545018Y-105676937D01*
X154366087Y-105409148D01*
X154138352Y-105181413D01*
X153870563Y-105002482D01*
X153573012Y-104879232D01*
X153257133Y-104816400D01*
X152935067Y-104816400D01*
X152619188Y-104879232D01*
X152321637Y-105002482D01*
X152053848Y-105181413D01*
X151826113Y-105409148D01*
X151647182Y-105676937D01*
X151523932Y-105974488D01*
X151461100Y-106290367D01*
X148231100Y-106290367D01*
X148168268Y-105974488D01*
X148045018Y-105676937D01*
X147866087Y-105409148D01*
X147638352Y-105181413D01*
X147370563Y-105002482D01*
X147073012Y-104879232D01*
X146757133Y-104816400D01*
X146435067Y-104816400D01*
X146119188Y-104879232D01*
X145821637Y-105002482D01*
X145553848Y-105181413D01*
X145326113Y-105409148D01*
X145147182Y-105676937D01*
X145023932Y-105974488D01*
X144961100Y-106290367D01*
X144576222Y-106290367D01*
X144520968Y-106012588D01*
X144397718Y-105715037D01*
X144218787Y-105447248D01*
X143991052Y-105219513D01*
X143723263Y-105040582D01*
X143425712Y-104917332D01*
X143109833Y-104854500D01*
X142787767Y-104854500D01*
X142471888Y-104917332D01*
X142174337Y-105040582D01*
X141906548Y-105219513D01*
X141678813Y-105447248D01*
X141499882Y-105715037D01*
X141376632Y-106012588D01*
X141313800Y-106328467D01*
X138083800Y-106328467D01*
X138020968Y-106012588D01*
X137897718Y-105715037D01*
X137718787Y-105447248D01*
X137491052Y-105219513D01*
X137223263Y-105040582D01*
X136925712Y-104917332D01*
X136609833Y-104854500D01*
X136287767Y-104854500D01*
X135971888Y-104917332D01*
X135674337Y-105040582D01*
X135406548Y-105219513D01*
X135178813Y-105447248D01*
X134999882Y-105715037D01*
X134876632Y-106012588D01*
X134813800Y-106328467D01*
X120434100Y-106328467D01*
X120434100Y-97983761D01*
X143342200Y-97983761D01*
X143342200Y-98187639D01*
X143381974Y-98387598D01*
X143459995Y-98575956D01*
X143573263Y-98745474D01*
X143717426Y-98889637D01*
X143886944Y-99002905D01*
X144075302Y-99080926D01*
X144275261Y-99120700D01*
X144298649Y-99120700D01*
X144716501Y-99538552D01*
X144716500Y-102967759D01*
X144528902Y-103005074D01*
X144340544Y-103083095D01*
X144171026Y-103196363D01*
X144026863Y-103340526D01*
X143913595Y-103510044D01*
X143835574Y-103698402D01*
X143795800Y-103898361D01*
X143795800Y-104102239D01*
X143835574Y-104302198D01*
X143913595Y-104490556D01*
X144026863Y-104660074D01*
X144171026Y-104804237D01*
X144340544Y-104917505D01*
X144528902Y-104995526D01*
X144728861Y-105035300D01*
X144932739Y-105035300D01*
X145132698Y-104995526D01*
X145321056Y-104917505D01*
X145490574Y-104804237D01*
X145634737Y-104660074D01*
X145748005Y-104490556D01*
X145826026Y-104302198D01*
X145865800Y-104102239D01*
X145865800Y-104078851D01*
X146033334Y-103911318D01*
X146063369Y-103886669D01*
X146161766Y-103766772D01*
X146234882Y-103629983D01*
X146279906Y-103481557D01*
X146291300Y-103365873D01*
X146291300Y-103365864D01*
X146295108Y-103327201D01*
X146291300Y-103288538D01*
X146291300Y-99251062D01*
X146295108Y-99212399D01*
X146291300Y-99173736D01*
X146291300Y-99173727D01*
X146279906Y-99058043D01*
X146234882Y-98909617D01*
X146215363Y-98873100D01*
X149391935Y-98873100D01*
X154228679Y-103709845D01*
X154186074Y-103812702D01*
X154146300Y-104012661D01*
X154146300Y-104216539D01*
X154186074Y-104416498D01*
X154264095Y-104604856D01*
X154377363Y-104774374D01*
X154521526Y-104918537D01*
X154691044Y-105031805D01*
X154879402Y-105109826D01*
X155079361Y-105149600D01*
X155283239Y-105149600D01*
X155483198Y-105109826D01*
X155671556Y-105031805D01*
X155841074Y-104918537D01*
X155985237Y-104774374D01*
X156098505Y-104604856D01*
X156176526Y-104416498D01*
X156216300Y-104216539D01*
X156216300Y-104012661D01*
X156176526Y-103812702D01*
X156098505Y-103624344D01*
X155985237Y-103454826D01*
X155960839Y-103430428D01*
X155957306Y-103394558D01*
X155912282Y-103246132D01*
X155873108Y-103172843D01*
X155839166Y-103109342D01*
X155789135Y-103048380D01*
X155740769Y-102989446D01*
X155710728Y-102964792D01*
X151619035Y-98873100D01*
X159209035Y-98873100D01*
X164058479Y-103722546D01*
X164015874Y-103825402D01*
X163976100Y-104025361D01*
X163976100Y-104229239D01*
X164015874Y-104429198D01*
X164093895Y-104617556D01*
X164207163Y-104787074D01*
X164351326Y-104931237D01*
X164520844Y-105044505D01*
X164709202Y-105122526D01*
X164909161Y-105162300D01*
X165113039Y-105162300D01*
X165312998Y-105122526D01*
X165501356Y-105044505D01*
X165670874Y-104931237D01*
X165815037Y-104787074D01*
X165928305Y-104617556D01*
X166006326Y-104429198D01*
X166046100Y-104229239D01*
X166046100Y-104025361D01*
X166006326Y-103825402D01*
X165928305Y-103637044D01*
X165815037Y-103467526D01*
X165804686Y-103457175D01*
X169341800Y-103457175D01*
X169341800Y-103679825D01*
X169385237Y-103898196D01*
X169470441Y-104103898D01*
X169594139Y-104289024D01*
X169751576Y-104446461D01*
X169936702Y-104570159D01*
X170142404Y-104655363D01*
X170360775Y-104698800D01*
X170583425Y-104698800D01*
X170801796Y-104655363D01*
X171007498Y-104570159D01*
X171192624Y-104446461D01*
X171350061Y-104289024D01*
X171473759Y-104103898D01*
X171558963Y-103898196D01*
X171602400Y-103679825D01*
X171602400Y-103457175D01*
X171558963Y-103238804D01*
X171473759Y-103033102D01*
X171350061Y-102847976D01*
X171192624Y-102690539D01*
X171007498Y-102566841D01*
X170801796Y-102481637D01*
X170583425Y-102438200D01*
X170360775Y-102438200D01*
X170142404Y-102481637D01*
X169936702Y-102566841D01*
X169751576Y-102690539D01*
X169594139Y-102847976D01*
X169470441Y-103033102D01*
X169385237Y-103238804D01*
X169341800Y-103457175D01*
X165804686Y-103457175D01*
X165790639Y-103443128D01*
X165787106Y-103407258D01*
X165742082Y-103258832D01*
X165668966Y-103122043D01*
X165570569Y-103002146D01*
X165540533Y-102977496D01*
X162638697Y-100075661D01*
X166770100Y-100075661D01*
X166770100Y-100279539D01*
X166809874Y-100479498D01*
X166887895Y-100667856D01*
X167001163Y-100837374D01*
X167093901Y-100930112D01*
X167093900Y-101520589D01*
X167001163Y-101613326D01*
X166887895Y-101782844D01*
X166809874Y-101971202D01*
X166770100Y-102171161D01*
X166770100Y-102375039D01*
X166809874Y-102574998D01*
X166887895Y-102763356D01*
X167001163Y-102932874D01*
X167145326Y-103077037D01*
X167314844Y-103190305D01*
X167503202Y-103268326D01*
X167703161Y-103308100D01*
X167907039Y-103308100D01*
X168106998Y-103268326D01*
X168295356Y-103190305D01*
X168464874Y-103077037D01*
X168609037Y-102932874D01*
X168722305Y-102763356D01*
X168800326Y-102574998D01*
X168840100Y-102375039D01*
X168840100Y-102171161D01*
X168800326Y-101971202D01*
X168722305Y-101782844D01*
X168609037Y-101613326D01*
X168516300Y-101520589D01*
X168516300Y-100930111D01*
X168609037Y-100837374D01*
X168722305Y-100667856D01*
X168800326Y-100479498D01*
X168840100Y-100279539D01*
X168840100Y-100075661D01*
X168800326Y-99875702D01*
X168722305Y-99687344D01*
X168609037Y-99517826D01*
X168464874Y-99373663D01*
X168295356Y-99260395D01*
X168106998Y-99182374D01*
X167907039Y-99142600D01*
X167703161Y-99142600D01*
X167503202Y-99182374D01*
X167314844Y-99260395D01*
X167145326Y-99373663D01*
X167001163Y-99517826D01*
X166887895Y-99687344D01*
X166809874Y-99875702D01*
X166770100Y-100075661D01*
X162638697Y-100075661D01*
X160940211Y-98377175D01*
X168325800Y-98377175D01*
X168325800Y-98599825D01*
X168369237Y-98818196D01*
X168454441Y-99023898D01*
X168578139Y-99209024D01*
X168735576Y-99366461D01*
X168920702Y-99490159D01*
X169126404Y-99575363D01*
X169344775Y-99618800D01*
X169567425Y-99618800D01*
X169785796Y-99575363D01*
X169991498Y-99490159D01*
X170176624Y-99366461D01*
X170334061Y-99209024D01*
X170457759Y-99023898D01*
X170472100Y-98989276D01*
X170486441Y-99023898D01*
X170610139Y-99209024D01*
X170767576Y-99366461D01*
X170952702Y-99490159D01*
X171158404Y-99575363D01*
X171376775Y-99618800D01*
X171599425Y-99618800D01*
X171817796Y-99575363D01*
X172023498Y-99490159D01*
X172208624Y-99366461D01*
X172366061Y-99209024D01*
X172489759Y-99023898D01*
X172574963Y-98818196D01*
X172618400Y-98599825D01*
X172618400Y-98377175D01*
X172574963Y-98158804D01*
X172489759Y-97953102D01*
X172366061Y-97767976D01*
X172208624Y-97610539D01*
X172023498Y-97486841D01*
X171817796Y-97401637D01*
X171599425Y-97358200D01*
X171376775Y-97358200D01*
X171158404Y-97401637D01*
X170952702Y-97486841D01*
X170767576Y-97610539D01*
X170610139Y-97767976D01*
X170486441Y-97953102D01*
X170472100Y-97987724D01*
X170457759Y-97953102D01*
X170334061Y-97767976D01*
X170176624Y-97610539D01*
X169991498Y-97486841D01*
X169785796Y-97401637D01*
X169567425Y-97358200D01*
X169344775Y-97358200D01*
X169126404Y-97401637D01*
X168920702Y-97486841D01*
X168735576Y-97610539D01*
X168578139Y-97767976D01*
X168454441Y-97953102D01*
X168369237Y-98158804D01*
X168325800Y-98377175D01*
X160940211Y-98377175D01*
X160119313Y-97556278D01*
X160094654Y-97526231D01*
X159974757Y-97427834D01*
X159837968Y-97354718D01*
X159689542Y-97309694D01*
X159573858Y-97298300D01*
X159573848Y-97298300D01*
X159535185Y-97294492D01*
X159496522Y-97298300D01*
X149756748Y-97298300D01*
X149718085Y-97294492D01*
X149679422Y-97298300D01*
X145053511Y-97298300D01*
X145036974Y-97281763D01*
X144867456Y-97168495D01*
X144679098Y-97090474D01*
X144479139Y-97050700D01*
X144275261Y-97050700D01*
X144075302Y-97090474D01*
X143886944Y-97168495D01*
X143717426Y-97281763D01*
X143573263Y-97425926D01*
X143459995Y-97595444D01*
X143381974Y-97783802D01*
X143342200Y-97983761D01*
X120434100Y-97983761D01*
X120434100Y-82600000D01*
X170873000Y-82600000D01*
X170873000Y-87000000D01*
X170875440Y-87024776D01*
X170882667Y-87048601D01*
X170894403Y-87070557D01*
X170910197Y-87089803D01*
X170929443Y-87105597D01*
X170951399Y-87117333D01*
X170975224Y-87124560D01*
X171000000Y-87127000D01*
X176400000Y-87127000D01*
X176424776Y-87124560D01*
X176448601Y-87117333D01*
X176470557Y-87105597D01*
X176489803Y-87089803D01*
X176505597Y-87070557D01*
X176517333Y-87048601D01*
X176524560Y-87024776D01*
X176527000Y-87000000D01*
X176527000Y-82600000D01*
X176524560Y-82575224D01*
X176517333Y-82551399D01*
X176505597Y-82529443D01*
X176489803Y-82510197D01*
X176470557Y-82494403D01*
X176448601Y-82482667D01*
X176424776Y-82475440D01*
X176400000Y-82473000D01*
X171000000Y-82473000D01*
X170975224Y-82475440D01*
X170951399Y-82482667D01*
X170929443Y-82494403D01*
X170910197Y-82510197D01*
X170894403Y-82529443D01*
X170882667Y-82551399D01*
X170875440Y-82575224D01*
X170873000Y-82600000D01*
X120434100Y-82600000D01*
X120434100Y-63470372D01*
X122402800Y-63470372D01*
X122402800Y-63910628D01*
X122488690Y-64342425D01*
X122657169Y-64749169D01*
X122901762Y-65115229D01*
X123213071Y-65426538D01*
X123579131Y-65671131D01*
X123985875Y-65839610D01*
X124417672Y-65925500D01*
X124857928Y-65925500D01*
X125289725Y-65839610D01*
X125696469Y-65671131D01*
X126062529Y-65426538D01*
X126373838Y-65115229D01*
X126618431Y-64749169D01*
X126786910Y-64342425D01*
X126872800Y-63910628D01*
X126872800Y-63470372D01*
X126786910Y-63038575D01*
X126618431Y-62631831D01*
X126373838Y-62265771D01*
X126062529Y-61954462D01*
X125696469Y-61709869D01*
X125289725Y-61541390D01*
X124857928Y-61455500D01*
X124417672Y-61455500D01*
X123985875Y-61541390D01*
X123579131Y-61709869D01*
X123213071Y-61954462D01*
X122901762Y-62265771D01*
X122657169Y-62631831D01*
X122488690Y-63038575D01*
X122402800Y-63470372D01*
X120434100Y-63470372D01*
X120434100Y-60193094D01*
X120582976Y-60010554D01*
X120770888Y-59855100D01*
X176588979Y-59855100D01*
X176860582Y-59874566D01*
G37*
X176860582Y-59874566D02*
X177122195Y-59931600D01*
X177372981Y-60025351D01*
X177607851Y-60153918D01*
X177821973Y-60314658D01*
X178010990Y-60504296D01*
X178171030Y-60718950D01*
X178298819Y-60954230D01*
X178391751Y-61205334D01*
X178447924Y-61467128D01*
X178466498Y-61738796D01*
X178289160Y-115756024D01*
X178268968Y-116026435D01*
X178211552Y-116286819D01*
X178117739Y-116536404D01*
X177989431Y-116770137D01*
X177829233Y-116983274D01*
X177640386Y-117171502D01*
X177426718Y-117331004D01*
X177192568Y-117458542D01*
X176942677Y-117551535D01*
X176682112Y-117608095D01*
X176411626Y-117627400D01*
X122311630Y-117627400D01*
X122040596Y-117608015D01*
X121779507Y-117551219D01*
X121529160Y-117457844D01*
X121294655Y-117329795D01*
X121080762Y-117169676D01*
X120891824Y-116980738D01*
X120731705Y-116766845D01*
X120603656Y-116532340D01*
X120510281Y-116281993D01*
X120453485Y-116020904D01*
X120434100Y-115749870D01*
X120434100Y-113736972D01*
X172021700Y-113736972D01*
X172021700Y-114177228D01*
X172107590Y-114609025D01*
X172276069Y-115015769D01*
X172520662Y-115381829D01*
X172831971Y-115693138D01*
X173198031Y-115937731D01*
X173604775Y-116106210D01*
X174036572Y-116192100D01*
X174476828Y-116192100D01*
X174908625Y-116106210D01*
X175315369Y-115937731D01*
X175681429Y-115693138D01*
X175992738Y-115381829D01*
X176237331Y-115015769D01*
X176405810Y-114609025D01*
X176491700Y-114177228D01*
X176491700Y-113736972D01*
X176405810Y-113305175D01*
X176237331Y-112898431D01*
X175992738Y-112532371D01*
X175681429Y-112221062D01*
X175315369Y-111976469D01*
X174908625Y-111807990D01*
X174476828Y-111722100D01*
X174036572Y-111722100D01*
X173604775Y-111807990D01*
X173198031Y-111976469D01*
X172831971Y-112221062D01*
X172520662Y-112532371D01*
X172276069Y-112898431D01*
X172107590Y-113305175D01*
X172021700Y-113736972D01*
X120434100Y-113736972D01*
X120434100Y-112124913D01*
X135492992Y-112124913D01*
X135588756Y-112389314D01*
X135878371Y-112530204D01*
X136189908Y-112611884D01*
X136511395Y-112631218D01*
X136830475Y-112587461D01*
X137134888Y-112482295D01*
X137308844Y-112389314D01*
X137404608Y-112124913D01*
X141992992Y-112124913D01*
X142088756Y-112389314D01*
X142378371Y-112530204D01*
X142689908Y-112611884D01*
X143011395Y-112631218D01*
X143330475Y-112587461D01*
X143634888Y-112482295D01*
X143808844Y-112389314D01*
X143904608Y-112124913D01*
X143866508Y-112086813D01*
X145640292Y-112086813D01*
X145736056Y-112351214D01*
X146025671Y-112492104D01*
X146337208Y-112573784D01*
X146658695Y-112593118D01*
X146977775Y-112549361D01*
X147282188Y-112444195D01*
X147456144Y-112351214D01*
X147551908Y-112086813D01*
X152140292Y-112086813D01*
X152236056Y-112351214D01*
X152525671Y-112492104D01*
X152837208Y-112573784D01*
X153158695Y-112593118D01*
X153477775Y-112549361D01*
X153782188Y-112444195D01*
X153956144Y-112351214D01*
X154051908Y-112086813D01*
X155571692Y-112086813D01*
X155667456Y-112351214D01*
X155957071Y-112492104D01*
X156268608Y-112573784D01*
X156590095Y-112593118D01*
X156909175Y-112549361D01*
X157213588Y-112444195D01*
X157387544Y-112351214D01*
X157483308Y-112086813D01*
X162071692Y-112086813D01*
X162167456Y-112351214D01*
X162457071Y-112492104D01*
X162768608Y-112573784D01*
X163090095Y-112593118D01*
X163409175Y-112549361D01*
X163713588Y-112444195D01*
X163887544Y-112351214D01*
X163983308Y-112086813D01*
X163027500Y-111131005D01*
X162071692Y-112086813D01*
X157483308Y-112086813D01*
X156527500Y-111131005D01*
X155571692Y-112086813D01*
X154051908Y-112086813D01*
X153096100Y-111131005D01*
X152140292Y-112086813D01*
X147551908Y-112086813D01*
X146596100Y-111131005D01*
X145640292Y-112086813D01*
X143866508Y-112086813D01*
X142948800Y-111169105D01*
X141992992Y-112124913D01*
X137404608Y-112124913D01*
X136448800Y-111169105D01*
X135492992Y-112124913D01*
X120434100Y-112124913D01*
X120434100Y-111052095D01*
X134807082Y-111052095D01*
X134850839Y-111371175D01*
X134956005Y-111675588D01*
X135048986Y-111849544D01*
X135313387Y-111945308D01*
X136269195Y-110989500D01*
X136628405Y-110989500D01*
X137584213Y-111945308D01*
X137848614Y-111849544D01*
X137989504Y-111559929D01*
X138071184Y-111248392D01*
X138082989Y-111052095D01*
X141307082Y-111052095D01*
X141350839Y-111371175D01*
X141456005Y-111675588D01*
X141548986Y-111849544D01*
X141813387Y-111945308D01*
X142769195Y-110989500D01*
X143128405Y-110989500D01*
X144084213Y-111945308D01*
X144348614Y-111849544D01*
X144489504Y-111559929D01*
X144571184Y-111248392D01*
X144585280Y-111013995D01*
X144954382Y-111013995D01*
X144998139Y-111333075D01*
X145103305Y-111637488D01*
X145196286Y-111811444D01*
X145460687Y-111907208D01*
X146416495Y-110951400D01*
X146775705Y-110951400D01*
X147731513Y-111907208D01*
X147995914Y-111811444D01*
X148136804Y-111521829D01*
X148218484Y-111210292D01*
X148230289Y-111013995D01*
X151454382Y-111013995D01*
X151498139Y-111333075D01*
X151603305Y-111637488D01*
X151696286Y-111811444D01*
X151960687Y-111907208D01*
X152916495Y-110951400D01*
X153275705Y-110951400D01*
X154231513Y-111907208D01*
X154495914Y-111811444D01*
X154636804Y-111521829D01*
X154718484Y-111210292D01*
X154730289Y-111013995D01*
X154885782Y-111013995D01*
X154929539Y-111333075D01*
X155034705Y-111637488D01*
X155127686Y-111811444D01*
X155392087Y-111907208D01*
X156347895Y-110951400D01*
X156707105Y-110951400D01*
X157662913Y-111907208D01*
X157927314Y-111811444D01*
X158068204Y-111521829D01*
X158149884Y-111210292D01*
X158161689Y-111013995D01*
X161385782Y-111013995D01*
X161429539Y-111333075D01*
X161534705Y-111637488D01*
X161627686Y-111811444D01*
X161892087Y-111907208D01*
X162847895Y-110951400D01*
X163207105Y-110951400D01*
X164162913Y-111907208D01*
X164427314Y-111811444D01*
X164568204Y-111521829D01*
X164649884Y-111210292D01*
X164669218Y-110888805D01*
X164625461Y-110569725D01*
X164520295Y-110265312D01*
X164427314Y-110091356D01*
X164162913Y-109995592D01*
X163207105Y-110951400D01*
X162847895Y-110951400D01*
X161892087Y-109995592D01*
X161627686Y-110091356D01*
X161486796Y-110380971D01*
X161405116Y-110692508D01*
X161385782Y-111013995D01*
X158161689Y-111013995D01*
X158169218Y-110888805D01*
X158125461Y-110569725D01*
X158020295Y-110265312D01*
X157927314Y-110091356D01*
X157662913Y-109995592D01*
X156707105Y-110951400D01*
X156347895Y-110951400D01*
X155392087Y-109995592D01*
X155127686Y-110091356D01*
X154986796Y-110380971D01*
X154905116Y-110692508D01*
X154885782Y-111013995D01*
X154730289Y-111013995D01*
X154737818Y-110888805D01*
X154694061Y-110569725D01*
X154588895Y-110265312D01*
X154495914Y-110091356D01*
X154231513Y-109995592D01*
X153275705Y-110951400D01*
X152916495Y-110951400D01*
X151960687Y-109995592D01*
X151696286Y-110091356D01*
X151555396Y-110380971D01*
X151473716Y-110692508D01*
X151454382Y-111013995D01*
X148230289Y-111013995D01*
X148237818Y-110888805D01*
X148194061Y-110569725D01*
X148088895Y-110265312D01*
X147995914Y-110091356D01*
X147731513Y-109995592D01*
X146775705Y-110951400D01*
X146416495Y-110951400D01*
X145460687Y-109995592D01*
X145196286Y-110091356D01*
X145055396Y-110380971D01*
X144973716Y-110692508D01*
X144954382Y-111013995D01*
X144585280Y-111013995D01*
X144590518Y-110926905D01*
X144546761Y-110607825D01*
X144441595Y-110303412D01*
X144348614Y-110129456D01*
X144084213Y-110033692D01*
X143128405Y-110989500D01*
X142769195Y-110989500D01*
X141813387Y-110033692D01*
X141548986Y-110129456D01*
X141408096Y-110419071D01*
X141326416Y-110730608D01*
X141307082Y-111052095D01*
X138082989Y-111052095D01*
X138090518Y-110926905D01*
X138046761Y-110607825D01*
X137941595Y-110303412D01*
X137848614Y-110129456D01*
X137584213Y-110033692D01*
X136628405Y-110989500D01*
X136269195Y-110989500D01*
X135313387Y-110033692D01*
X135048986Y-110129456D01*
X134908096Y-110419071D01*
X134826416Y-110730608D01*
X134807082Y-111052095D01*
X120434100Y-111052095D01*
X120434100Y-109854087D01*
X135492992Y-109854087D01*
X136448800Y-110809895D01*
X137404608Y-109854087D01*
X141992992Y-109854087D01*
X142948800Y-110809895D01*
X143904608Y-109854087D01*
X143890809Y-109815987D01*
X145640292Y-109815987D01*
X146596100Y-110771795D01*
X147551908Y-109815987D01*
X152140292Y-109815987D01*
X153096100Y-110771795D01*
X154051908Y-109815987D01*
X155571692Y-109815987D01*
X156527500Y-110771795D01*
X157483308Y-109815987D01*
X162071692Y-109815987D01*
X163027500Y-110771795D01*
X163983308Y-109815987D01*
X163887544Y-109551586D01*
X163597929Y-109410696D01*
X163286392Y-109329016D01*
X162964905Y-109309682D01*
X162645825Y-109353439D01*
X162341412Y-109458605D01*
X162167456Y-109551586D01*
X162071692Y-109815987D01*
X157483308Y-109815987D01*
X157387544Y-109551586D01*
X157097929Y-109410696D01*
X156786392Y-109329016D01*
X156464905Y-109309682D01*
X156145825Y-109353439D01*
X155841412Y-109458605D01*
X155667456Y-109551586D01*
X155571692Y-109815987D01*
X154051908Y-109815987D01*
X153956144Y-109551586D01*
X153666529Y-109410696D01*
X153354992Y-109329016D01*
X153033505Y-109309682D01*
X152714425Y-109353439D01*
X152410012Y-109458605D01*
X152236056Y-109551586D01*
X152140292Y-109815987D01*
X147551908Y-109815987D01*
X147456144Y-109551586D01*
X147166529Y-109410696D01*
X146854992Y-109329016D01*
X146533505Y-109309682D01*
X146214425Y-109353439D01*
X145910012Y-109458605D01*
X145736056Y-109551586D01*
X145640292Y-109815987D01*
X143890809Y-109815987D01*
X143808844Y-109589686D01*
X143519229Y-109448796D01*
X143207692Y-109367116D01*
X142886205Y-109347782D01*
X142567125Y-109391539D01*
X142262712Y-109496705D01*
X142088756Y-109589686D01*
X141992992Y-109854087D01*
X137404608Y-109854087D01*
X137308844Y-109589686D01*
X137019229Y-109448796D01*
X136707692Y-109367116D01*
X136386205Y-109347782D01*
X136067125Y-109391539D01*
X135762712Y-109496705D01*
X135588756Y-109589686D01*
X135492992Y-109854087D01*
X120434100Y-109854087D01*
X120434100Y-106328467D01*
X134813800Y-106328467D01*
X134813800Y-106650533D01*
X134876632Y-106966412D01*
X134999882Y-107263963D01*
X135178813Y-107531752D01*
X135406548Y-107759487D01*
X135674337Y-107938418D01*
X135971888Y-108061668D01*
X136287767Y-108124500D01*
X136609833Y-108124500D01*
X136925712Y-108061668D01*
X137223263Y-107938418D01*
X137491052Y-107759487D01*
X137718787Y-107531752D01*
X137897718Y-107263963D01*
X138020968Y-106966412D01*
X138083800Y-106650533D01*
X138083800Y-106328467D01*
X141313800Y-106328467D01*
X141313800Y-106650533D01*
X141376632Y-106966412D01*
X141499882Y-107263963D01*
X141678813Y-107531752D01*
X141906548Y-107759487D01*
X142174337Y-107938418D01*
X142471888Y-108061668D01*
X142787767Y-108124500D01*
X143109833Y-108124500D01*
X143425712Y-108061668D01*
X143723263Y-107938418D01*
X143991052Y-107759487D01*
X144218787Y-107531752D01*
X144397718Y-107263963D01*
X144520968Y-106966412D01*
X144583800Y-106650533D01*
X144583800Y-106328467D01*
X144576222Y-106290367D01*
X144961100Y-106290367D01*
X144961100Y-106612433D01*
X145023932Y-106928312D01*
X145147182Y-107225863D01*
X145326113Y-107493652D01*
X145553848Y-107721387D01*
X145821637Y-107900318D01*
X146119188Y-108023568D01*
X146435067Y-108086400D01*
X146757133Y-108086400D01*
X147073012Y-108023568D01*
X147370563Y-107900318D01*
X147638352Y-107721387D01*
X147866087Y-107493652D01*
X148045018Y-107225863D01*
X148168268Y-106928312D01*
X148231100Y-106612433D01*
X148231100Y-106290367D01*
X151461100Y-106290367D01*
X151461100Y-106612433D01*
X151523932Y-106928312D01*
X151647182Y-107225863D01*
X151826113Y-107493652D01*
X152053848Y-107721387D01*
X152321637Y-107900318D01*
X152619188Y-108023568D01*
X152935067Y-108086400D01*
X153257133Y-108086400D01*
X153573012Y-108023568D01*
X153870563Y-107900318D01*
X154138352Y-107721387D01*
X154366087Y-107493652D01*
X154545018Y-107225863D01*
X154668268Y-106928312D01*
X154731100Y-106612433D01*
X154731100Y-106290367D01*
X154892500Y-106290367D01*
X154892500Y-106612433D01*
X154955332Y-106928312D01*
X155078582Y-107225863D01*
X155257513Y-107493652D01*
X155485248Y-107721387D01*
X155753037Y-107900318D01*
X156050588Y-108023568D01*
X156366467Y-108086400D01*
X156688533Y-108086400D01*
X157004412Y-108023568D01*
X157301963Y-107900318D01*
X157569752Y-107721387D01*
X157797487Y-107493652D01*
X157976418Y-107225863D01*
X158099668Y-106928312D01*
X158162500Y-106612433D01*
X158162500Y-106290367D01*
X161392500Y-106290367D01*
X161392500Y-106612433D01*
X161455332Y-106928312D01*
X161578582Y-107225863D01*
X161757513Y-107493652D01*
X161985248Y-107721387D01*
X162253037Y-107900318D01*
X162550588Y-108023568D01*
X162866467Y-108086400D01*
X163188533Y-108086400D01*
X163504412Y-108023568D01*
X163801963Y-107900318D01*
X164069752Y-107721387D01*
X164297487Y-107493652D01*
X164476418Y-107225863D01*
X164599668Y-106928312D01*
X164662500Y-106612433D01*
X164662500Y-106290367D01*
X164599668Y-105974488D01*
X164476418Y-105676937D01*
X164297487Y-105409148D01*
X164069752Y-105181413D01*
X163801963Y-105002482D01*
X163504412Y-104879232D01*
X163188533Y-104816400D01*
X162866467Y-104816400D01*
X162550588Y-104879232D01*
X162253037Y-105002482D01*
X161985248Y-105181413D01*
X161757513Y-105409148D01*
X161578582Y-105676937D01*
X161455332Y-105974488D01*
X161392500Y-106290367D01*
X158162500Y-106290367D01*
X158099668Y-105974488D01*
X157976418Y-105676937D01*
X157797487Y-105409148D01*
X157569752Y-105181413D01*
X157301963Y-105002482D01*
X157004412Y-104879232D01*
X156688533Y-104816400D01*
X156366467Y-104816400D01*
X156050588Y-104879232D01*
X155753037Y-105002482D01*
X155485248Y-105181413D01*
X155257513Y-105409148D01*
X155078582Y-105676937D01*
X154955332Y-105974488D01*
X154892500Y-106290367D01*
X154731100Y-106290367D01*
X154668268Y-105974488D01*
X154545018Y-105676937D01*
X154366087Y-105409148D01*
X154138352Y-105181413D01*
X153870563Y-105002482D01*
X153573012Y-104879232D01*
X153257133Y-104816400D01*
X152935067Y-104816400D01*
X152619188Y-104879232D01*
X152321637Y-105002482D01*
X152053848Y-105181413D01*
X151826113Y-105409148D01*
X151647182Y-105676937D01*
X151523932Y-105974488D01*
X151461100Y-106290367D01*
X148231100Y-106290367D01*
X148168268Y-105974488D01*
X148045018Y-105676937D01*
X147866087Y-105409148D01*
X147638352Y-105181413D01*
X147370563Y-105002482D01*
X147073012Y-104879232D01*
X146757133Y-104816400D01*
X146435067Y-104816400D01*
X146119188Y-104879232D01*
X145821637Y-105002482D01*
X145553848Y-105181413D01*
X145326113Y-105409148D01*
X145147182Y-105676937D01*
X145023932Y-105974488D01*
X144961100Y-106290367D01*
X144576222Y-106290367D01*
X144520968Y-106012588D01*
X144397718Y-105715037D01*
X144218787Y-105447248D01*
X143991052Y-105219513D01*
X143723263Y-105040582D01*
X143425712Y-104917332D01*
X143109833Y-104854500D01*
X142787767Y-104854500D01*
X142471888Y-104917332D01*
X142174337Y-105040582D01*
X141906548Y-105219513D01*
X141678813Y-105447248D01*
X141499882Y-105715037D01*
X141376632Y-106012588D01*
X141313800Y-106328467D01*
X138083800Y-106328467D01*
X138020968Y-106012588D01*
X137897718Y-105715037D01*
X137718787Y-105447248D01*
X137491052Y-105219513D01*
X137223263Y-105040582D01*
X136925712Y-104917332D01*
X136609833Y-104854500D01*
X136287767Y-104854500D01*
X135971888Y-104917332D01*
X135674337Y-105040582D01*
X135406548Y-105219513D01*
X135178813Y-105447248D01*
X134999882Y-105715037D01*
X134876632Y-106012588D01*
X134813800Y-106328467D01*
X120434100Y-106328467D01*
X120434100Y-97983761D01*
X143342200Y-97983761D01*
X143342200Y-98187639D01*
X143381974Y-98387598D01*
X143459995Y-98575956D01*
X143573263Y-98745474D01*
X143717426Y-98889637D01*
X143886944Y-99002905D01*
X144075302Y-99080926D01*
X144275261Y-99120700D01*
X144298649Y-99120700D01*
X144716501Y-99538552D01*
X144716500Y-102967759D01*
X144528902Y-103005074D01*
X144340544Y-103083095D01*
X144171026Y-103196363D01*
X144026863Y-103340526D01*
X143913595Y-103510044D01*
X143835574Y-103698402D01*
X143795800Y-103898361D01*
X143795800Y-104102239D01*
X143835574Y-104302198D01*
X143913595Y-104490556D01*
X144026863Y-104660074D01*
X144171026Y-104804237D01*
X144340544Y-104917505D01*
X144528902Y-104995526D01*
X144728861Y-105035300D01*
X144932739Y-105035300D01*
X145132698Y-104995526D01*
X145321056Y-104917505D01*
X145490574Y-104804237D01*
X145634737Y-104660074D01*
X145748005Y-104490556D01*
X145826026Y-104302198D01*
X145865800Y-104102239D01*
X145865800Y-104078851D01*
X146033334Y-103911318D01*
X146063369Y-103886669D01*
X146161766Y-103766772D01*
X146234882Y-103629983D01*
X146279906Y-103481557D01*
X146291300Y-103365873D01*
X146291300Y-103365864D01*
X146295108Y-103327201D01*
X146291300Y-103288538D01*
X146291300Y-99251062D01*
X146295108Y-99212399D01*
X146291300Y-99173736D01*
X146291300Y-99173727D01*
X146279906Y-99058043D01*
X146234882Y-98909617D01*
X146215363Y-98873100D01*
X149391935Y-98873100D01*
X154228679Y-103709845D01*
X154186074Y-103812702D01*
X154146300Y-104012661D01*
X154146300Y-104216539D01*
X154186074Y-104416498D01*
X154264095Y-104604856D01*
X154377363Y-104774374D01*
X154521526Y-104918537D01*
X154691044Y-105031805D01*
X154879402Y-105109826D01*
X155079361Y-105149600D01*
X155283239Y-105149600D01*
X155483198Y-105109826D01*
X155671556Y-105031805D01*
X155841074Y-104918537D01*
X155985237Y-104774374D01*
X156098505Y-104604856D01*
X156176526Y-104416498D01*
X156216300Y-104216539D01*
X156216300Y-104012661D01*
X156176526Y-103812702D01*
X156098505Y-103624344D01*
X155985237Y-103454826D01*
X155960839Y-103430428D01*
X155957306Y-103394558D01*
X155912282Y-103246132D01*
X155873108Y-103172843D01*
X155839166Y-103109342D01*
X155789135Y-103048380D01*
X155740769Y-102989446D01*
X155710728Y-102964792D01*
X151619035Y-98873100D01*
X159209035Y-98873100D01*
X164058479Y-103722546D01*
X164015874Y-103825402D01*
X163976100Y-104025361D01*
X163976100Y-104229239D01*
X164015874Y-104429198D01*
X164093895Y-104617556D01*
X164207163Y-104787074D01*
X164351326Y-104931237D01*
X164520844Y-105044505D01*
X164709202Y-105122526D01*
X164909161Y-105162300D01*
X165113039Y-105162300D01*
X165312998Y-105122526D01*
X165501356Y-105044505D01*
X165670874Y-104931237D01*
X165815037Y-104787074D01*
X165928305Y-104617556D01*
X166006326Y-104429198D01*
X166046100Y-104229239D01*
X166046100Y-104025361D01*
X166006326Y-103825402D01*
X165928305Y-103637044D01*
X165815037Y-103467526D01*
X165804686Y-103457175D01*
X169341800Y-103457175D01*
X169341800Y-103679825D01*
X169385237Y-103898196D01*
X169470441Y-104103898D01*
X169594139Y-104289024D01*
X169751576Y-104446461D01*
X169936702Y-104570159D01*
X170142404Y-104655363D01*
X170360775Y-104698800D01*
X170583425Y-104698800D01*
X170801796Y-104655363D01*
X171007498Y-104570159D01*
X171192624Y-104446461D01*
X171350061Y-104289024D01*
X171473759Y-104103898D01*
X171558963Y-103898196D01*
X171602400Y-103679825D01*
X171602400Y-103457175D01*
X171558963Y-103238804D01*
X171473759Y-103033102D01*
X171350061Y-102847976D01*
X171192624Y-102690539D01*
X171007498Y-102566841D01*
X170801796Y-102481637D01*
X170583425Y-102438200D01*
X170360775Y-102438200D01*
X170142404Y-102481637D01*
X169936702Y-102566841D01*
X169751576Y-102690539D01*
X169594139Y-102847976D01*
X169470441Y-103033102D01*
X169385237Y-103238804D01*
X169341800Y-103457175D01*
X165804686Y-103457175D01*
X165790639Y-103443128D01*
X165787106Y-103407258D01*
X165742082Y-103258832D01*
X165668966Y-103122043D01*
X165570569Y-103002146D01*
X165540533Y-102977496D01*
X162638697Y-100075661D01*
X166770100Y-100075661D01*
X166770100Y-100279539D01*
X166809874Y-100479498D01*
X166887895Y-100667856D01*
X167001163Y-100837374D01*
X167093901Y-100930112D01*
X167093900Y-101520589D01*
X167001163Y-101613326D01*
X166887895Y-101782844D01*
X166809874Y-101971202D01*
X166770100Y-102171161D01*
X166770100Y-102375039D01*
X166809874Y-102574998D01*
X166887895Y-102763356D01*
X167001163Y-102932874D01*
X167145326Y-103077037D01*
X167314844Y-103190305D01*
X167503202Y-103268326D01*
X167703161Y-103308100D01*
X167907039Y-103308100D01*
X168106998Y-103268326D01*
X168295356Y-103190305D01*
X168464874Y-103077037D01*
X168609037Y-102932874D01*
X168722305Y-102763356D01*
X168800326Y-102574998D01*
X168840100Y-102375039D01*
X168840100Y-102171161D01*
X168800326Y-101971202D01*
X168722305Y-101782844D01*
X168609037Y-101613326D01*
X168516300Y-101520589D01*
X168516300Y-100930111D01*
X168609037Y-100837374D01*
X168722305Y-100667856D01*
X168800326Y-100479498D01*
X168840100Y-100279539D01*
X168840100Y-100075661D01*
X168800326Y-99875702D01*
X168722305Y-99687344D01*
X168609037Y-99517826D01*
X168464874Y-99373663D01*
X168295356Y-99260395D01*
X168106998Y-99182374D01*
X167907039Y-99142600D01*
X167703161Y-99142600D01*
X167503202Y-99182374D01*
X167314844Y-99260395D01*
X167145326Y-99373663D01*
X167001163Y-99517826D01*
X166887895Y-99687344D01*
X166809874Y-99875702D01*
X166770100Y-100075661D01*
X162638697Y-100075661D01*
X160940211Y-98377175D01*
X168325800Y-98377175D01*
X168325800Y-98599825D01*
X168369237Y-98818196D01*
X168454441Y-99023898D01*
X168578139Y-99209024D01*
X168735576Y-99366461D01*
X168920702Y-99490159D01*
X169126404Y-99575363D01*
X169344775Y-99618800D01*
X169567425Y-99618800D01*
X169785796Y-99575363D01*
X169991498Y-99490159D01*
X170176624Y-99366461D01*
X170334061Y-99209024D01*
X170457759Y-99023898D01*
X170472100Y-98989276D01*
X170486441Y-99023898D01*
X170610139Y-99209024D01*
X170767576Y-99366461D01*
X170952702Y-99490159D01*
X171158404Y-99575363D01*
X171376775Y-99618800D01*
X171599425Y-99618800D01*
X171817796Y-99575363D01*
X172023498Y-99490159D01*
X172208624Y-99366461D01*
X172366061Y-99209024D01*
X172489759Y-99023898D01*
X172574963Y-98818196D01*
X172618400Y-98599825D01*
X172618400Y-98377175D01*
X172574963Y-98158804D01*
X172489759Y-97953102D01*
X172366061Y-97767976D01*
X172208624Y-97610539D01*
X172023498Y-97486841D01*
X171817796Y-97401637D01*
X171599425Y-97358200D01*
X171376775Y-97358200D01*
X171158404Y-97401637D01*
X170952702Y-97486841D01*
X170767576Y-97610539D01*
X170610139Y-97767976D01*
X170486441Y-97953102D01*
X170472100Y-97987724D01*
X170457759Y-97953102D01*
X170334061Y-97767976D01*
X170176624Y-97610539D01*
X169991498Y-97486841D01*
X169785796Y-97401637D01*
X169567425Y-97358200D01*
X169344775Y-97358200D01*
X169126404Y-97401637D01*
X168920702Y-97486841D01*
X168735576Y-97610539D01*
X168578139Y-97767976D01*
X168454441Y-97953102D01*
X168369237Y-98158804D01*
X168325800Y-98377175D01*
X160940211Y-98377175D01*
X160119313Y-97556278D01*
X160094654Y-97526231D01*
X159974757Y-97427834D01*
X159837968Y-97354718D01*
X159689542Y-97309694D01*
X159573858Y-97298300D01*
X159573848Y-97298300D01*
X159535185Y-97294492D01*
X159496522Y-97298300D01*
X149756748Y-97298300D01*
X149718085Y-97294492D01*
X149679422Y-97298300D01*
X145053511Y-97298300D01*
X145036974Y-97281763D01*
X144867456Y-97168495D01*
X144679098Y-97090474D01*
X144479139Y-97050700D01*
X144275261Y-97050700D01*
X144075302Y-97090474D01*
X143886944Y-97168495D01*
X143717426Y-97281763D01*
X143573263Y-97425926D01*
X143459995Y-97595444D01*
X143381974Y-97783802D01*
X143342200Y-97983761D01*
X120434100Y-97983761D01*
X120434100Y-82600000D01*
X170873000Y-82600000D01*
X170873000Y-87000000D01*
X170875440Y-87024776D01*
X170882667Y-87048601D01*
X170894403Y-87070557D01*
X170910197Y-87089803D01*
X170929443Y-87105597D01*
X170951399Y-87117333D01*
X170975224Y-87124560D01*
X171000000Y-87127000D01*
X176400000Y-87127000D01*
X176424776Y-87124560D01*
X176448601Y-87117333D01*
X176470557Y-87105597D01*
X176489803Y-87089803D01*
X176505597Y-87070557D01*
X176517333Y-87048601D01*
X176524560Y-87024776D01*
X176527000Y-87000000D01*
X176527000Y-82600000D01*
X176524560Y-82575224D01*
X176517333Y-82551399D01*
X176505597Y-82529443D01*
X176489803Y-82510197D01*
X176470557Y-82494403D01*
X176448601Y-82482667D01*
X176424776Y-82475440D01*
X176400000Y-82473000D01*
X171000000Y-82473000D01*
X170975224Y-82475440D01*
X170951399Y-82482667D01*
X170929443Y-82494403D01*
X170910197Y-82510197D01*
X170894403Y-82529443D01*
X170882667Y-82551399D01*
X170875440Y-82575224D01*
X170873000Y-82600000D01*
X120434100Y-82600000D01*
X120434100Y-63470372D01*
X122402800Y-63470372D01*
X122402800Y-63910628D01*
X122488690Y-64342425D01*
X122657169Y-64749169D01*
X122901762Y-65115229D01*
X123213071Y-65426538D01*
X123579131Y-65671131D01*
X123985875Y-65839610D01*
X124417672Y-65925500D01*
X124857928Y-65925500D01*
X125289725Y-65839610D01*
X125696469Y-65671131D01*
X126062529Y-65426538D01*
X126373838Y-65115229D01*
X126618431Y-64749169D01*
X126786910Y-64342425D01*
X126872800Y-63910628D01*
X126872800Y-63470372D01*
X126786910Y-63038575D01*
X126618431Y-62631831D01*
X126373838Y-62265771D01*
X126062529Y-61954462D01*
X125696469Y-61709869D01*
X125289725Y-61541390D01*
X124857928Y-61455500D01*
X124417672Y-61455500D01*
X123985875Y-61541390D01*
X123579131Y-61709869D01*
X123213071Y-61954462D01*
X122901762Y-62265771D01*
X122657169Y-62631831D01*
X122488690Y-63038575D01*
X122402800Y-63470372D01*
X120434100Y-63470372D01*
X120434100Y-60193094D01*
X120582976Y-60010554D01*
X120770888Y-59855100D01*
X176588979Y-59855100D01*
X176860582Y-59874566D01*
M02*
