G04 #@! TF.GenerationSoftware,KiCad,Pcbnew,(5.1.5)-3*
G04 #@! TF.CreationDate,2020-02-29T16:38:02-03:00*
G04 #@! TF.ProjectId,BKR01AT,424b5230-3141-4542-9e6b-696361645f70,rev?*
G04 #@! TF.SameCoordinates,Original*
G04 #@! TF.FileFunction,Soldermask,Top*
G04 #@! TF.FilePolarity,Negative*
%FSLAX46Y46*%
G04 Gerber Fmt 4.6, Leading zero omitted, Abs format (unit mm)*
G04 Created by KiCad (PCBNEW (5.1.5)-3) date 2020-02-29 16:38:02*
%MOMM*%
%LPD*%
G04 APERTURE LIST*
%ADD10C,0.100000*%
G04 APERTURE END LIST*
D10*
G36*
X122840543Y-115698814D02*
G01*
X122840546Y-115698815D01*
X122840545Y-115698815D01*
X122931539Y-115736506D01*
X122972763Y-115764051D01*
X123013430Y-115791224D01*
X123083076Y-115860870D01*
X123137795Y-115942763D01*
X123175486Y-116033757D01*
X123194700Y-116130353D01*
X123194700Y-116228847D01*
X123175486Y-116325443D01*
X123175485Y-116325445D01*
X123137794Y-116416439D01*
X123083075Y-116498331D01*
X123013431Y-116567975D01*
X122931539Y-116622694D01*
X122931538Y-116622695D01*
X122931537Y-116622695D01*
X122840543Y-116660386D01*
X122743947Y-116679600D01*
X122645453Y-116679600D01*
X122548857Y-116660386D01*
X122457863Y-116622695D01*
X122457862Y-116622695D01*
X122457861Y-116622694D01*
X122375969Y-116567975D01*
X122306325Y-116498331D01*
X122251606Y-116416439D01*
X122213915Y-116325445D01*
X122213914Y-116325443D01*
X122194700Y-116228847D01*
X122194700Y-116130353D01*
X122213914Y-116033757D01*
X122251605Y-115942763D01*
X122306324Y-115860870D01*
X122375970Y-115791224D01*
X122416637Y-115764051D01*
X122457861Y-115736506D01*
X122548855Y-115698815D01*
X122548854Y-115698815D01*
X122548857Y-115698814D01*
X122645453Y-115679600D01*
X122743947Y-115679600D01*
X122840543Y-115698814D01*
G37*
G36*
X174631956Y-112348398D02*
G01*
X174738279Y-112369547D01*
X175038742Y-112494003D01*
X175309151Y-112674685D01*
X175539115Y-112904649D01*
X175719797Y-113175058D01*
X175844253Y-113475521D01*
X175907700Y-113794491D01*
X175907700Y-114119709D01*
X175844253Y-114438679D01*
X175719797Y-114739142D01*
X175539115Y-115009551D01*
X175309151Y-115239515D01*
X175038742Y-115420197D01*
X174738279Y-115544653D01*
X174631956Y-115565802D01*
X174419311Y-115608100D01*
X174094089Y-115608100D01*
X173881444Y-115565802D01*
X173775121Y-115544653D01*
X173474658Y-115420197D01*
X173204249Y-115239515D01*
X172974285Y-115009551D01*
X172793603Y-114739142D01*
X172669147Y-114438679D01*
X172605700Y-114119709D01*
X172605700Y-113794491D01*
X172669147Y-113475521D01*
X172793603Y-113175058D01*
X172974285Y-112904649D01*
X173204249Y-112674685D01*
X173474658Y-112494003D01*
X173775121Y-112369547D01*
X173881444Y-112348398D01*
X174094089Y-112306100D01*
X174419311Y-112306100D01*
X174631956Y-112348398D01*
G37*
G36*
X136755364Y-109978889D02*
G01*
X136946633Y-110058115D01*
X136946635Y-110058116D01*
X137118773Y-110173135D01*
X137265165Y-110319527D01*
X137354728Y-110453567D01*
X137380185Y-110491667D01*
X137459411Y-110682936D01*
X137499800Y-110885984D01*
X137499800Y-111093016D01*
X137459411Y-111296064D01*
X137380185Y-111487333D01*
X137380184Y-111487335D01*
X137265165Y-111659473D01*
X137118773Y-111805865D01*
X136946635Y-111920884D01*
X136946634Y-111920885D01*
X136946633Y-111920885D01*
X136755364Y-112000111D01*
X136552316Y-112040500D01*
X136345284Y-112040500D01*
X136142236Y-112000111D01*
X135950967Y-111920885D01*
X135950966Y-111920885D01*
X135950965Y-111920884D01*
X135778827Y-111805865D01*
X135632435Y-111659473D01*
X135517416Y-111487335D01*
X135517415Y-111487333D01*
X135438189Y-111296064D01*
X135397800Y-111093016D01*
X135397800Y-110885984D01*
X135438189Y-110682936D01*
X135517415Y-110491667D01*
X135542873Y-110453567D01*
X135632435Y-110319527D01*
X135778827Y-110173135D01*
X135950965Y-110058116D01*
X135950967Y-110058115D01*
X136142236Y-109978889D01*
X136345284Y-109938500D01*
X136552316Y-109938500D01*
X136755364Y-109978889D01*
G37*
G36*
X143255364Y-109978889D02*
G01*
X143446633Y-110058115D01*
X143446635Y-110058116D01*
X143618773Y-110173135D01*
X143765165Y-110319527D01*
X143854728Y-110453567D01*
X143880185Y-110491667D01*
X143959411Y-110682936D01*
X143999800Y-110885984D01*
X143999800Y-111093016D01*
X143959411Y-111296064D01*
X143880185Y-111487333D01*
X143880184Y-111487335D01*
X143765165Y-111659473D01*
X143618773Y-111805865D01*
X143446635Y-111920884D01*
X143446634Y-111920885D01*
X143446633Y-111920885D01*
X143255364Y-112000111D01*
X143052316Y-112040500D01*
X142845284Y-112040500D01*
X142642236Y-112000111D01*
X142450967Y-111920885D01*
X142450966Y-111920885D01*
X142450965Y-111920884D01*
X142278827Y-111805865D01*
X142132435Y-111659473D01*
X142017416Y-111487335D01*
X142017415Y-111487333D01*
X141938189Y-111296064D01*
X141897800Y-111093016D01*
X141897800Y-110885984D01*
X141938189Y-110682936D01*
X142017415Y-110491667D01*
X142042873Y-110453567D01*
X142132435Y-110319527D01*
X142278827Y-110173135D01*
X142450965Y-110058116D01*
X142450967Y-110058115D01*
X142642236Y-109978889D01*
X142845284Y-109938500D01*
X143052316Y-109938500D01*
X143255364Y-109978889D01*
G37*
G36*
X156834064Y-109940789D02*
G01*
X157025333Y-110020015D01*
X157025335Y-110020016D01*
X157197473Y-110135035D01*
X157343865Y-110281427D01*
X157458885Y-110453567D01*
X157538111Y-110644836D01*
X157578500Y-110847884D01*
X157578500Y-111054916D01*
X157538111Y-111257964D01*
X157522329Y-111296065D01*
X157458884Y-111449235D01*
X157343865Y-111621373D01*
X157197473Y-111767765D01*
X157025335Y-111882784D01*
X157025334Y-111882785D01*
X157025333Y-111882785D01*
X156834064Y-111962011D01*
X156631016Y-112002400D01*
X156423984Y-112002400D01*
X156220936Y-111962011D01*
X156029667Y-111882785D01*
X156029666Y-111882785D01*
X156029665Y-111882784D01*
X155857527Y-111767765D01*
X155711135Y-111621373D01*
X155596116Y-111449235D01*
X155532671Y-111296065D01*
X155516889Y-111257964D01*
X155476500Y-111054916D01*
X155476500Y-110847884D01*
X155516889Y-110644836D01*
X155596115Y-110453567D01*
X155711135Y-110281427D01*
X155857527Y-110135035D01*
X156029665Y-110020016D01*
X156029667Y-110020015D01*
X156220936Y-109940789D01*
X156423984Y-109900400D01*
X156631016Y-109900400D01*
X156834064Y-109940789D01*
G37*
G36*
X163334064Y-109940789D02*
G01*
X163525333Y-110020015D01*
X163525335Y-110020016D01*
X163697473Y-110135035D01*
X163843865Y-110281427D01*
X163958885Y-110453567D01*
X164038111Y-110644836D01*
X164078500Y-110847884D01*
X164078500Y-111054916D01*
X164038111Y-111257964D01*
X164022329Y-111296065D01*
X163958884Y-111449235D01*
X163843865Y-111621373D01*
X163697473Y-111767765D01*
X163525335Y-111882784D01*
X163525334Y-111882785D01*
X163525333Y-111882785D01*
X163334064Y-111962011D01*
X163131016Y-112002400D01*
X162923984Y-112002400D01*
X162720936Y-111962011D01*
X162529667Y-111882785D01*
X162529666Y-111882785D01*
X162529665Y-111882784D01*
X162357527Y-111767765D01*
X162211135Y-111621373D01*
X162096116Y-111449235D01*
X162032671Y-111296065D01*
X162016889Y-111257964D01*
X161976500Y-111054916D01*
X161976500Y-110847884D01*
X162016889Y-110644836D01*
X162096115Y-110453567D01*
X162211135Y-110281427D01*
X162357527Y-110135035D01*
X162529665Y-110020016D01*
X162529667Y-110020015D01*
X162720936Y-109940789D01*
X162923984Y-109900400D01*
X163131016Y-109900400D01*
X163334064Y-109940789D01*
G37*
G36*
X153402664Y-109940789D02*
G01*
X153593933Y-110020015D01*
X153593935Y-110020016D01*
X153766073Y-110135035D01*
X153912465Y-110281427D01*
X154027485Y-110453567D01*
X154106711Y-110644836D01*
X154147100Y-110847884D01*
X154147100Y-111054916D01*
X154106711Y-111257964D01*
X154090929Y-111296065D01*
X154027484Y-111449235D01*
X153912465Y-111621373D01*
X153766073Y-111767765D01*
X153593935Y-111882784D01*
X153593934Y-111882785D01*
X153593933Y-111882785D01*
X153402664Y-111962011D01*
X153199616Y-112002400D01*
X152992584Y-112002400D01*
X152789536Y-111962011D01*
X152598267Y-111882785D01*
X152598266Y-111882785D01*
X152598265Y-111882784D01*
X152426127Y-111767765D01*
X152279735Y-111621373D01*
X152164716Y-111449235D01*
X152101271Y-111296065D01*
X152085489Y-111257964D01*
X152045100Y-111054916D01*
X152045100Y-110847884D01*
X152085489Y-110644836D01*
X152164715Y-110453567D01*
X152279735Y-110281427D01*
X152426127Y-110135035D01*
X152598265Y-110020016D01*
X152598267Y-110020015D01*
X152789536Y-109940789D01*
X152992584Y-109900400D01*
X153199616Y-109900400D01*
X153402664Y-109940789D01*
G37*
G36*
X146902664Y-109940789D02*
G01*
X147093933Y-110020015D01*
X147093935Y-110020016D01*
X147266073Y-110135035D01*
X147412465Y-110281427D01*
X147527485Y-110453567D01*
X147606711Y-110644836D01*
X147647100Y-110847884D01*
X147647100Y-111054916D01*
X147606711Y-111257964D01*
X147590929Y-111296065D01*
X147527484Y-111449235D01*
X147412465Y-111621373D01*
X147266073Y-111767765D01*
X147093935Y-111882784D01*
X147093934Y-111882785D01*
X147093933Y-111882785D01*
X146902664Y-111962011D01*
X146699616Y-112002400D01*
X146492584Y-112002400D01*
X146289536Y-111962011D01*
X146098267Y-111882785D01*
X146098266Y-111882785D01*
X146098265Y-111882784D01*
X145926127Y-111767765D01*
X145779735Y-111621373D01*
X145664716Y-111449235D01*
X145601271Y-111296065D01*
X145585489Y-111257964D01*
X145545100Y-111054916D01*
X145545100Y-110847884D01*
X145585489Y-110644836D01*
X145664715Y-110453567D01*
X145779735Y-110281427D01*
X145926127Y-110135035D01*
X146098265Y-110020016D01*
X146098267Y-110020015D01*
X146289536Y-109940789D01*
X146492584Y-109900400D01*
X146699616Y-109900400D01*
X146902664Y-109940789D01*
G37*
G36*
X143255364Y-105478889D02*
G01*
X143446633Y-105558115D01*
X143446635Y-105558116D01*
X143618773Y-105673135D01*
X143765165Y-105819527D01*
X143854728Y-105953567D01*
X143880185Y-105991667D01*
X143959411Y-106182936D01*
X143999800Y-106385984D01*
X143999800Y-106593016D01*
X143959411Y-106796064D01*
X143880185Y-106987333D01*
X143880184Y-106987335D01*
X143765165Y-107159473D01*
X143618773Y-107305865D01*
X143446635Y-107420884D01*
X143446634Y-107420885D01*
X143446633Y-107420885D01*
X143255364Y-107500111D01*
X143052316Y-107540500D01*
X142845284Y-107540500D01*
X142642236Y-107500111D01*
X142450967Y-107420885D01*
X142450966Y-107420885D01*
X142450965Y-107420884D01*
X142278827Y-107305865D01*
X142132435Y-107159473D01*
X142017416Y-106987335D01*
X142017415Y-106987333D01*
X141938189Y-106796064D01*
X141897800Y-106593016D01*
X141897800Y-106385984D01*
X141938189Y-106182936D01*
X142017415Y-105991667D01*
X142042873Y-105953567D01*
X142132435Y-105819527D01*
X142278827Y-105673135D01*
X142450965Y-105558116D01*
X142450967Y-105558115D01*
X142642236Y-105478889D01*
X142845284Y-105438500D01*
X143052316Y-105438500D01*
X143255364Y-105478889D01*
G37*
G36*
X136755364Y-105478889D02*
G01*
X136946633Y-105558115D01*
X136946635Y-105558116D01*
X137118773Y-105673135D01*
X137265165Y-105819527D01*
X137354728Y-105953567D01*
X137380185Y-105991667D01*
X137459411Y-106182936D01*
X137499800Y-106385984D01*
X137499800Y-106593016D01*
X137459411Y-106796064D01*
X137380185Y-106987333D01*
X137380184Y-106987335D01*
X137265165Y-107159473D01*
X137118773Y-107305865D01*
X136946635Y-107420884D01*
X136946634Y-107420885D01*
X136946633Y-107420885D01*
X136755364Y-107500111D01*
X136552316Y-107540500D01*
X136345284Y-107540500D01*
X136142236Y-107500111D01*
X135950967Y-107420885D01*
X135950966Y-107420885D01*
X135950965Y-107420884D01*
X135778827Y-107305865D01*
X135632435Y-107159473D01*
X135517416Y-106987335D01*
X135517415Y-106987333D01*
X135438189Y-106796064D01*
X135397800Y-106593016D01*
X135397800Y-106385984D01*
X135438189Y-106182936D01*
X135517415Y-105991667D01*
X135542873Y-105953567D01*
X135632435Y-105819527D01*
X135778827Y-105673135D01*
X135950965Y-105558116D01*
X135950967Y-105558115D01*
X136142236Y-105478889D01*
X136345284Y-105438500D01*
X136552316Y-105438500D01*
X136755364Y-105478889D01*
G37*
G36*
X146902664Y-105440789D02*
G01*
X147093933Y-105520015D01*
X147093935Y-105520016D01*
X147266073Y-105635035D01*
X147412465Y-105781427D01*
X147527485Y-105953567D01*
X147606711Y-106144836D01*
X147647100Y-106347884D01*
X147647100Y-106554916D01*
X147606711Y-106757964D01*
X147590929Y-106796065D01*
X147527484Y-106949235D01*
X147412465Y-107121373D01*
X147266073Y-107267765D01*
X147093935Y-107382784D01*
X147093934Y-107382785D01*
X147093933Y-107382785D01*
X146902664Y-107462011D01*
X146699616Y-107502400D01*
X146492584Y-107502400D01*
X146289536Y-107462011D01*
X146098267Y-107382785D01*
X146098266Y-107382785D01*
X146098265Y-107382784D01*
X145926127Y-107267765D01*
X145779735Y-107121373D01*
X145664716Y-106949235D01*
X145601271Y-106796065D01*
X145585489Y-106757964D01*
X145545100Y-106554916D01*
X145545100Y-106347884D01*
X145585489Y-106144836D01*
X145664715Y-105953567D01*
X145779735Y-105781427D01*
X145926127Y-105635035D01*
X146098265Y-105520016D01*
X146098267Y-105520015D01*
X146289536Y-105440789D01*
X146492584Y-105400400D01*
X146699616Y-105400400D01*
X146902664Y-105440789D01*
G37*
G36*
X163334064Y-105440789D02*
G01*
X163525333Y-105520015D01*
X163525335Y-105520016D01*
X163697473Y-105635035D01*
X163843865Y-105781427D01*
X163958885Y-105953567D01*
X164038111Y-106144836D01*
X164078500Y-106347884D01*
X164078500Y-106554916D01*
X164038111Y-106757964D01*
X164022329Y-106796065D01*
X163958884Y-106949235D01*
X163843865Y-107121373D01*
X163697473Y-107267765D01*
X163525335Y-107382784D01*
X163525334Y-107382785D01*
X163525333Y-107382785D01*
X163334064Y-107462011D01*
X163131016Y-107502400D01*
X162923984Y-107502400D01*
X162720936Y-107462011D01*
X162529667Y-107382785D01*
X162529666Y-107382785D01*
X162529665Y-107382784D01*
X162357527Y-107267765D01*
X162211135Y-107121373D01*
X162096116Y-106949235D01*
X162032671Y-106796065D01*
X162016889Y-106757964D01*
X161976500Y-106554916D01*
X161976500Y-106347884D01*
X162016889Y-106144836D01*
X162096115Y-105953567D01*
X162211135Y-105781427D01*
X162357527Y-105635035D01*
X162529665Y-105520016D01*
X162529667Y-105520015D01*
X162720936Y-105440789D01*
X162923984Y-105400400D01*
X163131016Y-105400400D01*
X163334064Y-105440789D01*
G37*
G36*
X156834064Y-105440789D02*
G01*
X157025333Y-105520015D01*
X157025335Y-105520016D01*
X157197473Y-105635035D01*
X157343865Y-105781427D01*
X157458885Y-105953567D01*
X157538111Y-106144836D01*
X157578500Y-106347884D01*
X157578500Y-106554916D01*
X157538111Y-106757964D01*
X157522329Y-106796065D01*
X157458884Y-106949235D01*
X157343865Y-107121373D01*
X157197473Y-107267765D01*
X157025335Y-107382784D01*
X157025334Y-107382785D01*
X157025333Y-107382785D01*
X156834064Y-107462011D01*
X156631016Y-107502400D01*
X156423984Y-107502400D01*
X156220936Y-107462011D01*
X156029667Y-107382785D01*
X156029666Y-107382785D01*
X156029665Y-107382784D01*
X155857527Y-107267765D01*
X155711135Y-107121373D01*
X155596116Y-106949235D01*
X155532671Y-106796065D01*
X155516889Y-106757964D01*
X155476500Y-106554916D01*
X155476500Y-106347884D01*
X155516889Y-106144836D01*
X155596115Y-105953567D01*
X155711135Y-105781427D01*
X155857527Y-105635035D01*
X156029665Y-105520016D01*
X156029667Y-105520015D01*
X156220936Y-105440789D01*
X156423984Y-105400400D01*
X156631016Y-105400400D01*
X156834064Y-105440789D01*
G37*
G36*
X153402664Y-105440789D02*
G01*
X153593933Y-105520015D01*
X153593935Y-105520016D01*
X153766073Y-105635035D01*
X153912465Y-105781427D01*
X154027485Y-105953567D01*
X154106711Y-106144836D01*
X154147100Y-106347884D01*
X154147100Y-106554916D01*
X154106711Y-106757964D01*
X154090929Y-106796065D01*
X154027484Y-106949235D01*
X153912465Y-107121373D01*
X153766073Y-107267765D01*
X153593935Y-107382784D01*
X153593934Y-107382785D01*
X153593933Y-107382785D01*
X153402664Y-107462011D01*
X153199616Y-107502400D01*
X152992584Y-107502400D01*
X152789536Y-107462011D01*
X152598267Y-107382785D01*
X152598266Y-107382785D01*
X152598265Y-107382784D01*
X152426127Y-107267765D01*
X152279735Y-107121373D01*
X152164716Y-106949235D01*
X152101271Y-106796065D01*
X152085489Y-106757964D01*
X152045100Y-106554916D01*
X152045100Y-106347884D01*
X152085489Y-106144836D01*
X152164715Y-105953567D01*
X152279735Y-105781427D01*
X152426127Y-105635035D01*
X152598265Y-105520016D01*
X152598267Y-105520015D01*
X152789536Y-105440789D01*
X152992584Y-105400400D01*
X153199616Y-105400400D01*
X153402664Y-105440789D01*
G37*
G36*
X154363538Y-103733616D02*
G01*
X154384157Y-103739871D01*
X154403153Y-103750024D01*
X154419808Y-103763692D01*
X154433476Y-103780347D01*
X154443629Y-103799343D01*
X154449884Y-103819962D01*
X154452600Y-103847540D01*
X154452600Y-104356260D01*
X154449884Y-104383838D01*
X154443629Y-104404457D01*
X154433476Y-104423453D01*
X154419808Y-104440108D01*
X154403153Y-104453776D01*
X154384157Y-104463929D01*
X154363538Y-104470184D01*
X154335960Y-104472900D01*
X153877240Y-104472900D01*
X153849662Y-104470184D01*
X153829043Y-104463929D01*
X153810047Y-104453776D01*
X153793392Y-104440108D01*
X153779724Y-104423453D01*
X153769571Y-104404457D01*
X153763316Y-104383838D01*
X153760600Y-104356260D01*
X153760600Y-103847540D01*
X153763316Y-103819962D01*
X153769571Y-103799343D01*
X153779724Y-103780347D01*
X153793392Y-103763692D01*
X153810047Y-103750024D01*
X153829043Y-103739871D01*
X153849662Y-103733616D01*
X153877240Y-103730900D01*
X154335960Y-103730900D01*
X154363538Y-103733616D01*
G37*
G36*
X164282238Y-103733616D02*
G01*
X164302857Y-103739871D01*
X164321853Y-103750024D01*
X164338508Y-103763692D01*
X164352176Y-103780347D01*
X164362329Y-103799343D01*
X164368584Y-103819962D01*
X164371300Y-103847540D01*
X164371300Y-104356260D01*
X164368584Y-104383838D01*
X164362329Y-104404457D01*
X164352176Y-104423453D01*
X164338508Y-104440108D01*
X164321853Y-104453776D01*
X164302857Y-104463929D01*
X164282238Y-104470184D01*
X164254660Y-104472900D01*
X163795940Y-104472900D01*
X163768362Y-104470184D01*
X163747743Y-104463929D01*
X163728747Y-104453776D01*
X163712092Y-104440108D01*
X163698424Y-104423453D01*
X163688271Y-104404457D01*
X163682016Y-104383838D01*
X163679300Y-104356260D01*
X163679300Y-103847540D01*
X163682016Y-103819962D01*
X163688271Y-103799343D01*
X163698424Y-103780347D01*
X163712092Y-103763692D01*
X163728747Y-103750024D01*
X163747743Y-103739871D01*
X163768362Y-103733616D01*
X163795940Y-103730900D01*
X164254660Y-103730900D01*
X164282238Y-103733616D01*
G37*
G36*
X163312238Y-103733616D02*
G01*
X163332857Y-103739871D01*
X163351853Y-103750024D01*
X163368508Y-103763692D01*
X163382176Y-103780347D01*
X163392329Y-103799343D01*
X163398584Y-103819962D01*
X163401300Y-103847540D01*
X163401300Y-104356260D01*
X163398584Y-104383838D01*
X163392329Y-104404457D01*
X163382176Y-104423453D01*
X163368508Y-104440108D01*
X163351853Y-104453776D01*
X163332857Y-104463929D01*
X163312238Y-104470184D01*
X163284660Y-104472900D01*
X162825940Y-104472900D01*
X162798362Y-104470184D01*
X162777743Y-104463929D01*
X162758747Y-104453776D01*
X162742092Y-104440108D01*
X162728424Y-104423453D01*
X162718271Y-104404457D01*
X162712016Y-104383838D01*
X162709300Y-104356260D01*
X162709300Y-103847540D01*
X162712016Y-103819962D01*
X162718271Y-103799343D01*
X162728424Y-103780347D01*
X162742092Y-103763692D01*
X162758747Y-103750024D01*
X162777743Y-103739871D01*
X162798362Y-103733616D01*
X162825940Y-103730900D01*
X163284660Y-103730900D01*
X163312238Y-103733616D01*
G37*
G36*
X153393538Y-103733616D02*
G01*
X153414157Y-103739871D01*
X153433153Y-103750024D01*
X153449808Y-103763692D01*
X153463476Y-103780347D01*
X153473629Y-103799343D01*
X153479884Y-103819962D01*
X153482600Y-103847540D01*
X153482600Y-104356260D01*
X153479884Y-104383838D01*
X153473629Y-104404457D01*
X153463476Y-104423453D01*
X153449808Y-104440108D01*
X153433153Y-104453776D01*
X153414157Y-104463929D01*
X153393538Y-104470184D01*
X153365960Y-104472900D01*
X152907240Y-104472900D01*
X152879662Y-104470184D01*
X152859043Y-104463929D01*
X152840047Y-104453776D01*
X152823392Y-104440108D01*
X152809724Y-104423453D01*
X152799571Y-104404457D01*
X152793316Y-104383838D01*
X152790600Y-104356260D01*
X152790600Y-103847540D01*
X152793316Y-103819962D01*
X152799571Y-103799343D01*
X152809724Y-103780347D01*
X152823392Y-103763692D01*
X152840047Y-103750024D01*
X152859043Y-103739871D01*
X152879662Y-103733616D01*
X152907240Y-103730900D01*
X153365960Y-103730900D01*
X153393538Y-103733616D01*
G37*
G36*
X143106538Y-103632016D02*
G01*
X143127157Y-103638271D01*
X143146153Y-103648424D01*
X143162808Y-103662092D01*
X143176476Y-103678747D01*
X143186629Y-103697743D01*
X143192884Y-103718362D01*
X143195600Y-103745940D01*
X143195600Y-104254660D01*
X143192884Y-104282238D01*
X143186629Y-104302857D01*
X143176476Y-104321853D01*
X143162808Y-104338508D01*
X143146153Y-104352176D01*
X143127157Y-104362329D01*
X143106538Y-104368584D01*
X143078960Y-104371300D01*
X142620240Y-104371300D01*
X142592662Y-104368584D01*
X142572043Y-104362329D01*
X142553047Y-104352176D01*
X142536392Y-104338508D01*
X142522724Y-104321853D01*
X142512571Y-104302857D01*
X142506316Y-104282238D01*
X142503600Y-104254660D01*
X142503600Y-103745940D01*
X142506316Y-103718362D01*
X142512571Y-103697743D01*
X142522724Y-103678747D01*
X142536392Y-103662092D01*
X142553047Y-103648424D01*
X142572043Y-103638271D01*
X142592662Y-103632016D01*
X142620240Y-103629300D01*
X143078960Y-103629300D01*
X143106538Y-103632016D01*
G37*
G36*
X144076538Y-103632016D02*
G01*
X144097157Y-103638271D01*
X144116153Y-103648424D01*
X144132808Y-103662092D01*
X144146476Y-103678747D01*
X144156629Y-103697743D01*
X144162884Y-103718362D01*
X144165600Y-103745940D01*
X144165600Y-104254660D01*
X144162884Y-104282238D01*
X144156629Y-104302857D01*
X144146476Y-104321853D01*
X144132808Y-104338508D01*
X144116153Y-104352176D01*
X144097157Y-104362329D01*
X144076538Y-104368584D01*
X144048960Y-104371300D01*
X143590240Y-104371300D01*
X143562662Y-104368584D01*
X143542043Y-104362329D01*
X143523047Y-104352176D01*
X143506392Y-104338508D01*
X143492724Y-104321853D01*
X143482571Y-104302857D01*
X143476316Y-104282238D01*
X143473600Y-104254660D01*
X143473600Y-103745940D01*
X143476316Y-103718362D01*
X143482571Y-103697743D01*
X143492724Y-103678747D01*
X143506392Y-103662092D01*
X143523047Y-103648424D01*
X143542043Y-103638271D01*
X143562662Y-103632016D01*
X143590240Y-103629300D01*
X144048960Y-103629300D01*
X144076538Y-103632016D01*
G37*
G36*
X170578678Y-103032697D02*
G01*
X170631450Y-103043194D01*
X170730870Y-103084375D01*
X170820346Y-103144161D01*
X170896439Y-103220254D01*
X170956225Y-103309730D01*
X170997406Y-103409150D01*
X170999312Y-103418731D01*
X171018400Y-103514693D01*
X171018400Y-103622307D01*
X171014389Y-103642469D01*
X170997406Y-103727850D01*
X170956225Y-103827270D01*
X170896439Y-103916746D01*
X170820346Y-103992839D01*
X170730870Y-104052625D01*
X170631450Y-104093806D01*
X170578678Y-104104303D01*
X170525907Y-104114800D01*
X170418293Y-104114800D01*
X170365522Y-104104303D01*
X170312750Y-104093806D01*
X170213330Y-104052625D01*
X170123854Y-103992839D01*
X170047761Y-103916746D01*
X169987975Y-103827270D01*
X169946794Y-103727850D01*
X169929811Y-103642469D01*
X169925800Y-103622307D01*
X169925800Y-103514693D01*
X169944888Y-103418731D01*
X169946794Y-103409150D01*
X169987975Y-103309730D01*
X170047761Y-103220254D01*
X170123854Y-103144161D01*
X170213330Y-103084375D01*
X170312750Y-103043194D01*
X170365522Y-103032697D01*
X170418293Y-103022200D01*
X170525907Y-103022200D01*
X170578678Y-103032697D01*
G37*
G36*
X133323791Y-102563985D02*
G01*
X133357769Y-102574293D01*
X133389090Y-102591034D01*
X133416539Y-102613561D01*
X133439066Y-102641010D01*
X133455807Y-102672331D01*
X133466115Y-102706309D01*
X133470200Y-102747790D01*
X133470200Y-103424010D01*
X133466115Y-103465491D01*
X133455807Y-103499469D01*
X133439066Y-103530790D01*
X133416539Y-103558239D01*
X133389090Y-103580766D01*
X133357769Y-103597507D01*
X133323791Y-103607815D01*
X133282310Y-103611900D01*
X132681090Y-103611900D01*
X132639609Y-103607815D01*
X132605631Y-103597507D01*
X132574310Y-103580766D01*
X132546861Y-103558239D01*
X132524334Y-103530790D01*
X132507593Y-103499469D01*
X132497285Y-103465491D01*
X132493200Y-103424010D01*
X132493200Y-102747790D01*
X132497285Y-102706309D01*
X132507593Y-102672331D01*
X132524334Y-102641010D01*
X132546861Y-102613561D01*
X132574310Y-102591034D01*
X132605631Y-102574293D01*
X132639609Y-102563985D01*
X132681090Y-102559900D01*
X133282310Y-102559900D01*
X133323791Y-102563985D01*
G37*
G36*
X131748791Y-102563985D02*
G01*
X131782769Y-102574293D01*
X131814090Y-102591034D01*
X131841539Y-102613561D01*
X131864066Y-102641010D01*
X131880807Y-102672331D01*
X131891115Y-102706309D01*
X131895200Y-102747790D01*
X131895200Y-103424010D01*
X131891115Y-103465491D01*
X131880807Y-103499469D01*
X131864066Y-103530790D01*
X131841539Y-103558239D01*
X131814090Y-103580766D01*
X131782769Y-103597507D01*
X131748791Y-103607815D01*
X131707310Y-103611900D01*
X131106090Y-103611900D01*
X131064609Y-103607815D01*
X131030631Y-103597507D01*
X130999310Y-103580766D01*
X130971861Y-103558239D01*
X130949334Y-103530790D01*
X130932593Y-103499469D01*
X130922285Y-103465491D01*
X130918200Y-103424010D01*
X130918200Y-102747790D01*
X130922285Y-102706309D01*
X130932593Y-102672331D01*
X130949334Y-102641010D01*
X130971861Y-102613561D01*
X130999310Y-102591034D01*
X131030631Y-102574293D01*
X131064609Y-102563985D01*
X131106090Y-102559900D01*
X131707310Y-102559900D01*
X131748791Y-102563985D01*
G37*
G36*
X130139438Y-102742616D02*
G01*
X130160057Y-102748871D01*
X130179053Y-102759024D01*
X130195708Y-102772692D01*
X130209376Y-102789347D01*
X130219529Y-102808343D01*
X130225784Y-102828962D01*
X130228500Y-102856540D01*
X130228500Y-103315260D01*
X130225784Y-103342838D01*
X130219529Y-103363457D01*
X130209376Y-103382453D01*
X130195708Y-103399108D01*
X130179053Y-103412776D01*
X130160057Y-103422929D01*
X130139438Y-103429184D01*
X130111860Y-103431900D01*
X129603140Y-103431900D01*
X129575562Y-103429184D01*
X129554943Y-103422929D01*
X129535947Y-103412776D01*
X129519292Y-103399108D01*
X129505624Y-103382453D01*
X129495471Y-103363457D01*
X129489216Y-103342838D01*
X129486500Y-103315260D01*
X129486500Y-102856540D01*
X129489216Y-102828962D01*
X129495471Y-102808343D01*
X129505624Y-102789347D01*
X129519292Y-102772692D01*
X129535947Y-102759024D01*
X129554943Y-102748871D01*
X129575562Y-102742616D01*
X129603140Y-102739900D01*
X130111860Y-102739900D01*
X130139438Y-102742616D01*
G37*
G36*
X169966814Y-101870889D02*
G01*
X170047745Y-101904412D01*
X170120580Y-101953079D01*
X170182521Y-102015020D01*
X170182522Y-102015022D01*
X170231189Y-102087857D01*
X170264711Y-102168786D01*
X170281800Y-102254699D01*
X170281800Y-102342301D01*
X170268089Y-102411229D01*
X170264711Y-102428214D01*
X170231188Y-102509145D01*
X170182521Y-102581980D01*
X170120580Y-102643921D01*
X170047745Y-102692588D01*
X170047744Y-102692589D01*
X170047743Y-102692589D01*
X169966814Y-102726111D01*
X169880901Y-102743200D01*
X169793299Y-102743200D01*
X169707386Y-102726111D01*
X169626457Y-102692589D01*
X169626456Y-102692589D01*
X169626455Y-102692588D01*
X169553620Y-102643921D01*
X169491679Y-102581980D01*
X169443012Y-102509145D01*
X169409489Y-102428214D01*
X169406111Y-102411229D01*
X169392400Y-102342301D01*
X169392400Y-102254699D01*
X169409489Y-102168786D01*
X169443011Y-102087857D01*
X169491678Y-102015022D01*
X169491679Y-102015020D01*
X169553620Y-101953079D01*
X169626455Y-101904412D01*
X169707386Y-101870889D01*
X169793299Y-101853800D01*
X169880901Y-101853800D01*
X169966814Y-101870889D01*
G37*
G36*
X171236814Y-101870889D02*
G01*
X171317745Y-101904412D01*
X171390580Y-101953079D01*
X171452521Y-102015020D01*
X171452522Y-102015022D01*
X171501189Y-102087857D01*
X171534711Y-102168786D01*
X171551800Y-102254699D01*
X171551800Y-102342301D01*
X171538089Y-102411229D01*
X171534711Y-102428214D01*
X171501188Y-102509145D01*
X171452521Y-102581980D01*
X171390580Y-102643921D01*
X171317745Y-102692588D01*
X171317744Y-102692589D01*
X171317743Y-102692589D01*
X171236814Y-102726111D01*
X171150901Y-102743200D01*
X171063299Y-102743200D01*
X170977386Y-102726111D01*
X170896457Y-102692589D01*
X170896456Y-102692589D01*
X170896455Y-102692588D01*
X170823620Y-102643921D01*
X170761679Y-102581980D01*
X170713012Y-102509145D01*
X170679489Y-102428214D01*
X170676111Y-102411229D01*
X170662400Y-102342301D01*
X170662400Y-102254699D01*
X170679489Y-102168786D01*
X170713011Y-102087857D01*
X170761678Y-102015022D01*
X170761679Y-102015020D01*
X170823620Y-101953079D01*
X170896455Y-101904412D01*
X170977386Y-101870889D01*
X171063299Y-101853800D01*
X171150901Y-101853800D01*
X171236814Y-101870889D01*
G37*
G36*
X130139438Y-101772616D02*
G01*
X130160057Y-101778871D01*
X130179053Y-101789024D01*
X130195708Y-101802692D01*
X130209376Y-101819347D01*
X130219529Y-101838343D01*
X130225784Y-101858962D01*
X130228500Y-101886540D01*
X130228500Y-102345260D01*
X130225784Y-102372838D01*
X130219529Y-102393457D01*
X130209376Y-102412453D01*
X130195708Y-102429108D01*
X130179053Y-102442776D01*
X130160057Y-102452929D01*
X130139438Y-102459184D01*
X130111860Y-102461900D01*
X129603140Y-102461900D01*
X129575562Y-102459184D01*
X129554943Y-102452929D01*
X129535947Y-102442776D01*
X129519292Y-102429108D01*
X129505624Y-102412453D01*
X129495471Y-102393457D01*
X129489216Y-102372838D01*
X129486500Y-102345260D01*
X129486500Y-101886540D01*
X129489216Y-101858962D01*
X129495471Y-101838343D01*
X129505624Y-101819347D01*
X129519292Y-101802692D01*
X129535947Y-101789024D01*
X129554943Y-101778871D01*
X129575562Y-101772616D01*
X129603140Y-101769900D01*
X130111860Y-101769900D01*
X130139438Y-101772616D01*
G37*
G36*
X171236814Y-100600889D02*
G01*
X171317745Y-100634412D01*
X171390580Y-100683079D01*
X171452521Y-100745020D01*
X171501188Y-100817855D01*
X171534711Y-100898786D01*
X171551800Y-100984701D01*
X171551800Y-101072299D01*
X171534711Y-101158214D01*
X171501188Y-101239145D01*
X171452521Y-101311980D01*
X171390580Y-101373921D01*
X171317745Y-101422588D01*
X171317744Y-101422589D01*
X171317743Y-101422589D01*
X171236814Y-101456111D01*
X171150901Y-101473200D01*
X171063299Y-101473200D01*
X170977386Y-101456111D01*
X170896457Y-101422589D01*
X170896456Y-101422589D01*
X170896455Y-101422588D01*
X170823620Y-101373921D01*
X170761679Y-101311980D01*
X170713012Y-101239145D01*
X170679489Y-101158214D01*
X170662400Y-101072299D01*
X170662400Y-100984701D01*
X170679489Y-100898786D01*
X170713012Y-100817855D01*
X170761679Y-100745020D01*
X170823620Y-100683079D01*
X170896455Y-100634412D01*
X170977386Y-100600889D01*
X171063299Y-100583800D01*
X171150901Y-100583800D01*
X171236814Y-100600889D01*
G37*
G36*
X169966814Y-100600889D02*
G01*
X170047745Y-100634412D01*
X170120580Y-100683079D01*
X170182521Y-100745020D01*
X170231188Y-100817855D01*
X170264711Y-100898786D01*
X170281800Y-100984701D01*
X170281800Y-101072299D01*
X170264711Y-101158214D01*
X170231188Y-101239145D01*
X170182521Y-101311980D01*
X170120580Y-101373921D01*
X170047745Y-101422588D01*
X170047744Y-101422589D01*
X170047743Y-101422589D01*
X169966814Y-101456111D01*
X169880901Y-101473200D01*
X169793299Y-101473200D01*
X169707386Y-101456111D01*
X169626457Y-101422589D01*
X169626456Y-101422589D01*
X169626455Y-101422588D01*
X169553620Y-101373921D01*
X169491679Y-101311980D01*
X169443012Y-101239145D01*
X169409489Y-101158214D01*
X169392400Y-101072299D01*
X169392400Y-100984701D01*
X169409489Y-100898786D01*
X169443012Y-100817855D01*
X169491679Y-100745020D01*
X169553620Y-100683079D01*
X169626455Y-100634412D01*
X169707386Y-100600889D01*
X169793299Y-100583800D01*
X169880901Y-100583800D01*
X169966814Y-100600889D01*
G37*
G36*
X133311291Y-99376285D02*
G01*
X133345269Y-99386593D01*
X133376590Y-99403334D01*
X133404039Y-99425861D01*
X133426566Y-99453310D01*
X133443307Y-99484631D01*
X133453615Y-99518609D01*
X133457700Y-99560090D01*
X133457700Y-100236310D01*
X133453615Y-100277791D01*
X133443307Y-100311769D01*
X133426566Y-100343090D01*
X133404039Y-100370539D01*
X133376590Y-100393066D01*
X133345269Y-100409807D01*
X133311291Y-100420115D01*
X133269810Y-100424200D01*
X132668590Y-100424200D01*
X132627109Y-100420115D01*
X132593131Y-100409807D01*
X132561810Y-100393066D01*
X132534361Y-100370539D01*
X132511834Y-100343090D01*
X132495093Y-100311769D01*
X132484785Y-100277791D01*
X132480700Y-100236310D01*
X132480700Y-99560090D01*
X132484785Y-99518609D01*
X132495093Y-99484631D01*
X132511834Y-99453310D01*
X132534361Y-99425861D01*
X132561810Y-99403334D01*
X132593131Y-99386593D01*
X132627109Y-99376285D01*
X132668590Y-99372200D01*
X133269810Y-99372200D01*
X133311291Y-99376285D01*
G37*
G36*
X131736291Y-99376285D02*
G01*
X131770269Y-99386593D01*
X131801590Y-99403334D01*
X131829039Y-99425861D01*
X131851566Y-99453310D01*
X131868307Y-99484631D01*
X131878615Y-99518609D01*
X131882700Y-99560090D01*
X131882700Y-100236310D01*
X131878615Y-100277791D01*
X131868307Y-100311769D01*
X131851566Y-100343090D01*
X131829039Y-100370539D01*
X131801590Y-100393066D01*
X131770269Y-100409807D01*
X131736291Y-100420115D01*
X131694810Y-100424200D01*
X131093590Y-100424200D01*
X131052109Y-100420115D01*
X131018131Y-100409807D01*
X130986810Y-100393066D01*
X130959361Y-100370539D01*
X130936834Y-100343090D01*
X130920093Y-100311769D01*
X130909785Y-100277791D01*
X130905700Y-100236310D01*
X130905700Y-99560090D01*
X130909785Y-99518609D01*
X130920093Y-99484631D01*
X130936834Y-99453310D01*
X130959361Y-99425861D01*
X130986810Y-99403334D01*
X131018131Y-99386593D01*
X131052109Y-99376285D01*
X131093590Y-99372200D01*
X131694810Y-99372200D01*
X131736291Y-99376285D01*
G37*
G36*
X130291838Y-99554916D02*
G01*
X130312457Y-99561171D01*
X130331453Y-99571324D01*
X130348108Y-99584992D01*
X130361776Y-99601647D01*
X130371929Y-99620643D01*
X130378184Y-99641262D01*
X130380900Y-99668840D01*
X130380900Y-100127560D01*
X130378184Y-100155138D01*
X130371929Y-100175757D01*
X130361776Y-100194753D01*
X130348108Y-100211408D01*
X130331453Y-100225076D01*
X130312457Y-100235229D01*
X130291838Y-100241484D01*
X130264260Y-100244200D01*
X129755540Y-100244200D01*
X129727962Y-100241484D01*
X129707343Y-100235229D01*
X129688347Y-100225076D01*
X129671692Y-100211408D01*
X129658024Y-100194753D01*
X129647871Y-100175757D01*
X129641616Y-100155138D01*
X129638900Y-100127560D01*
X129638900Y-99668840D01*
X129641616Y-99641262D01*
X129647871Y-99620643D01*
X129658024Y-99601647D01*
X129671692Y-99584992D01*
X129688347Y-99571324D01*
X129707343Y-99561171D01*
X129727962Y-99554916D01*
X129755540Y-99552200D01*
X130264260Y-99552200D01*
X130291838Y-99554916D01*
G37*
G36*
X169966814Y-99330889D02*
G01*
X170047745Y-99364412D01*
X170120580Y-99413079D01*
X170182521Y-99475020D01*
X170231188Y-99547855D01*
X170264711Y-99628786D01*
X170281800Y-99714701D01*
X170281800Y-99802299D01*
X170264711Y-99888214D01*
X170231188Y-99969145D01*
X170182521Y-100041980D01*
X170120580Y-100103921D01*
X170047745Y-100152588D01*
X170047744Y-100152589D01*
X170047743Y-100152589D01*
X169966814Y-100186111D01*
X169880901Y-100203200D01*
X169793299Y-100203200D01*
X169707386Y-100186111D01*
X169626457Y-100152589D01*
X169626456Y-100152589D01*
X169626455Y-100152588D01*
X169553620Y-100103921D01*
X169491679Y-100041980D01*
X169443012Y-99969145D01*
X169409489Y-99888214D01*
X169392400Y-99802299D01*
X169392400Y-99714701D01*
X169409489Y-99628786D01*
X169443012Y-99547855D01*
X169491679Y-99475020D01*
X169553620Y-99413079D01*
X169626455Y-99364412D01*
X169707386Y-99330889D01*
X169793299Y-99313800D01*
X169880901Y-99313800D01*
X169966814Y-99330889D01*
G37*
G36*
X171236814Y-99330889D02*
G01*
X171317745Y-99364412D01*
X171390580Y-99413079D01*
X171452521Y-99475020D01*
X171501188Y-99547855D01*
X171534711Y-99628786D01*
X171551800Y-99714701D01*
X171551800Y-99802299D01*
X171534711Y-99888214D01*
X171501188Y-99969145D01*
X171452521Y-100041980D01*
X171390580Y-100103921D01*
X171317745Y-100152588D01*
X171317744Y-100152589D01*
X171317743Y-100152589D01*
X171236814Y-100186111D01*
X171150901Y-100203200D01*
X171063299Y-100203200D01*
X170977386Y-100186111D01*
X170896457Y-100152589D01*
X170896456Y-100152589D01*
X170896455Y-100152588D01*
X170823620Y-100103921D01*
X170761679Y-100041980D01*
X170713012Y-99969145D01*
X170679489Y-99888214D01*
X170662400Y-99802299D01*
X170662400Y-99714701D01*
X170679489Y-99628786D01*
X170713012Y-99547855D01*
X170761679Y-99475020D01*
X170823620Y-99413079D01*
X170896455Y-99364412D01*
X170977386Y-99330889D01*
X171063299Y-99313800D01*
X171150901Y-99313800D01*
X171236814Y-99330889D01*
G37*
G36*
X130291838Y-98584916D02*
G01*
X130312457Y-98591171D01*
X130331453Y-98601324D01*
X130348108Y-98614992D01*
X130361776Y-98631647D01*
X130371929Y-98650643D01*
X130378184Y-98671262D01*
X130380900Y-98698840D01*
X130380900Y-99157560D01*
X130378184Y-99185138D01*
X130371929Y-99205757D01*
X130361776Y-99224753D01*
X130348108Y-99241408D01*
X130331453Y-99255076D01*
X130312457Y-99265229D01*
X130291838Y-99271484D01*
X130264260Y-99274200D01*
X129755540Y-99274200D01*
X129727962Y-99271484D01*
X129707343Y-99265229D01*
X129688347Y-99255076D01*
X129671692Y-99241408D01*
X129658024Y-99224753D01*
X129647871Y-99205757D01*
X129641616Y-99185138D01*
X129638900Y-99157560D01*
X129638900Y-98698840D01*
X129641616Y-98671262D01*
X129647871Y-98650643D01*
X129658024Y-98631647D01*
X129671692Y-98614992D01*
X129688347Y-98601324D01*
X129707343Y-98591171D01*
X129727962Y-98584916D01*
X129755540Y-98582200D01*
X130264260Y-98582200D01*
X130291838Y-98584916D01*
G37*
G36*
X171594678Y-97952697D02*
G01*
X171647450Y-97963194D01*
X171746870Y-98004375D01*
X171836346Y-98064161D01*
X171912439Y-98140254D01*
X171972225Y-98229730D01*
X172013406Y-98329150D01*
X172034400Y-98434694D01*
X172034400Y-98542306D01*
X172013406Y-98647850D01*
X171972225Y-98747270D01*
X171912439Y-98836746D01*
X171836346Y-98912839D01*
X171746870Y-98972625D01*
X171647450Y-99013806D01*
X171594678Y-99024303D01*
X171541907Y-99034800D01*
X171434293Y-99034800D01*
X171381522Y-99024303D01*
X171328750Y-99013806D01*
X171229330Y-98972625D01*
X171139854Y-98912839D01*
X171063761Y-98836746D01*
X171003975Y-98747270D01*
X170962794Y-98647850D01*
X170941800Y-98542306D01*
X170941800Y-98434694D01*
X170962794Y-98329150D01*
X171003975Y-98229730D01*
X171063761Y-98140254D01*
X171139854Y-98064161D01*
X171229330Y-98004375D01*
X171328750Y-97963194D01*
X171381522Y-97952697D01*
X171434293Y-97942200D01*
X171541907Y-97942200D01*
X171594678Y-97952697D01*
G37*
G36*
X169562678Y-97952697D02*
G01*
X169615450Y-97963194D01*
X169714870Y-98004375D01*
X169804346Y-98064161D01*
X169880439Y-98140254D01*
X169940225Y-98229730D01*
X169981406Y-98329150D01*
X170002400Y-98434694D01*
X170002400Y-98542306D01*
X169981406Y-98647850D01*
X169940225Y-98747270D01*
X169880439Y-98836746D01*
X169804346Y-98912839D01*
X169714870Y-98972625D01*
X169615450Y-99013806D01*
X169562678Y-99024303D01*
X169509907Y-99034800D01*
X169402293Y-99034800D01*
X169349522Y-99024303D01*
X169296750Y-99013806D01*
X169197330Y-98972625D01*
X169107854Y-98912839D01*
X169031761Y-98836746D01*
X168971975Y-98747270D01*
X168930794Y-98647850D01*
X168909800Y-98542306D01*
X168909800Y-98434694D01*
X168930794Y-98329150D01*
X168971975Y-98229730D01*
X169031761Y-98140254D01*
X169107854Y-98064161D01*
X169197330Y-98004375D01*
X169296750Y-97963194D01*
X169349522Y-97952697D01*
X169402293Y-97942200D01*
X169509907Y-97942200D01*
X169562678Y-97952697D01*
G37*
G36*
X133349191Y-96302885D02*
G01*
X133383169Y-96313193D01*
X133414490Y-96329934D01*
X133441939Y-96352461D01*
X133464466Y-96379910D01*
X133481207Y-96411231D01*
X133491515Y-96445209D01*
X133495600Y-96486690D01*
X133495600Y-97162910D01*
X133491515Y-97204391D01*
X133481207Y-97238369D01*
X133464466Y-97269690D01*
X133441939Y-97297139D01*
X133414490Y-97319666D01*
X133383169Y-97336407D01*
X133349191Y-97346715D01*
X133307710Y-97350800D01*
X132706490Y-97350800D01*
X132665009Y-97346715D01*
X132631031Y-97336407D01*
X132599710Y-97319666D01*
X132572261Y-97297139D01*
X132549734Y-97269690D01*
X132532993Y-97238369D01*
X132522685Y-97204391D01*
X132518600Y-97162910D01*
X132518600Y-96486690D01*
X132522685Y-96445209D01*
X132532993Y-96411231D01*
X132549734Y-96379910D01*
X132572261Y-96352461D01*
X132599710Y-96329934D01*
X132631031Y-96313193D01*
X132665009Y-96302885D01*
X132706490Y-96298800D01*
X133307710Y-96298800D01*
X133349191Y-96302885D01*
G37*
G36*
X131774191Y-96302885D02*
G01*
X131808169Y-96313193D01*
X131839490Y-96329934D01*
X131866939Y-96352461D01*
X131889466Y-96379910D01*
X131906207Y-96411231D01*
X131916515Y-96445209D01*
X131920600Y-96486690D01*
X131920600Y-97162910D01*
X131916515Y-97204391D01*
X131906207Y-97238369D01*
X131889466Y-97269690D01*
X131866939Y-97297139D01*
X131839490Y-97319666D01*
X131808169Y-97336407D01*
X131774191Y-97346715D01*
X131732710Y-97350800D01*
X131131490Y-97350800D01*
X131090009Y-97346715D01*
X131056031Y-97336407D01*
X131024710Y-97319666D01*
X130997261Y-97297139D01*
X130974734Y-97269690D01*
X130957993Y-97238369D01*
X130947685Y-97204391D01*
X130943600Y-97162910D01*
X130943600Y-96486690D01*
X130947685Y-96445209D01*
X130957993Y-96411231D01*
X130974734Y-96379910D01*
X130997261Y-96352461D01*
X131024710Y-96329934D01*
X131056031Y-96313193D01*
X131090009Y-96302885D01*
X131131490Y-96298800D01*
X131732710Y-96298800D01*
X131774191Y-96302885D01*
G37*
G36*
X130202938Y-96456116D02*
G01*
X130223557Y-96462371D01*
X130242553Y-96472524D01*
X130259208Y-96486192D01*
X130272876Y-96502847D01*
X130283029Y-96521843D01*
X130289284Y-96542462D01*
X130292000Y-96570040D01*
X130292000Y-97028760D01*
X130289284Y-97056338D01*
X130283029Y-97076957D01*
X130272876Y-97095953D01*
X130259208Y-97112608D01*
X130242553Y-97126276D01*
X130223557Y-97136429D01*
X130202938Y-97142684D01*
X130175360Y-97145400D01*
X129666640Y-97145400D01*
X129639062Y-97142684D01*
X129618443Y-97136429D01*
X129599447Y-97126276D01*
X129582792Y-97112608D01*
X129569124Y-97095953D01*
X129558971Y-97076957D01*
X129552716Y-97056338D01*
X129550000Y-97028760D01*
X129550000Y-96570040D01*
X129552716Y-96542462D01*
X129558971Y-96521843D01*
X129569124Y-96502847D01*
X129582792Y-96486192D01*
X129599447Y-96472524D01*
X129618443Y-96462371D01*
X129639062Y-96456116D01*
X129666640Y-96453400D01*
X130175360Y-96453400D01*
X130202938Y-96456116D01*
G37*
G36*
X145463616Y-89982943D02*
G01*
X145467756Y-89984199D01*
X145486916Y-89992135D01*
X145510950Y-89996915D01*
X145535454Y-89996915D01*
X145559487Y-89992134D01*
X145578645Y-89984199D01*
X145582784Y-89982943D01*
X145591343Y-89982100D01*
X145855057Y-89982100D01*
X145863616Y-89982943D01*
X145867756Y-89984199D01*
X145886916Y-89992135D01*
X145910950Y-89996915D01*
X145935454Y-89996915D01*
X145959487Y-89992134D01*
X145978645Y-89984199D01*
X145982784Y-89982943D01*
X145991343Y-89982100D01*
X146255057Y-89982100D01*
X146263616Y-89982943D01*
X146267756Y-89984199D01*
X146286916Y-89992135D01*
X146310950Y-89996915D01*
X146335454Y-89996915D01*
X146359487Y-89992134D01*
X146378645Y-89984199D01*
X146382784Y-89982943D01*
X146391343Y-89982100D01*
X146655057Y-89982100D01*
X146663616Y-89982943D01*
X146667756Y-89984199D01*
X146686916Y-89992135D01*
X146710950Y-89996915D01*
X146735454Y-89996915D01*
X146759487Y-89992134D01*
X146778645Y-89984199D01*
X146782784Y-89982943D01*
X146791343Y-89982100D01*
X147055057Y-89982100D01*
X147063616Y-89982943D01*
X147067756Y-89984199D01*
X147086916Y-89992135D01*
X147110950Y-89996915D01*
X147135454Y-89996915D01*
X147159487Y-89992134D01*
X147178645Y-89984199D01*
X147182784Y-89982943D01*
X147191343Y-89982100D01*
X147455057Y-89982100D01*
X147463616Y-89982943D01*
X147467756Y-89984199D01*
X147486916Y-89992135D01*
X147510950Y-89996915D01*
X147535454Y-89996915D01*
X147559487Y-89992134D01*
X147578645Y-89984199D01*
X147582784Y-89982943D01*
X147591343Y-89982100D01*
X147855057Y-89982100D01*
X147863616Y-89982943D01*
X147867756Y-89984199D01*
X147886916Y-89992135D01*
X147910950Y-89996915D01*
X147935454Y-89996915D01*
X147959487Y-89992134D01*
X147978645Y-89984199D01*
X147982784Y-89982943D01*
X147991343Y-89982100D01*
X148255057Y-89982100D01*
X148263616Y-89982943D01*
X148267756Y-89984199D01*
X148286916Y-89992135D01*
X148310950Y-89996915D01*
X148335454Y-89996915D01*
X148359487Y-89992134D01*
X148378645Y-89984199D01*
X148382784Y-89982943D01*
X148391343Y-89982100D01*
X148655057Y-89982100D01*
X148663616Y-89982943D01*
X148667756Y-89984199D01*
X148686916Y-89992135D01*
X148710950Y-89996915D01*
X148735454Y-89996915D01*
X148759487Y-89992134D01*
X148778645Y-89984199D01*
X148782784Y-89982943D01*
X148791343Y-89982100D01*
X149055057Y-89982100D01*
X149063616Y-89982943D01*
X149067756Y-89984199D01*
X149086916Y-89992135D01*
X149110950Y-89996915D01*
X149135454Y-89996915D01*
X149159487Y-89992134D01*
X149178645Y-89984199D01*
X149182784Y-89982943D01*
X149191343Y-89982100D01*
X149455057Y-89982100D01*
X149463616Y-89982943D01*
X149467756Y-89984199D01*
X149486916Y-89992135D01*
X149510950Y-89996915D01*
X149535454Y-89996915D01*
X149559487Y-89992134D01*
X149578645Y-89984199D01*
X149582784Y-89982943D01*
X149591343Y-89982100D01*
X149855057Y-89982100D01*
X149863616Y-89982943D01*
X149865945Y-89983650D01*
X149868087Y-89984795D01*
X149869965Y-89986335D01*
X149871505Y-89988213D01*
X149872650Y-89990355D01*
X149873357Y-89992684D01*
X149874200Y-90001243D01*
X149874200Y-90864957D01*
X149873357Y-90873516D01*
X149871822Y-90878576D01*
X149867042Y-90902609D01*
X149867042Y-90927113D01*
X149871823Y-90951147D01*
X149881200Y-90973785D01*
X149894814Y-90994160D01*
X149912141Y-91011487D01*
X149932515Y-91025100D01*
X149955154Y-91034478D01*
X149979187Y-91039258D01*
X150003691Y-91039258D01*
X150027724Y-91034478D01*
X150032784Y-91032943D01*
X150041343Y-91032100D01*
X150905057Y-91032100D01*
X150913616Y-91032943D01*
X150915945Y-91033650D01*
X150918087Y-91034795D01*
X150919965Y-91036335D01*
X150921505Y-91038213D01*
X150922650Y-91040355D01*
X150923357Y-91042684D01*
X150924200Y-91051243D01*
X150924200Y-91314957D01*
X150923357Y-91323516D01*
X150922101Y-91327656D01*
X150914165Y-91346816D01*
X150909385Y-91370850D01*
X150909385Y-91395354D01*
X150914166Y-91419387D01*
X150922101Y-91438545D01*
X150923357Y-91442684D01*
X150924200Y-91451243D01*
X150924200Y-91714957D01*
X150923357Y-91723516D01*
X150922101Y-91727656D01*
X150914165Y-91746816D01*
X150909385Y-91770850D01*
X150909385Y-91795354D01*
X150914166Y-91819387D01*
X150922101Y-91838545D01*
X150923357Y-91842684D01*
X150924200Y-91851243D01*
X150924200Y-92114957D01*
X150923357Y-92123516D01*
X150922101Y-92127656D01*
X150914165Y-92146816D01*
X150909385Y-92170850D01*
X150909385Y-92195354D01*
X150914166Y-92219387D01*
X150922101Y-92238545D01*
X150923357Y-92242684D01*
X150924200Y-92251243D01*
X150924200Y-92514957D01*
X150923357Y-92523516D01*
X150922101Y-92527656D01*
X150914165Y-92546816D01*
X150909385Y-92570850D01*
X150909385Y-92595354D01*
X150914166Y-92619387D01*
X150922101Y-92638545D01*
X150923357Y-92642684D01*
X150924200Y-92651243D01*
X150924200Y-92914957D01*
X150923357Y-92923516D01*
X150922101Y-92927656D01*
X150914165Y-92946816D01*
X150909385Y-92970850D01*
X150909385Y-92995354D01*
X150914166Y-93019387D01*
X150922101Y-93038545D01*
X150923357Y-93042684D01*
X150924200Y-93051243D01*
X150924200Y-93314957D01*
X150923357Y-93323516D01*
X150922101Y-93327656D01*
X150914165Y-93346816D01*
X150909385Y-93370850D01*
X150909385Y-93395354D01*
X150914166Y-93419387D01*
X150922101Y-93438545D01*
X150923357Y-93442684D01*
X150924200Y-93451243D01*
X150924200Y-93714957D01*
X150923357Y-93723516D01*
X150922101Y-93727656D01*
X150914165Y-93746816D01*
X150909385Y-93770850D01*
X150909385Y-93795354D01*
X150914166Y-93819387D01*
X150922101Y-93838545D01*
X150923357Y-93842684D01*
X150924200Y-93851243D01*
X150924200Y-94114957D01*
X150923357Y-94123516D01*
X150922101Y-94127656D01*
X150914165Y-94146816D01*
X150909385Y-94170850D01*
X150909385Y-94195354D01*
X150914166Y-94219387D01*
X150922101Y-94238545D01*
X150923357Y-94242684D01*
X150924200Y-94251243D01*
X150924200Y-94514957D01*
X150923357Y-94523516D01*
X150922101Y-94527656D01*
X150914165Y-94546816D01*
X150909385Y-94570850D01*
X150909385Y-94595354D01*
X150914166Y-94619387D01*
X150922101Y-94638545D01*
X150923357Y-94642684D01*
X150924200Y-94651243D01*
X150924200Y-94914957D01*
X150923357Y-94923516D01*
X150922101Y-94927656D01*
X150914165Y-94946816D01*
X150909385Y-94970850D01*
X150909385Y-94995354D01*
X150914166Y-95019387D01*
X150922101Y-95038545D01*
X150923357Y-95042684D01*
X150924200Y-95051243D01*
X150924200Y-95314957D01*
X150923357Y-95323516D01*
X150922101Y-95327656D01*
X150914165Y-95346816D01*
X150909385Y-95370850D01*
X150909385Y-95395354D01*
X150914166Y-95419387D01*
X150922101Y-95438545D01*
X150923357Y-95442684D01*
X150924200Y-95451243D01*
X150924200Y-95714957D01*
X150923357Y-95723516D01*
X150922650Y-95725845D01*
X150921505Y-95727987D01*
X150919965Y-95729865D01*
X150918087Y-95731405D01*
X150915945Y-95732550D01*
X150913616Y-95733257D01*
X150905057Y-95734100D01*
X150041343Y-95734100D01*
X150032784Y-95733257D01*
X150027724Y-95731722D01*
X150003691Y-95726942D01*
X149979187Y-95726942D01*
X149955153Y-95731723D01*
X149932515Y-95741100D01*
X149912140Y-95754714D01*
X149894813Y-95772041D01*
X149881200Y-95792415D01*
X149871822Y-95815054D01*
X149867042Y-95839087D01*
X149867042Y-95863591D01*
X149871822Y-95887624D01*
X149873357Y-95892684D01*
X149874200Y-95901243D01*
X149874200Y-96764957D01*
X149873357Y-96773516D01*
X149872650Y-96775845D01*
X149871505Y-96777987D01*
X149869965Y-96779865D01*
X149868087Y-96781405D01*
X149865945Y-96782550D01*
X149863616Y-96783257D01*
X149855057Y-96784100D01*
X149591343Y-96784100D01*
X149582784Y-96783257D01*
X149578644Y-96782001D01*
X149559484Y-96774065D01*
X149535450Y-96769285D01*
X149510946Y-96769285D01*
X149486913Y-96774066D01*
X149467755Y-96782001D01*
X149463616Y-96783257D01*
X149455057Y-96784100D01*
X149191343Y-96784100D01*
X149182784Y-96783257D01*
X149178644Y-96782001D01*
X149159484Y-96774065D01*
X149135450Y-96769285D01*
X149110946Y-96769285D01*
X149086913Y-96774066D01*
X149067755Y-96782001D01*
X149063616Y-96783257D01*
X149055057Y-96784100D01*
X148791343Y-96784100D01*
X148782784Y-96783257D01*
X148778644Y-96782001D01*
X148759484Y-96774065D01*
X148735450Y-96769285D01*
X148710946Y-96769285D01*
X148686913Y-96774066D01*
X148667755Y-96782001D01*
X148663616Y-96783257D01*
X148655057Y-96784100D01*
X148391343Y-96784100D01*
X148382784Y-96783257D01*
X148378644Y-96782001D01*
X148359484Y-96774065D01*
X148335450Y-96769285D01*
X148310946Y-96769285D01*
X148286913Y-96774066D01*
X148267755Y-96782001D01*
X148263616Y-96783257D01*
X148255057Y-96784100D01*
X147991343Y-96784100D01*
X147982784Y-96783257D01*
X147978644Y-96782001D01*
X147959484Y-96774065D01*
X147935450Y-96769285D01*
X147910946Y-96769285D01*
X147886913Y-96774066D01*
X147867755Y-96782001D01*
X147863616Y-96783257D01*
X147855057Y-96784100D01*
X147591343Y-96784100D01*
X147582784Y-96783257D01*
X147578644Y-96782001D01*
X147559484Y-96774065D01*
X147535450Y-96769285D01*
X147510946Y-96769285D01*
X147486913Y-96774066D01*
X147467755Y-96782001D01*
X147463616Y-96783257D01*
X147455057Y-96784100D01*
X147191343Y-96784100D01*
X147182784Y-96783257D01*
X147178644Y-96782001D01*
X147159484Y-96774065D01*
X147135450Y-96769285D01*
X147110946Y-96769285D01*
X147086913Y-96774066D01*
X147067755Y-96782001D01*
X147063616Y-96783257D01*
X147055057Y-96784100D01*
X146791343Y-96784100D01*
X146782784Y-96783257D01*
X146778644Y-96782001D01*
X146759484Y-96774065D01*
X146735450Y-96769285D01*
X146710946Y-96769285D01*
X146686913Y-96774066D01*
X146667755Y-96782001D01*
X146663616Y-96783257D01*
X146655057Y-96784100D01*
X146391343Y-96784100D01*
X146382784Y-96783257D01*
X146378644Y-96782001D01*
X146359484Y-96774065D01*
X146335450Y-96769285D01*
X146310946Y-96769285D01*
X146286913Y-96774066D01*
X146267755Y-96782001D01*
X146263616Y-96783257D01*
X146255057Y-96784100D01*
X145991343Y-96784100D01*
X145982784Y-96783257D01*
X145978644Y-96782001D01*
X145959484Y-96774065D01*
X145935450Y-96769285D01*
X145910946Y-96769285D01*
X145886913Y-96774066D01*
X145867755Y-96782001D01*
X145863616Y-96783257D01*
X145855057Y-96784100D01*
X145591343Y-96784100D01*
X145582784Y-96783257D01*
X145578644Y-96782001D01*
X145559484Y-96774065D01*
X145535450Y-96769285D01*
X145510946Y-96769285D01*
X145486913Y-96774066D01*
X145467755Y-96782001D01*
X145463616Y-96783257D01*
X145455057Y-96784100D01*
X145191343Y-96784100D01*
X145182784Y-96783257D01*
X145180455Y-96782550D01*
X145178313Y-96781405D01*
X145176435Y-96779865D01*
X145174895Y-96777987D01*
X145173750Y-96775845D01*
X145173043Y-96773516D01*
X145172200Y-96764957D01*
X145172200Y-95901243D01*
X145173043Y-95892684D01*
X145174578Y-95887624D01*
X145179358Y-95863591D01*
X145179358Y-95839087D01*
X145174577Y-95815053D01*
X145165200Y-95792415D01*
X145151586Y-95772040D01*
X145134259Y-95754713D01*
X145113885Y-95741100D01*
X145091246Y-95731722D01*
X145067213Y-95726942D01*
X145042709Y-95726942D01*
X145018676Y-95731722D01*
X145013616Y-95733257D01*
X145005057Y-95734100D01*
X144141343Y-95734100D01*
X144132784Y-95733257D01*
X144130455Y-95732550D01*
X144128313Y-95731405D01*
X144126435Y-95729865D01*
X144124895Y-95727987D01*
X144123750Y-95725845D01*
X144123043Y-95723516D01*
X144122200Y-95714957D01*
X144122200Y-95451243D01*
X144123043Y-95442684D01*
X144124299Y-95438544D01*
X144132235Y-95419384D01*
X144137015Y-95395350D01*
X144137015Y-95370846D01*
X144132234Y-95346813D01*
X144124299Y-95327655D01*
X144123043Y-95323516D01*
X144122200Y-95314957D01*
X144122200Y-95051243D01*
X144123043Y-95042684D01*
X144124299Y-95038544D01*
X144132235Y-95019384D01*
X144137015Y-94995350D01*
X144137015Y-94970846D01*
X144132234Y-94946813D01*
X144124299Y-94927655D01*
X144123043Y-94923516D01*
X144122200Y-94914957D01*
X144122200Y-94651243D01*
X144123043Y-94642684D01*
X144124299Y-94638544D01*
X144132235Y-94619384D01*
X144137015Y-94595350D01*
X144137015Y-94570846D01*
X144132234Y-94546813D01*
X144124299Y-94527655D01*
X144123043Y-94523516D01*
X144122200Y-94514957D01*
X144122200Y-94251243D01*
X144123043Y-94242684D01*
X144124299Y-94238544D01*
X144132235Y-94219384D01*
X144137015Y-94195350D01*
X144137015Y-94170846D01*
X144132234Y-94146813D01*
X144124299Y-94127655D01*
X144123043Y-94123516D01*
X144122200Y-94114957D01*
X144122200Y-93851243D01*
X144123043Y-93842684D01*
X144124299Y-93838544D01*
X144132235Y-93819384D01*
X144137015Y-93795350D01*
X144137015Y-93770846D01*
X144132234Y-93746813D01*
X144124299Y-93727655D01*
X144123043Y-93723516D01*
X144122200Y-93714957D01*
X144122200Y-93451243D01*
X144123043Y-93442684D01*
X144124299Y-93438544D01*
X144132235Y-93419384D01*
X144137015Y-93395350D01*
X144137015Y-93370846D01*
X144132234Y-93346813D01*
X144124299Y-93327655D01*
X144123043Y-93323516D01*
X144122200Y-93314957D01*
X144122200Y-93051243D01*
X144123043Y-93042684D01*
X144124299Y-93038544D01*
X144132235Y-93019384D01*
X144137015Y-92995350D01*
X144137015Y-92970846D01*
X144132234Y-92946813D01*
X144124299Y-92927655D01*
X144123043Y-92923516D01*
X144122200Y-92914957D01*
X144122200Y-92651243D01*
X144123043Y-92642684D01*
X144124299Y-92638544D01*
X144132235Y-92619384D01*
X144137015Y-92595350D01*
X144137015Y-92570846D01*
X144132234Y-92546813D01*
X144124299Y-92527655D01*
X144123043Y-92523516D01*
X144122200Y-92514957D01*
X144122200Y-92251243D01*
X144123043Y-92242684D01*
X144124299Y-92238544D01*
X144132235Y-92219384D01*
X144137015Y-92195350D01*
X144137015Y-92170846D01*
X144132234Y-92146813D01*
X144124299Y-92127655D01*
X144123043Y-92123516D01*
X144122200Y-92114957D01*
X144122200Y-91851243D01*
X144123043Y-91842684D01*
X144124299Y-91838544D01*
X144132235Y-91819384D01*
X144137015Y-91795350D01*
X144137015Y-91770846D01*
X144132234Y-91746813D01*
X144124299Y-91727655D01*
X144123043Y-91723516D01*
X144122200Y-91714957D01*
X144122200Y-91451243D01*
X144123043Y-91442684D01*
X144124299Y-91438544D01*
X144132235Y-91419384D01*
X144137015Y-91395350D01*
X144137015Y-91370846D01*
X144132234Y-91346813D01*
X144124299Y-91327655D01*
X144123043Y-91323516D01*
X144122200Y-91314957D01*
X144122200Y-91051243D01*
X144123043Y-91042684D01*
X144123750Y-91040355D01*
X144124895Y-91038213D01*
X144126435Y-91036335D01*
X144128313Y-91034795D01*
X144130455Y-91033650D01*
X144132784Y-91032943D01*
X144141343Y-91032100D01*
X145005057Y-91032100D01*
X145013616Y-91032943D01*
X145018676Y-91034478D01*
X145042709Y-91039258D01*
X145067213Y-91039258D01*
X145091247Y-91034477D01*
X145113885Y-91025100D01*
X145134260Y-91011486D01*
X145151587Y-90994159D01*
X145165200Y-90973785D01*
X145174578Y-90951146D01*
X145179358Y-90927113D01*
X145179358Y-90902609D01*
X145174578Y-90878576D01*
X145173043Y-90873516D01*
X145172200Y-90864957D01*
X145172200Y-90001243D01*
X145173043Y-89992684D01*
X145173750Y-89990355D01*
X145174895Y-89988213D01*
X145176435Y-89986335D01*
X145178313Y-89984795D01*
X145180455Y-89983650D01*
X145182784Y-89982943D01*
X145191343Y-89982100D01*
X145455057Y-89982100D01*
X145463616Y-89982943D01*
G37*
G36*
X143106538Y-95961216D02*
G01*
X143127157Y-95967471D01*
X143146153Y-95977624D01*
X143162808Y-95991292D01*
X143176476Y-96007947D01*
X143186629Y-96026943D01*
X143192884Y-96047562D01*
X143195600Y-96075140D01*
X143195600Y-96583860D01*
X143192884Y-96611438D01*
X143186629Y-96632057D01*
X143176476Y-96651053D01*
X143162808Y-96667708D01*
X143146153Y-96681376D01*
X143127157Y-96691529D01*
X143106538Y-96697784D01*
X143078960Y-96700500D01*
X142620240Y-96700500D01*
X142592662Y-96697784D01*
X142572043Y-96691529D01*
X142553047Y-96681376D01*
X142536392Y-96667708D01*
X142522724Y-96651053D01*
X142512571Y-96632057D01*
X142506316Y-96611438D01*
X142503600Y-96583860D01*
X142503600Y-96075140D01*
X142506316Y-96047562D01*
X142512571Y-96026943D01*
X142522724Y-96007947D01*
X142536392Y-95991292D01*
X142553047Y-95977624D01*
X142572043Y-95967471D01*
X142592662Y-95961216D01*
X142620240Y-95958500D01*
X143078960Y-95958500D01*
X143106538Y-95961216D01*
G37*
G36*
X142136538Y-95961216D02*
G01*
X142157157Y-95967471D01*
X142176153Y-95977624D01*
X142192808Y-95991292D01*
X142206476Y-96007947D01*
X142216629Y-96026943D01*
X142222884Y-96047562D01*
X142225600Y-96075140D01*
X142225600Y-96583860D01*
X142222884Y-96611438D01*
X142216629Y-96632057D01*
X142206476Y-96651053D01*
X142192808Y-96667708D01*
X142176153Y-96681376D01*
X142157157Y-96691529D01*
X142136538Y-96697784D01*
X142108960Y-96700500D01*
X141650240Y-96700500D01*
X141622662Y-96697784D01*
X141602043Y-96691529D01*
X141583047Y-96681376D01*
X141566392Y-96667708D01*
X141552724Y-96651053D01*
X141542571Y-96632057D01*
X141536316Y-96611438D01*
X141533600Y-96583860D01*
X141533600Y-96075140D01*
X141536316Y-96047562D01*
X141542571Y-96026943D01*
X141552724Y-96007947D01*
X141566392Y-95991292D01*
X141583047Y-95977624D01*
X141602043Y-95967471D01*
X141622662Y-95961216D01*
X141650240Y-95958500D01*
X142108960Y-95958500D01*
X142136538Y-95961216D01*
G37*
G36*
X130202938Y-95486116D02*
G01*
X130223557Y-95492371D01*
X130242553Y-95502524D01*
X130259208Y-95516192D01*
X130272876Y-95532847D01*
X130283029Y-95551843D01*
X130289284Y-95572462D01*
X130292000Y-95600040D01*
X130292000Y-96058760D01*
X130289284Y-96086338D01*
X130283029Y-96106957D01*
X130272876Y-96125953D01*
X130259208Y-96142608D01*
X130242553Y-96156276D01*
X130223557Y-96166429D01*
X130202938Y-96172684D01*
X130175360Y-96175400D01*
X129666640Y-96175400D01*
X129639062Y-96172684D01*
X129618443Y-96166429D01*
X129599447Y-96156276D01*
X129582792Y-96142608D01*
X129569124Y-96125953D01*
X129558971Y-96106957D01*
X129552716Y-96086338D01*
X129550000Y-96058760D01*
X129550000Y-95600040D01*
X129552716Y-95572462D01*
X129558971Y-95551843D01*
X129569124Y-95532847D01*
X129582792Y-95516192D01*
X129599447Y-95502524D01*
X129618443Y-95492371D01*
X129639062Y-95486116D01*
X129666640Y-95483400D01*
X130175360Y-95483400D01*
X130202938Y-95486116D01*
G37*
G36*
X172849538Y-94477316D02*
G01*
X172870157Y-94483571D01*
X172889153Y-94493724D01*
X172905808Y-94507392D01*
X172919476Y-94524047D01*
X172929629Y-94543043D01*
X172935884Y-94563662D01*
X172938600Y-94591240D01*
X172938600Y-95049960D01*
X172935884Y-95077538D01*
X172929629Y-95098157D01*
X172919476Y-95117153D01*
X172905808Y-95133808D01*
X172889153Y-95147476D01*
X172870157Y-95157629D01*
X172849538Y-95163884D01*
X172821960Y-95166600D01*
X172313240Y-95166600D01*
X172285662Y-95163884D01*
X172265043Y-95157629D01*
X172246047Y-95147476D01*
X172229392Y-95133808D01*
X172215724Y-95117153D01*
X172205571Y-95098157D01*
X172199316Y-95077538D01*
X172196600Y-95049960D01*
X172196600Y-94591240D01*
X172199316Y-94563662D01*
X172205571Y-94543043D01*
X172215724Y-94524047D01*
X172229392Y-94507392D01*
X172246047Y-94493724D01*
X172265043Y-94483571D01*
X172285662Y-94477316D01*
X172313240Y-94474600D01*
X172821960Y-94474600D01*
X172849538Y-94477316D01*
G37*
G36*
X175405038Y-94411816D02*
G01*
X175425657Y-94418071D01*
X175444653Y-94428224D01*
X175461308Y-94441892D01*
X175474976Y-94458547D01*
X175485129Y-94477543D01*
X175491384Y-94498162D01*
X175494100Y-94525740D01*
X175494100Y-95034460D01*
X175491384Y-95062038D01*
X175485129Y-95082657D01*
X175474976Y-95101653D01*
X175461308Y-95118308D01*
X175444653Y-95131976D01*
X175425657Y-95142129D01*
X175405038Y-95148384D01*
X175377460Y-95151100D01*
X174918740Y-95151100D01*
X174891162Y-95148384D01*
X174870543Y-95142129D01*
X174851547Y-95131976D01*
X174834892Y-95118308D01*
X174821224Y-95101653D01*
X174811071Y-95082657D01*
X174804816Y-95062038D01*
X174802100Y-95034460D01*
X174802100Y-94525740D01*
X174804816Y-94498162D01*
X174811071Y-94477543D01*
X174821224Y-94458547D01*
X174834892Y-94441892D01*
X174851547Y-94428224D01*
X174870543Y-94418071D01*
X174891162Y-94411816D01*
X174918740Y-94409100D01*
X175377460Y-94409100D01*
X175405038Y-94411816D01*
G37*
G36*
X174435038Y-94411816D02*
G01*
X174455657Y-94418071D01*
X174474653Y-94428224D01*
X174491308Y-94441892D01*
X174504976Y-94458547D01*
X174515129Y-94477543D01*
X174521384Y-94498162D01*
X174524100Y-94525740D01*
X174524100Y-95034460D01*
X174521384Y-95062038D01*
X174515129Y-95082657D01*
X174504976Y-95101653D01*
X174491308Y-95118308D01*
X174474653Y-95131976D01*
X174455657Y-95142129D01*
X174435038Y-95148384D01*
X174407460Y-95151100D01*
X173948740Y-95151100D01*
X173921162Y-95148384D01*
X173900543Y-95142129D01*
X173881547Y-95131976D01*
X173864892Y-95118308D01*
X173851224Y-95101653D01*
X173841071Y-95082657D01*
X173834816Y-95062038D01*
X173832100Y-95034460D01*
X173832100Y-94525740D01*
X173834816Y-94498162D01*
X173841071Y-94477543D01*
X173851224Y-94458547D01*
X173864892Y-94441892D01*
X173881547Y-94428224D01*
X173900543Y-94418071D01*
X173921162Y-94411816D01*
X173948740Y-94409100D01*
X174407460Y-94409100D01*
X174435038Y-94411816D01*
G37*
G36*
X172849538Y-93507316D02*
G01*
X172870157Y-93513571D01*
X172889153Y-93523724D01*
X172905808Y-93537392D01*
X172919476Y-93554047D01*
X172929629Y-93573043D01*
X172935884Y-93593662D01*
X172938600Y-93621240D01*
X172938600Y-94079960D01*
X172935884Y-94107538D01*
X172929629Y-94128157D01*
X172919476Y-94147153D01*
X172905808Y-94163808D01*
X172889153Y-94177476D01*
X172870157Y-94187629D01*
X172849538Y-94193884D01*
X172821960Y-94196600D01*
X172313240Y-94196600D01*
X172285662Y-94193884D01*
X172265043Y-94187629D01*
X172246047Y-94177476D01*
X172229392Y-94163808D01*
X172215724Y-94147153D01*
X172205571Y-94128157D01*
X172199316Y-94107538D01*
X172196600Y-94079960D01*
X172196600Y-93621240D01*
X172199316Y-93593662D01*
X172205571Y-93573043D01*
X172215724Y-93554047D01*
X172229392Y-93537392D01*
X172246047Y-93523724D01*
X172265043Y-93513571D01*
X172285662Y-93507316D01*
X172313240Y-93504600D01*
X172821960Y-93504600D01*
X172849538Y-93507316D01*
G37*
G36*
X138796800Y-93705500D02*
G01*
X136894800Y-93705500D01*
X136894800Y-92603500D01*
X138796800Y-92603500D01*
X138796800Y-93705500D01*
G37*
G36*
X134343538Y-92798916D02*
G01*
X134364157Y-92805171D01*
X134383153Y-92815324D01*
X134399808Y-92828992D01*
X134413476Y-92845647D01*
X134423629Y-92864643D01*
X134429884Y-92885262D01*
X134432600Y-92912840D01*
X134432600Y-93421560D01*
X134429884Y-93449138D01*
X134423629Y-93469757D01*
X134413476Y-93488753D01*
X134399808Y-93505408D01*
X134383153Y-93519076D01*
X134364157Y-93529229D01*
X134343538Y-93535484D01*
X134315960Y-93538200D01*
X133857240Y-93538200D01*
X133829662Y-93535484D01*
X133809043Y-93529229D01*
X133790047Y-93519076D01*
X133773392Y-93505408D01*
X133759724Y-93488753D01*
X133749571Y-93469757D01*
X133743316Y-93449138D01*
X133740600Y-93421560D01*
X133740600Y-92912840D01*
X133743316Y-92885262D01*
X133749571Y-92864643D01*
X133759724Y-92845647D01*
X133773392Y-92828992D01*
X133790047Y-92815324D01*
X133809043Y-92805171D01*
X133829662Y-92798916D01*
X133857240Y-92796200D01*
X134315960Y-92796200D01*
X134343538Y-92798916D01*
G37*
G36*
X133373538Y-92798916D02*
G01*
X133394157Y-92805171D01*
X133413153Y-92815324D01*
X133429808Y-92828992D01*
X133443476Y-92845647D01*
X133453629Y-92864643D01*
X133459884Y-92885262D01*
X133462600Y-92912840D01*
X133462600Y-93421560D01*
X133459884Y-93449138D01*
X133453629Y-93469757D01*
X133443476Y-93488753D01*
X133429808Y-93505408D01*
X133413153Y-93519076D01*
X133394157Y-93529229D01*
X133373538Y-93535484D01*
X133345960Y-93538200D01*
X132887240Y-93538200D01*
X132859662Y-93535484D01*
X132839043Y-93529229D01*
X132820047Y-93519076D01*
X132803392Y-93505408D01*
X132789724Y-93488753D01*
X132779571Y-93469757D01*
X132773316Y-93449138D01*
X132770600Y-93421560D01*
X132770600Y-92912840D01*
X132773316Y-92885262D01*
X132779571Y-92864643D01*
X132789724Y-92845647D01*
X132803392Y-92828992D01*
X132820047Y-92815324D01*
X132839043Y-92805171D01*
X132859662Y-92798916D01*
X132887240Y-92796200D01*
X133345960Y-92796200D01*
X133373538Y-92798916D01*
G37*
G36*
X172900338Y-91759516D02*
G01*
X172920957Y-91765771D01*
X172939953Y-91775924D01*
X172956608Y-91789592D01*
X172970276Y-91806247D01*
X172980429Y-91825243D01*
X172986684Y-91845862D01*
X172989400Y-91873440D01*
X172989400Y-92332160D01*
X172986684Y-92359738D01*
X172980429Y-92380357D01*
X172970276Y-92399353D01*
X172956608Y-92416008D01*
X172939953Y-92429676D01*
X172920957Y-92439829D01*
X172900338Y-92446084D01*
X172872760Y-92448800D01*
X172364040Y-92448800D01*
X172336462Y-92446084D01*
X172315843Y-92439829D01*
X172296847Y-92429676D01*
X172280192Y-92416008D01*
X172266524Y-92399353D01*
X172256371Y-92380357D01*
X172250116Y-92359738D01*
X172247400Y-92332160D01*
X172247400Y-91873440D01*
X172250116Y-91845862D01*
X172256371Y-91825243D01*
X172266524Y-91806247D01*
X172280192Y-91789592D01*
X172296847Y-91775924D01*
X172315843Y-91765771D01*
X172336462Y-91759516D01*
X172364040Y-91756800D01*
X172872760Y-91756800D01*
X172900338Y-91759516D01*
G37*
G36*
X172900338Y-90789516D02*
G01*
X172920957Y-90795771D01*
X172939953Y-90805924D01*
X172956608Y-90819592D01*
X172970276Y-90836247D01*
X172980429Y-90855243D01*
X172986684Y-90875862D01*
X172989400Y-90903440D01*
X172989400Y-91362160D01*
X172986684Y-91389738D01*
X172980429Y-91410357D01*
X172970276Y-91429353D01*
X172956608Y-91446008D01*
X172939953Y-91459676D01*
X172920957Y-91469829D01*
X172900338Y-91476084D01*
X172872760Y-91478800D01*
X172364040Y-91478800D01*
X172336462Y-91476084D01*
X172315843Y-91469829D01*
X172296847Y-91459676D01*
X172280192Y-91446008D01*
X172266524Y-91429353D01*
X172256371Y-91410357D01*
X172250116Y-91389738D01*
X172247400Y-91362160D01*
X172247400Y-90903440D01*
X172250116Y-90875862D01*
X172256371Y-90855243D01*
X172266524Y-90836247D01*
X172280192Y-90819592D01*
X172296847Y-90805924D01*
X172315843Y-90795771D01*
X172336462Y-90789516D01*
X172364040Y-90786800D01*
X172872760Y-90786800D01*
X172900338Y-90789516D01*
G37*
G36*
X138796800Y-91205500D02*
G01*
X136894800Y-91205500D01*
X136894800Y-90103500D01*
X138796800Y-90103500D01*
X138796800Y-91205500D01*
G37*
G36*
X133378338Y-90271616D02*
G01*
X133398957Y-90277871D01*
X133417953Y-90288024D01*
X133434608Y-90301692D01*
X133448276Y-90318347D01*
X133458429Y-90337343D01*
X133464684Y-90357962D01*
X133467400Y-90385540D01*
X133467400Y-90894260D01*
X133464684Y-90921838D01*
X133458429Y-90942457D01*
X133448276Y-90961453D01*
X133434608Y-90978108D01*
X133417953Y-90991776D01*
X133398957Y-91001929D01*
X133378338Y-91008184D01*
X133350760Y-91010900D01*
X132892040Y-91010900D01*
X132864462Y-91008184D01*
X132843843Y-91001929D01*
X132824847Y-90991776D01*
X132808192Y-90978108D01*
X132794524Y-90961453D01*
X132784371Y-90942457D01*
X132778116Y-90921838D01*
X132775400Y-90894260D01*
X132775400Y-90385540D01*
X132778116Y-90357962D01*
X132784371Y-90337343D01*
X132794524Y-90318347D01*
X132808192Y-90301692D01*
X132824847Y-90288024D01*
X132843843Y-90277871D01*
X132864462Y-90271616D01*
X132892040Y-90268900D01*
X133350760Y-90268900D01*
X133378338Y-90271616D01*
G37*
G36*
X134348338Y-90271616D02*
G01*
X134368957Y-90277871D01*
X134387953Y-90288024D01*
X134404608Y-90301692D01*
X134418276Y-90318347D01*
X134428429Y-90337343D01*
X134434684Y-90357962D01*
X134437400Y-90385540D01*
X134437400Y-90894260D01*
X134434684Y-90921838D01*
X134428429Y-90942457D01*
X134418276Y-90961453D01*
X134404608Y-90978108D01*
X134387953Y-90991776D01*
X134368957Y-91001929D01*
X134348338Y-91008184D01*
X134320760Y-91010900D01*
X133862040Y-91010900D01*
X133834462Y-91008184D01*
X133813843Y-91001929D01*
X133794847Y-90991776D01*
X133778192Y-90978108D01*
X133764524Y-90961453D01*
X133754371Y-90942457D01*
X133748116Y-90921838D01*
X133745400Y-90894260D01*
X133745400Y-90385540D01*
X133748116Y-90357962D01*
X133754371Y-90337343D01*
X133764524Y-90318347D01*
X133778192Y-90301692D01*
X133794847Y-90288024D01*
X133813843Y-90277871D01*
X133834462Y-90271616D01*
X133862040Y-90268900D01*
X134320760Y-90268900D01*
X134348338Y-90271616D01*
G37*
G36*
X142864838Y-90309316D02*
G01*
X142885457Y-90315571D01*
X142904453Y-90325724D01*
X142921108Y-90339392D01*
X142934776Y-90356047D01*
X142944929Y-90375043D01*
X142951184Y-90395662D01*
X142953900Y-90423240D01*
X142953900Y-90881960D01*
X142951184Y-90909538D01*
X142944929Y-90930157D01*
X142934776Y-90949153D01*
X142921108Y-90965808D01*
X142904453Y-90979476D01*
X142885457Y-90989629D01*
X142864838Y-90995884D01*
X142837260Y-90998600D01*
X142328540Y-90998600D01*
X142300962Y-90995884D01*
X142280343Y-90989629D01*
X142261347Y-90979476D01*
X142244692Y-90965808D01*
X142231024Y-90949153D01*
X142220871Y-90930157D01*
X142214616Y-90909538D01*
X142211900Y-90881960D01*
X142211900Y-90423240D01*
X142214616Y-90395662D01*
X142220871Y-90375043D01*
X142231024Y-90356047D01*
X142244692Y-90339392D01*
X142261347Y-90325724D01*
X142280343Y-90315571D01*
X142300962Y-90309316D01*
X142328540Y-90306600D01*
X142837260Y-90306600D01*
X142864838Y-90309316D01*
G37*
G36*
X166004638Y-90043016D02*
G01*
X166025257Y-90049271D01*
X166044253Y-90059424D01*
X166060908Y-90073092D01*
X166074576Y-90089747D01*
X166084729Y-90108743D01*
X166090984Y-90129362D01*
X166093700Y-90156940D01*
X166093700Y-90665660D01*
X166090984Y-90693238D01*
X166084729Y-90713857D01*
X166074576Y-90732853D01*
X166060908Y-90749508D01*
X166044253Y-90763176D01*
X166025257Y-90773329D01*
X166004638Y-90779584D01*
X165977060Y-90782300D01*
X165518340Y-90782300D01*
X165490762Y-90779584D01*
X165470143Y-90773329D01*
X165451147Y-90763176D01*
X165434492Y-90749508D01*
X165420824Y-90732853D01*
X165410671Y-90713857D01*
X165404416Y-90693238D01*
X165401700Y-90665660D01*
X165401700Y-90156940D01*
X165404416Y-90129362D01*
X165410671Y-90108743D01*
X165420824Y-90089747D01*
X165434492Y-90073092D01*
X165451147Y-90059424D01*
X165470143Y-90049271D01*
X165490762Y-90043016D01*
X165518340Y-90040300D01*
X165977060Y-90040300D01*
X166004638Y-90043016D01*
G37*
G36*
X165034638Y-90043016D02*
G01*
X165055257Y-90049271D01*
X165074253Y-90059424D01*
X165090908Y-90073092D01*
X165104576Y-90089747D01*
X165114729Y-90108743D01*
X165120984Y-90129362D01*
X165123700Y-90156940D01*
X165123700Y-90665660D01*
X165120984Y-90693238D01*
X165114729Y-90713857D01*
X165104576Y-90732853D01*
X165090908Y-90749508D01*
X165074253Y-90763176D01*
X165055257Y-90773329D01*
X165034638Y-90779584D01*
X165007060Y-90782300D01*
X164548340Y-90782300D01*
X164520762Y-90779584D01*
X164500143Y-90773329D01*
X164481147Y-90763176D01*
X164464492Y-90749508D01*
X164450824Y-90732853D01*
X164440671Y-90713857D01*
X164434416Y-90693238D01*
X164431700Y-90665660D01*
X164431700Y-90156940D01*
X164434416Y-90129362D01*
X164440671Y-90108743D01*
X164450824Y-90089747D01*
X164464492Y-90073092D01*
X164481147Y-90059424D01*
X164500143Y-90049271D01*
X164520762Y-90043016D01*
X164548340Y-90040300D01*
X165007060Y-90040300D01*
X165034638Y-90043016D01*
G37*
G36*
X153192738Y-89877916D02*
G01*
X153213357Y-89884171D01*
X153232353Y-89894324D01*
X153249008Y-89907992D01*
X153262676Y-89924647D01*
X153272829Y-89943643D01*
X153279084Y-89964262D01*
X153281800Y-89991840D01*
X153281800Y-90500560D01*
X153279084Y-90528138D01*
X153272829Y-90548757D01*
X153262676Y-90567753D01*
X153249008Y-90584408D01*
X153232353Y-90598076D01*
X153213357Y-90608229D01*
X153192738Y-90614484D01*
X153165160Y-90617200D01*
X152706440Y-90617200D01*
X152678862Y-90614484D01*
X152658243Y-90608229D01*
X152639247Y-90598076D01*
X152622592Y-90584408D01*
X152608924Y-90567753D01*
X152598771Y-90548757D01*
X152592516Y-90528138D01*
X152589800Y-90500560D01*
X152589800Y-89991840D01*
X152592516Y-89964262D01*
X152598771Y-89943643D01*
X152608924Y-89924647D01*
X152622592Y-89907992D01*
X152639247Y-89894324D01*
X152658243Y-89884171D01*
X152678862Y-89877916D01*
X152706440Y-89875200D01*
X153165160Y-89875200D01*
X153192738Y-89877916D01*
G37*
G36*
X152222738Y-89877916D02*
G01*
X152243357Y-89884171D01*
X152262353Y-89894324D01*
X152279008Y-89907992D01*
X152292676Y-89924647D01*
X152302829Y-89943643D01*
X152309084Y-89964262D01*
X152311800Y-89991840D01*
X152311800Y-90500560D01*
X152309084Y-90528138D01*
X152302829Y-90548757D01*
X152292676Y-90567753D01*
X152279008Y-90584408D01*
X152262353Y-90598076D01*
X152243357Y-90608229D01*
X152222738Y-90614484D01*
X152195160Y-90617200D01*
X151736440Y-90617200D01*
X151708862Y-90614484D01*
X151688243Y-90608229D01*
X151669247Y-90598076D01*
X151652592Y-90584408D01*
X151638924Y-90567753D01*
X151628771Y-90548757D01*
X151622516Y-90528138D01*
X151619800Y-90500560D01*
X151619800Y-89991840D01*
X151622516Y-89964262D01*
X151628771Y-89943643D01*
X151638924Y-89924647D01*
X151652592Y-89907992D01*
X151669247Y-89894324D01*
X151688243Y-89884171D01*
X151708862Y-89877916D01*
X151736440Y-89875200D01*
X152195160Y-89875200D01*
X152222738Y-89877916D01*
G37*
G36*
X160941600Y-90370900D02*
G01*
X159939600Y-90370900D01*
X159939600Y-88368900D01*
X160941600Y-88368900D01*
X160941600Y-90370900D01*
G37*
G36*
X159541600Y-90370900D02*
G01*
X158539600Y-90370900D01*
X158539600Y-88368900D01*
X159541600Y-88368900D01*
X159541600Y-90370900D01*
G37*
G36*
X142864838Y-89339316D02*
G01*
X142885457Y-89345571D01*
X142904453Y-89355724D01*
X142921108Y-89369392D01*
X142934776Y-89386047D01*
X142944929Y-89405043D01*
X142951184Y-89425662D01*
X142953900Y-89453240D01*
X142953900Y-89911960D01*
X142951184Y-89939538D01*
X142944929Y-89960157D01*
X142934776Y-89979153D01*
X142921108Y-89995808D01*
X142904453Y-90009476D01*
X142885457Y-90019629D01*
X142864838Y-90025884D01*
X142837260Y-90028600D01*
X142328540Y-90028600D01*
X142300962Y-90025884D01*
X142280343Y-90019629D01*
X142261347Y-90009476D01*
X142244692Y-89995808D01*
X142231024Y-89979153D01*
X142220871Y-89960157D01*
X142214616Y-89939538D01*
X142211900Y-89911960D01*
X142211900Y-89453240D01*
X142214616Y-89425662D01*
X142220871Y-89405043D01*
X142231024Y-89386047D01*
X142244692Y-89369392D01*
X142261347Y-89355724D01*
X142280343Y-89345571D01*
X142300962Y-89339316D01*
X142328540Y-89336600D01*
X142837260Y-89336600D01*
X142864838Y-89339316D01*
G37*
G36*
X172925738Y-89130616D02*
G01*
X172946357Y-89136871D01*
X172965353Y-89147024D01*
X172982008Y-89160692D01*
X172995676Y-89177347D01*
X173005829Y-89196343D01*
X173012084Y-89216962D01*
X173014800Y-89244540D01*
X173014800Y-89703260D01*
X173012084Y-89730838D01*
X173005829Y-89751457D01*
X172995676Y-89770453D01*
X172982008Y-89787108D01*
X172965353Y-89800776D01*
X172946357Y-89810929D01*
X172925738Y-89817184D01*
X172898160Y-89819900D01*
X172389440Y-89819900D01*
X172361862Y-89817184D01*
X172341243Y-89810929D01*
X172322247Y-89800776D01*
X172305592Y-89787108D01*
X172291924Y-89770453D01*
X172281771Y-89751457D01*
X172275516Y-89730838D01*
X172272800Y-89703260D01*
X172272800Y-89244540D01*
X172275516Y-89216962D01*
X172281771Y-89196343D01*
X172291924Y-89177347D01*
X172305592Y-89160692D01*
X172322247Y-89147024D01*
X172341243Y-89136871D01*
X172361862Y-89130616D01*
X172389440Y-89127900D01*
X172898160Y-89127900D01*
X172925738Y-89130616D01*
G37*
G36*
X174396938Y-89077816D02*
G01*
X174417557Y-89084071D01*
X174436553Y-89094224D01*
X174453208Y-89107892D01*
X174466876Y-89124547D01*
X174477029Y-89143543D01*
X174483284Y-89164162D01*
X174486000Y-89191740D01*
X174486000Y-89700460D01*
X174483284Y-89728038D01*
X174477029Y-89748657D01*
X174466876Y-89767653D01*
X174453208Y-89784308D01*
X174436553Y-89797976D01*
X174417557Y-89808129D01*
X174396938Y-89814384D01*
X174369360Y-89817100D01*
X173910640Y-89817100D01*
X173883062Y-89814384D01*
X173862443Y-89808129D01*
X173843447Y-89797976D01*
X173826792Y-89784308D01*
X173813124Y-89767653D01*
X173802971Y-89748657D01*
X173796716Y-89728038D01*
X173794000Y-89700460D01*
X173794000Y-89191740D01*
X173796716Y-89164162D01*
X173802971Y-89143543D01*
X173813124Y-89124547D01*
X173826792Y-89107892D01*
X173843447Y-89094224D01*
X173862443Y-89084071D01*
X173883062Y-89077816D01*
X173910640Y-89075100D01*
X174369360Y-89075100D01*
X174396938Y-89077816D01*
G37*
G36*
X175366938Y-89077816D02*
G01*
X175387557Y-89084071D01*
X175406553Y-89094224D01*
X175423208Y-89107892D01*
X175436876Y-89124547D01*
X175447029Y-89143543D01*
X175453284Y-89164162D01*
X175456000Y-89191740D01*
X175456000Y-89700460D01*
X175453284Y-89728038D01*
X175447029Y-89748657D01*
X175436876Y-89767653D01*
X175423208Y-89784308D01*
X175406553Y-89797976D01*
X175387557Y-89808129D01*
X175366938Y-89814384D01*
X175339360Y-89817100D01*
X174880640Y-89817100D01*
X174853062Y-89814384D01*
X174832443Y-89808129D01*
X174813447Y-89797976D01*
X174796792Y-89784308D01*
X174783124Y-89767653D01*
X174772971Y-89748657D01*
X174766716Y-89728038D01*
X174764000Y-89700460D01*
X174764000Y-89191740D01*
X174766716Y-89164162D01*
X174772971Y-89143543D01*
X174783124Y-89124547D01*
X174796792Y-89107892D01*
X174813447Y-89094224D01*
X174832443Y-89084071D01*
X174853062Y-89077816D01*
X174880640Y-89075100D01*
X175339360Y-89075100D01*
X175366938Y-89077816D01*
G37*
G36*
X157838138Y-88383716D02*
G01*
X157858757Y-88389971D01*
X157877753Y-88400124D01*
X157894408Y-88413792D01*
X157908076Y-88430447D01*
X157918229Y-88449443D01*
X157924484Y-88470062D01*
X157927200Y-88497640D01*
X157927200Y-88956360D01*
X157924484Y-88983938D01*
X157918229Y-89004557D01*
X157908076Y-89023553D01*
X157894408Y-89040208D01*
X157877753Y-89053876D01*
X157858757Y-89064029D01*
X157838138Y-89070284D01*
X157810560Y-89073000D01*
X157301840Y-89073000D01*
X157274262Y-89070284D01*
X157253643Y-89064029D01*
X157234647Y-89053876D01*
X157217992Y-89040208D01*
X157204324Y-89023553D01*
X157194171Y-89004557D01*
X157187916Y-88983938D01*
X157185200Y-88956360D01*
X157185200Y-88497640D01*
X157187916Y-88470062D01*
X157194171Y-88449443D01*
X157204324Y-88430447D01*
X157217992Y-88413792D01*
X157234647Y-88400124D01*
X157253643Y-88389971D01*
X157274262Y-88383716D01*
X157301840Y-88381000D01*
X157810560Y-88381000D01*
X157838138Y-88383716D01*
G37*
G36*
X162206938Y-88320216D02*
G01*
X162227557Y-88326471D01*
X162246553Y-88336624D01*
X162263208Y-88350292D01*
X162276876Y-88366947D01*
X162287029Y-88385943D01*
X162293284Y-88406562D01*
X162296000Y-88434140D01*
X162296000Y-88892860D01*
X162293284Y-88920438D01*
X162287029Y-88941057D01*
X162276876Y-88960053D01*
X162263208Y-88976708D01*
X162246553Y-88990376D01*
X162227557Y-89000529D01*
X162206938Y-89006784D01*
X162179360Y-89009500D01*
X161670640Y-89009500D01*
X161643062Y-89006784D01*
X161622443Y-89000529D01*
X161603447Y-88990376D01*
X161586792Y-88976708D01*
X161573124Y-88960053D01*
X161562971Y-88941057D01*
X161556716Y-88920438D01*
X161554000Y-88892860D01*
X161554000Y-88434140D01*
X161556716Y-88406562D01*
X161562971Y-88385943D01*
X161573124Y-88366947D01*
X161586792Y-88350292D01*
X161603447Y-88336624D01*
X161622443Y-88326471D01*
X161643062Y-88320216D01*
X161670640Y-88317500D01*
X162179360Y-88317500D01*
X162206938Y-88320216D01*
G37*
G36*
X165981638Y-88252316D02*
G01*
X166002257Y-88258571D01*
X166021253Y-88268724D01*
X166037908Y-88282392D01*
X166051576Y-88299047D01*
X166061729Y-88318043D01*
X166067984Y-88338662D01*
X166070700Y-88366240D01*
X166070700Y-88874960D01*
X166067984Y-88902538D01*
X166061729Y-88923157D01*
X166051576Y-88942153D01*
X166037908Y-88958808D01*
X166021253Y-88972476D01*
X166002257Y-88982629D01*
X165981638Y-88988884D01*
X165954060Y-88991600D01*
X165495340Y-88991600D01*
X165467762Y-88988884D01*
X165447143Y-88982629D01*
X165428147Y-88972476D01*
X165411492Y-88958808D01*
X165397824Y-88942153D01*
X165387671Y-88923157D01*
X165381416Y-88902538D01*
X165378700Y-88874960D01*
X165378700Y-88366240D01*
X165381416Y-88338662D01*
X165387671Y-88318043D01*
X165397824Y-88299047D01*
X165411492Y-88282392D01*
X165428147Y-88268724D01*
X165447143Y-88258571D01*
X165467762Y-88252316D01*
X165495340Y-88249600D01*
X165954060Y-88249600D01*
X165981638Y-88252316D01*
G37*
G36*
X165011638Y-88252316D02*
G01*
X165032257Y-88258571D01*
X165051253Y-88268724D01*
X165067908Y-88282392D01*
X165081576Y-88299047D01*
X165091729Y-88318043D01*
X165097984Y-88338662D01*
X165100700Y-88366240D01*
X165100700Y-88874960D01*
X165097984Y-88902538D01*
X165091729Y-88923157D01*
X165081576Y-88942153D01*
X165067908Y-88958808D01*
X165051253Y-88972476D01*
X165032257Y-88982629D01*
X165011638Y-88988884D01*
X164984060Y-88991600D01*
X164525340Y-88991600D01*
X164497762Y-88988884D01*
X164477143Y-88982629D01*
X164458147Y-88972476D01*
X164441492Y-88958808D01*
X164427824Y-88942153D01*
X164417671Y-88923157D01*
X164411416Y-88902538D01*
X164408700Y-88874960D01*
X164408700Y-88366240D01*
X164411416Y-88338662D01*
X164417671Y-88318043D01*
X164427824Y-88299047D01*
X164441492Y-88282392D01*
X164458147Y-88268724D01*
X164477143Y-88258571D01*
X164497762Y-88252316D01*
X164525340Y-88249600D01*
X164984060Y-88249600D01*
X165011638Y-88252316D01*
G37*
G36*
X172925738Y-88160616D02*
G01*
X172946357Y-88166871D01*
X172965353Y-88177024D01*
X172982008Y-88190692D01*
X172995676Y-88207347D01*
X173005829Y-88226343D01*
X173012084Y-88246962D01*
X173014800Y-88274540D01*
X173014800Y-88733260D01*
X173012084Y-88760838D01*
X173005829Y-88781457D01*
X172995676Y-88800453D01*
X172982008Y-88817108D01*
X172965353Y-88830776D01*
X172946357Y-88840929D01*
X172925738Y-88847184D01*
X172898160Y-88849900D01*
X172389440Y-88849900D01*
X172361862Y-88847184D01*
X172341243Y-88840929D01*
X172322247Y-88830776D01*
X172305592Y-88817108D01*
X172291924Y-88800453D01*
X172281771Y-88781457D01*
X172275516Y-88760838D01*
X172272800Y-88733260D01*
X172272800Y-88274540D01*
X172275516Y-88246962D01*
X172281771Y-88226343D01*
X172291924Y-88207347D01*
X172305592Y-88190692D01*
X172322247Y-88177024D01*
X172341243Y-88166871D01*
X172361862Y-88160616D01*
X172389440Y-88157900D01*
X172898160Y-88157900D01*
X172925738Y-88160616D01*
G37*
G36*
X143812938Y-87566516D02*
G01*
X143833557Y-87572771D01*
X143852553Y-87582924D01*
X143869208Y-87596592D01*
X143882876Y-87613247D01*
X143893029Y-87632243D01*
X143899284Y-87652862D01*
X143902000Y-87680440D01*
X143902000Y-88189160D01*
X143899284Y-88216738D01*
X143893029Y-88237357D01*
X143882876Y-88256353D01*
X143869208Y-88273008D01*
X143852553Y-88286676D01*
X143833557Y-88296829D01*
X143812938Y-88303084D01*
X143785360Y-88305800D01*
X143326640Y-88305800D01*
X143299062Y-88303084D01*
X143278443Y-88296829D01*
X143259447Y-88286676D01*
X143242792Y-88273008D01*
X143229124Y-88256353D01*
X143218971Y-88237357D01*
X143212716Y-88216738D01*
X143210000Y-88189160D01*
X143210000Y-87680440D01*
X143212716Y-87652862D01*
X143218971Y-87632243D01*
X143229124Y-87613247D01*
X143242792Y-87596592D01*
X143259447Y-87582924D01*
X143278443Y-87572771D01*
X143299062Y-87566516D01*
X143326640Y-87563800D01*
X143785360Y-87563800D01*
X143812938Y-87566516D01*
G37*
G36*
X144782938Y-87566516D02*
G01*
X144803557Y-87572771D01*
X144822553Y-87582924D01*
X144839208Y-87596592D01*
X144852876Y-87613247D01*
X144863029Y-87632243D01*
X144869284Y-87652862D01*
X144872000Y-87680440D01*
X144872000Y-88189160D01*
X144869284Y-88216738D01*
X144863029Y-88237357D01*
X144852876Y-88256353D01*
X144839208Y-88273008D01*
X144822553Y-88286676D01*
X144803557Y-88296829D01*
X144782938Y-88303084D01*
X144755360Y-88305800D01*
X144296640Y-88305800D01*
X144269062Y-88303084D01*
X144248443Y-88296829D01*
X144229447Y-88286676D01*
X144212792Y-88273008D01*
X144199124Y-88256353D01*
X144188971Y-88237357D01*
X144182716Y-88216738D01*
X144180000Y-88189160D01*
X144180000Y-87680440D01*
X144182716Y-87652862D01*
X144188971Y-87632243D01*
X144199124Y-87613247D01*
X144212792Y-87596592D01*
X144229447Y-87582924D01*
X144248443Y-87572771D01*
X144269062Y-87566516D01*
X144296640Y-87563800D01*
X144755360Y-87563800D01*
X144782938Y-87566516D01*
G37*
G36*
X157838138Y-87413716D02*
G01*
X157858757Y-87419971D01*
X157877753Y-87430124D01*
X157894408Y-87443792D01*
X157908076Y-87460447D01*
X157918229Y-87479443D01*
X157924484Y-87500062D01*
X157927200Y-87527640D01*
X157927200Y-87986360D01*
X157924484Y-88013938D01*
X157918229Y-88034557D01*
X157908076Y-88053553D01*
X157894408Y-88070208D01*
X157877753Y-88083876D01*
X157858757Y-88094029D01*
X157838138Y-88100284D01*
X157810560Y-88103000D01*
X157301840Y-88103000D01*
X157274262Y-88100284D01*
X157253643Y-88094029D01*
X157234647Y-88083876D01*
X157217992Y-88070208D01*
X157204324Y-88053553D01*
X157194171Y-88034557D01*
X157187916Y-88013938D01*
X157185200Y-87986360D01*
X157185200Y-87527640D01*
X157187916Y-87500062D01*
X157194171Y-87479443D01*
X157204324Y-87460447D01*
X157217992Y-87443792D01*
X157234647Y-87430124D01*
X157253643Y-87419971D01*
X157274262Y-87413716D01*
X157301840Y-87411000D01*
X157810560Y-87411000D01*
X157838138Y-87413716D01*
G37*
G36*
X162206938Y-87350216D02*
G01*
X162227557Y-87356471D01*
X162246553Y-87366624D01*
X162263208Y-87380292D01*
X162276876Y-87396947D01*
X162287029Y-87415943D01*
X162293284Y-87436562D01*
X162296000Y-87464140D01*
X162296000Y-87922860D01*
X162293284Y-87950438D01*
X162287029Y-87971057D01*
X162276876Y-87990053D01*
X162263208Y-88006708D01*
X162246553Y-88020376D01*
X162227557Y-88030529D01*
X162206938Y-88036784D01*
X162179360Y-88039500D01*
X161670640Y-88039500D01*
X161643062Y-88036784D01*
X161622443Y-88030529D01*
X161603447Y-88020376D01*
X161586792Y-88006708D01*
X161573124Y-87990053D01*
X161562971Y-87971057D01*
X161556716Y-87950438D01*
X161554000Y-87922860D01*
X161554000Y-87464140D01*
X161556716Y-87436562D01*
X161562971Y-87415943D01*
X161573124Y-87396947D01*
X161586792Y-87380292D01*
X161603447Y-87366624D01*
X161622443Y-87356471D01*
X161643062Y-87350216D01*
X161670640Y-87347500D01*
X162179360Y-87347500D01*
X162206938Y-87350216D01*
G37*
G36*
X154170638Y-85902816D02*
G01*
X154191257Y-85909071D01*
X154210253Y-85919224D01*
X154226908Y-85932892D01*
X154240576Y-85949547D01*
X154250729Y-85968543D01*
X154256984Y-85989162D01*
X154259700Y-86016740D01*
X154259700Y-86525460D01*
X154256984Y-86553038D01*
X154250729Y-86573657D01*
X154240576Y-86592653D01*
X154226908Y-86609308D01*
X154210253Y-86622976D01*
X154191257Y-86633129D01*
X154170638Y-86639384D01*
X154143060Y-86642100D01*
X153684340Y-86642100D01*
X153656762Y-86639384D01*
X153636143Y-86633129D01*
X153617147Y-86622976D01*
X153600492Y-86609308D01*
X153586824Y-86592653D01*
X153576671Y-86573657D01*
X153570416Y-86553038D01*
X153567700Y-86525460D01*
X153567700Y-86016740D01*
X153570416Y-85989162D01*
X153576671Y-85968543D01*
X153586824Y-85949547D01*
X153600492Y-85932892D01*
X153617147Y-85919224D01*
X153636143Y-85909071D01*
X153656762Y-85902816D01*
X153684340Y-85900100D01*
X154143060Y-85900100D01*
X154170638Y-85902816D01*
G37*
G36*
X153200638Y-85902816D02*
G01*
X153221257Y-85909071D01*
X153240253Y-85919224D01*
X153256908Y-85932892D01*
X153270576Y-85949547D01*
X153280729Y-85968543D01*
X153286984Y-85989162D01*
X153289700Y-86016740D01*
X153289700Y-86525460D01*
X153286984Y-86553038D01*
X153280729Y-86573657D01*
X153270576Y-86592653D01*
X153256908Y-86609308D01*
X153240253Y-86622976D01*
X153221257Y-86633129D01*
X153200638Y-86639384D01*
X153173060Y-86642100D01*
X152714340Y-86642100D01*
X152686762Y-86639384D01*
X152666143Y-86633129D01*
X152647147Y-86622976D01*
X152630492Y-86609308D01*
X152616824Y-86592653D01*
X152606671Y-86573657D01*
X152600416Y-86553038D01*
X152597700Y-86525460D01*
X152597700Y-86016740D01*
X152600416Y-85989162D01*
X152606671Y-85968543D01*
X152616824Y-85949547D01*
X152630492Y-85932892D01*
X152647147Y-85919224D01*
X152666143Y-85909071D01*
X152686762Y-85902816D01*
X152714340Y-85900100D01*
X153173060Y-85900100D01*
X153200638Y-85902816D01*
G37*
G36*
X145783438Y-85841316D02*
G01*
X145804057Y-85847571D01*
X145823053Y-85857724D01*
X145839708Y-85871392D01*
X145853376Y-85888047D01*
X145863529Y-85907043D01*
X145869784Y-85927662D01*
X145872500Y-85955240D01*
X145872500Y-86413960D01*
X145869784Y-86441538D01*
X145863529Y-86462157D01*
X145853376Y-86481153D01*
X145839708Y-86497808D01*
X145823053Y-86511476D01*
X145804057Y-86521629D01*
X145783438Y-86527884D01*
X145755860Y-86530600D01*
X145247140Y-86530600D01*
X145219562Y-86527884D01*
X145198943Y-86521629D01*
X145179947Y-86511476D01*
X145163292Y-86497808D01*
X145149624Y-86481153D01*
X145139471Y-86462157D01*
X145133216Y-86441538D01*
X145130500Y-86413960D01*
X145130500Y-85955240D01*
X145133216Y-85927662D01*
X145139471Y-85907043D01*
X145149624Y-85888047D01*
X145163292Y-85871392D01*
X145179947Y-85857724D01*
X145198943Y-85847571D01*
X145219562Y-85841316D01*
X145247140Y-85838600D01*
X145755860Y-85838600D01*
X145783438Y-85841316D01*
G37*
G36*
X149525189Y-84356318D02*
G01*
X149545749Y-84360407D01*
X149570253Y-84360407D01*
X149590812Y-84356318D01*
X149601143Y-84355300D01*
X149864857Y-84355300D01*
X149875189Y-84356318D01*
X149895749Y-84360407D01*
X149920253Y-84360407D01*
X149940812Y-84356318D01*
X149951143Y-84355300D01*
X150214857Y-84355300D01*
X150223416Y-84356143D01*
X150225745Y-84356850D01*
X150227887Y-84357995D01*
X150229765Y-84359535D01*
X150231305Y-84361413D01*
X150232450Y-84363555D01*
X150233157Y-84365884D01*
X150234000Y-84374443D01*
X150234000Y-84530301D01*
X150236402Y-84554687D01*
X150243515Y-84578136D01*
X150255066Y-84599747D01*
X150270611Y-84618689D01*
X150289553Y-84634234D01*
X150311164Y-84645785D01*
X150334613Y-84652898D01*
X150358999Y-84655300D01*
X150689857Y-84655300D01*
X150698416Y-84656143D01*
X150700745Y-84656850D01*
X150702887Y-84657995D01*
X150704765Y-84659535D01*
X150706305Y-84661413D01*
X150707450Y-84663555D01*
X150708157Y-84665884D01*
X150709000Y-84674443D01*
X150709000Y-84938157D01*
X150707982Y-84948489D01*
X150703893Y-84969049D01*
X150703893Y-84993553D01*
X150707982Y-85014112D01*
X150709000Y-85024443D01*
X150709000Y-85288157D01*
X150707982Y-85298489D01*
X150703893Y-85319049D01*
X150703893Y-85343553D01*
X150707982Y-85364112D01*
X150709000Y-85374443D01*
X150709000Y-85638157D01*
X150707982Y-85648489D01*
X150703893Y-85669049D01*
X150703893Y-85693553D01*
X150707982Y-85714112D01*
X150709000Y-85724443D01*
X150709000Y-85988157D01*
X150708157Y-85996716D01*
X150707450Y-85999045D01*
X150706305Y-86001187D01*
X150704765Y-86003065D01*
X150702887Y-86004605D01*
X150700745Y-86005750D01*
X150698416Y-86006457D01*
X150689857Y-86007300D01*
X150358999Y-86007300D01*
X150334613Y-86009702D01*
X150311164Y-86016815D01*
X150289553Y-86028366D01*
X150270611Y-86043911D01*
X150255066Y-86062853D01*
X150243515Y-86084464D01*
X150236402Y-86107913D01*
X150234000Y-86132299D01*
X150234000Y-86288157D01*
X150233157Y-86296716D01*
X150232450Y-86299045D01*
X150231305Y-86301187D01*
X150229765Y-86303065D01*
X150227887Y-86304605D01*
X150225745Y-86305750D01*
X150223416Y-86306457D01*
X150214857Y-86307300D01*
X149951143Y-86307300D01*
X149940811Y-86306282D01*
X149920251Y-86302193D01*
X149895747Y-86302193D01*
X149875188Y-86306282D01*
X149864857Y-86307300D01*
X149601143Y-86307300D01*
X149590811Y-86306282D01*
X149570251Y-86302193D01*
X149545747Y-86302193D01*
X149525188Y-86306282D01*
X149514857Y-86307300D01*
X149251143Y-86307300D01*
X149242584Y-86306457D01*
X149240255Y-86305750D01*
X149238113Y-86304605D01*
X149236235Y-86303065D01*
X149234695Y-86301187D01*
X149233550Y-86299045D01*
X149232843Y-86296716D01*
X149232000Y-86288157D01*
X149232000Y-86132299D01*
X149229598Y-86107913D01*
X149222485Y-86084464D01*
X149210934Y-86062853D01*
X149195389Y-86043911D01*
X149176447Y-86028366D01*
X149154836Y-86016815D01*
X149131387Y-86009702D01*
X149107001Y-86007300D01*
X148776143Y-86007300D01*
X148767584Y-86006457D01*
X148765255Y-86005750D01*
X148763113Y-86004605D01*
X148761235Y-86003065D01*
X148759695Y-86001187D01*
X148758550Y-85999045D01*
X148757843Y-85996716D01*
X148757000Y-85988157D01*
X148757000Y-85724443D01*
X148758018Y-85714111D01*
X148762107Y-85693551D01*
X148762107Y-85669047D01*
X148758018Y-85648488D01*
X148757000Y-85638157D01*
X148757000Y-85374443D01*
X148758018Y-85364111D01*
X148762107Y-85343551D01*
X148762107Y-85319047D01*
X148758018Y-85298488D01*
X148757000Y-85288157D01*
X148757000Y-85024443D01*
X148758018Y-85014111D01*
X148762107Y-84993551D01*
X148762107Y-84969049D01*
X149178893Y-84969049D01*
X149178893Y-84993553D01*
X149182982Y-85014112D01*
X149184000Y-85024443D01*
X149184000Y-85288157D01*
X149182982Y-85298489D01*
X149178893Y-85319049D01*
X149178893Y-85343553D01*
X149182982Y-85364112D01*
X149184000Y-85374443D01*
X149184000Y-85638157D01*
X149182982Y-85648489D01*
X149178893Y-85669049D01*
X149178893Y-85693553D01*
X149182982Y-85714112D01*
X149184000Y-85724443D01*
X149184000Y-85755301D01*
X149186402Y-85779687D01*
X149193515Y-85803136D01*
X149205066Y-85824747D01*
X149220611Y-85843689D01*
X149239553Y-85859234D01*
X149261164Y-85870785D01*
X149284613Y-85877898D01*
X149308999Y-85880300D01*
X149514857Y-85880300D01*
X149525189Y-85881318D01*
X149545749Y-85885407D01*
X149570253Y-85885407D01*
X149590812Y-85881318D01*
X149601143Y-85880300D01*
X149864857Y-85880300D01*
X149875189Y-85881318D01*
X149895749Y-85885407D01*
X149920253Y-85885407D01*
X149940812Y-85881318D01*
X149951143Y-85880300D01*
X150157001Y-85880300D01*
X150181387Y-85877898D01*
X150204836Y-85870785D01*
X150226447Y-85859234D01*
X150245389Y-85843689D01*
X150260934Y-85824747D01*
X150272485Y-85803136D01*
X150279598Y-85779687D01*
X150282000Y-85755301D01*
X150282000Y-85724443D01*
X150283018Y-85714111D01*
X150287107Y-85693551D01*
X150287107Y-85669047D01*
X150283018Y-85648488D01*
X150282000Y-85638157D01*
X150282000Y-85374443D01*
X150283018Y-85364111D01*
X150287107Y-85343551D01*
X150287107Y-85319047D01*
X150283018Y-85298488D01*
X150282000Y-85288157D01*
X150282000Y-85024443D01*
X150283018Y-85014111D01*
X150287107Y-84993551D01*
X150287107Y-84969047D01*
X150283018Y-84948488D01*
X150282000Y-84938157D01*
X150282000Y-84907299D01*
X150279598Y-84882913D01*
X150272485Y-84859464D01*
X150260934Y-84837853D01*
X150245389Y-84818911D01*
X150226447Y-84803366D01*
X150204836Y-84791815D01*
X150181387Y-84784702D01*
X150157001Y-84782300D01*
X149951143Y-84782300D01*
X149940811Y-84781282D01*
X149920251Y-84777193D01*
X149895747Y-84777193D01*
X149875188Y-84781282D01*
X149864857Y-84782300D01*
X149601143Y-84782300D01*
X149590811Y-84781282D01*
X149570251Y-84777193D01*
X149545747Y-84777193D01*
X149525188Y-84781282D01*
X149514857Y-84782300D01*
X149308999Y-84782300D01*
X149284613Y-84784702D01*
X149261164Y-84791815D01*
X149239553Y-84803366D01*
X149220611Y-84818911D01*
X149205066Y-84837853D01*
X149193515Y-84859464D01*
X149186402Y-84882913D01*
X149184000Y-84907299D01*
X149184000Y-84938157D01*
X149182982Y-84948489D01*
X149178893Y-84969049D01*
X148762107Y-84969049D01*
X148762107Y-84969047D01*
X148758018Y-84948488D01*
X148757000Y-84938157D01*
X148757000Y-84674443D01*
X148757843Y-84665884D01*
X148758550Y-84663555D01*
X148759695Y-84661413D01*
X148761235Y-84659535D01*
X148763113Y-84657995D01*
X148765255Y-84656850D01*
X148767584Y-84656143D01*
X148776143Y-84655300D01*
X149107001Y-84655300D01*
X149131387Y-84652898D01*
X149154836Y-84645785D01*
X149176447Y-84634234D01*
X149195389Y-84618689D01*
X149210934Y-84599747D01*
X149222485Y-84578136D01*
X149229598Y-84554687D01*
X149232000Y-84530301D01*
X149232000Y-84374443D01*
X149232843Y-84365884D01*
X149233550Y-84363555D01*
X149234695Y-84361413D01*
X149236235Y-84359535D01*
X149238113Y-84357995D01*
X149240255Y-84356850D01*
X149242584Y-84356143D01*
X149251143Y-84355300D01*
X149514857Y-84355300D01*
X149525189Y-84356318D01*
G37*
G36*
X173141000Y-86195000D02*
G01*
X172239000Y-86195000D01*
X172239000Y-84493000D01*
X173141000Y-84493000D01*
X173141000Y-86195000D01*
G37*
G36*
X175741000Y-86195000D02*
G01*
X174839000Y-86195000D01*
X174839000Y-84493000D01*
X175741000Y-84493000D01*
X175741000Y-86195000D01*
G37*
G36*
X145783438Y-84871316D02*
G01*
X145804057Y-84877571D01*
X145823053Y-84887724D01*
X145839708Y-84901392D01*
X145853376Y-84918047D01*
X145863529Y-84937043D01*
X145869784Y-84957662D01*
X145872500Y-84985240D01*
X145872500Y-85443960D01*
X145869784Y-85471538D01*
X145863529Y-85492157D01*
X145853376Y-85511153D01*
X145839708Y-85527808D01*
X145823053Y-85541476D01*
X145804057Y-85551629D01*
X145783438Y-85557884D01*
X145755860Y-85560600D01*
X145247140Y-85560600D01*
X145219562Y-85557884D01*
X145198943Y-85551629D01*
X145179947Y-85541476D01*
X145163292Y-85527808D01*
X145149624Y-85511153D01*
X145139471Y-85492157D01*
X145133216Y-85471538D01*
X145130500Y-85443960D01*
X145130500Y-84985240D01*
X145133216Y-84957662D01*
X145139471Y-84937043D01*
X145149624Y-84918047D01*
X145163292Y-84901392D01*
X145179947Y-84887724D01*
X145198943Y-84877571D01*
X145219562Y-84871316D01*
X145247140Y-84868600D01*
X145755860Y-84868600D01*
X145783438Y-84871316D01*
G37*
G36*
X154168238Y-84759816D02*
G01*
X154188857Y-84766071D01*
X154207853Y-84776224D01*
X154224508Y-84789892D01*
X154238176Y-84806547D01*
X154248329Y-84825543D01*
X154254584Y-84846162D01*
X154257300Y-84873740D01*
X154257300Y-85382460D01*
X154254584Y-85410038D01*
X154248329Y-85430657D01*
X154238176Y-85449653D01*
X154224508Y-85466308D01*
X154207853Y-85479976D01*
X154188857Y-85490129D01*
X154168238Y-85496384D01*
X154140660Y-85499100D01*
X153681940Y-85499100D01*
X153654362Y-85496384D01*
X153633743Y-85490129D01*
X153614747Y-85479976D01*
X153598092Y-85466308D01*
X153584424Y-85449653D01*
X153574271Y-85430657D01*
X153568016Y-85410038D01*
X153565300Y-85382460D01*
X153565300Y-84873740D01*
X153568016Y-84846162D01*
X153574271Y-84825543D01*
X153584424Y-84806547D01*
X153598092Y-84789892D01*
X153614747Y-84776224D01*
X153633743Y-84766071D01*
X153654362Y-84759816D01*
X153681940Y-84757100D01*
X154140660Y-84757100D01*
X154168238Y-84759816D01*
G37*
G36*
X153198238Y-84759816D02*
G01*
X153218857Y-84766071D01*
X153237853Y-84776224D01*
X153254508Y-84789892D01*
X153268176Y-84806547D01*
X153278329Y-84825543D01*
X153284584Y-84846162D01*
X153287300Y-84873740D01*
X153287300Y-85382460D01*
X153284584Y-85410038D01*
X153278329Y-85430657D01*
X153268176Y-85449653D01*
X153254508Y-85466308D01*
X153237853Y-85479976D01*
X153218857Y-85490129D01*
X153198238Y-85496384D01*
X153170660Y-85499100D01*
X152711940Y-85499100D01*
X152684362Y-85496384D01*
X152663743Y-85490129D01*
X152644747Y-85479976D01*
X152628092Y-85466308D01*
X152614424Y-85449653D01*
X152604271Y-85430657D01*
X152598016Y-85410038D01*
X152595300Y-85382460D01*
X152595300Y-84873740D01*
X152598016Y-84846162D01*
X152604271Y-84825543D01*
X152614424Y-84806547D01*
X152628092Y-84789892D01*
X152644747Y-84776224D01*
X152663743Y-84766071D01*
X152684362Y-84759816D01*
X152711940Y-84757100D01*
X153170660Y-84757100D01*
X153198238Y-84759816D01*
G37*
G36*
X145785838Y-83489416D02*
G01*
X145806457Y-83495671D01*
X145825453Y-83505824D01*
X145842108Y-83519492D01*
X145855776Y-83536147D01*
X145865929Y-83555143D01*
X145872184Y-83575762D01*
X145874900Y-83603340D01*
X145874900Y-84062060D01*
X145872184Y-84089638D01*
X145865929Y-84110257D01*
X145855776Y-84129253D01*
X145842108Y-84145908D01*
X145825453Y-84159576D01*
X145806457Y-84169729D01*
X145785838Y-84175984D01*
X145758260Y-84178700D01*
X145249540Y-84178700D01*
X145221962Y-84175984D01*
X145201343Y-84169729D01*
X145182347Y-84159576D01*
X145165692Y-84145908D01*
X145152024Y-84129253D01*
X145141871Y-84110257D01*
X145135616Y-84089638D01*
X145132900Y-84062060D01*
X145132900Y-83603340D01*
X145135616Y-83575762D01*
X145141871Y-83555143D01*
X145152024Y-83536147D01*
X145165692Y-83519492D01*
X145182347Y-83505824D01*
X145201343Y-83495671D01*
X145221962Y-83489416D01*
X145249540Y-83486700D01*
X145758260Y-83486700D01*
X145785838Y-83489416D01*
G37*
G36*
X145785838Y-82519416D02*
G01*
X145806457Y-82525671D01*
X145825453Y-82535824D01*
X145842108Y-82549492D01*
X145855776Y-82566147D01*
X145865929Y-82585143D01*
X145872184Y-82605762D01*
X145874900Y-82633340D01*
X145874900Y-83092060D01*
X145872184Y-83119638D01*
X145865929Y-83140257D01*
X145855776Y-83159253D01*
X145842108Y-83175908D01*
X145825453Y-83189576D01*
X145806457Y-83199729D01*
X145785838Y-83205984D01*
X145758260Y-83208700D01*
X145249540Y-83208700D01*
X145221962Y-83205984D01*
X145201343Y-83199729D01*
X145182347Y-83189576D01*
X145165692Y-83175908D01*
X145152024Y-83159253D01*
X145141871Y-83140257D01*
X145135616Y-83119638D01*
X145132900Y-83092060D01*
X145132900Y-82633340D01*
X145135616Y-82605762D01*
X145141871Y-82585143D01*
X145152024Y-82566147D01*
X145165692Y-82549492D01*
X145182347Y-82535824D01*
X145201343Y-82525671D01*
X145221962Y-82519416D01*
X145249540Y-82516700D01*
X145758260Y-82516700D01*
X145785838Y-82519416D01*
G37*
G36*
X144752738Y-81038716D02*
G01*
X144773357Y-81044971D01*
X144792353Y-81055124D01*
X144809008Y-81068792D01*
X144822676Y-81085447D01*
X144832829Y-81104443D01*
X144839084Y-81125062D01*
X144841800Y-81152640D01*
X144841800Y-81661360D01*
X144839084Y-81688938D01*
X144832829Y-81709557D01*
X144822676Y-81728553D01*
X144809008Y-81745208D01*
X144792353Y-81758876D01*
X144773357Y-81769029D01*
X144752738Y-81775284D01*
X144725160Y-81778000D01*
X144266440Y-81778000D01*
X144238862Y-81775284D01*
X144218243Y-81769029D01*
X144199247Y-81758876D01*
X144182592Y-81745208D01*
X144168924Y-81728553D01*
X144158771Y-81709557D01*
X144152516Y-81688938D01*
X144149800Y-81661360D01*
X144149800Y-81152640D01*
X144152516Y-81125062D01*
X144158771Y-81104443D01*
X144168924Y-81085447D01*
X144182592Y-81068792D01*
X144199247Y-81055124D01*
X144218243Y-81044971D01*
X144238862Y-81038716D01*
X144266440Y-81036000D01*
X144725160Y-81036000D01*
X144752738Y-81038716D01*
G37*
G36*
X145722738Y-81038716D02*
G01*
X145743357Y-81044971D01*
X145762353Y-81055124D01*
X145779008Y-81068792D01*
X145792676Y-81085447D01*
X145802829Y-81104443D01*
X145809084Y-81125062D01*
X145811800Y-81152640D01*
X145811800Y-81661360D01*
X145809084Y-81688938D01*
X145802829Y-81709557D01*
X145792676Y-81728553D01*
X145779008Y-81745208D01*
X145762353Y-81758876D01*
X145743357Y-81769029D01*
X145722738Y-81775284D01*
X145695160Y-81778000D01*
X145236440Y-81778000D01*
X145208862Y-81775284D01*
X145188243Y-81769029D01*
X145169247Y-81758876D01*
X145152592Y-81745208D01*
X145138924Y-81728553D01*
X145128771Y-81709557D01*
X145122516Y-81688938D01*
X145119800Y-81661360D01*
X145119800Y-81152640D01*
X145122516Y-81125062D01*
X145128771Y-81104443D01*
X145138924Y-81085447D01*
X145152592Y-81068792D01*
X145169247Y-81055124D01*
X145188243Y-81044971D01*
X145208862Y-81038716D01*
X145236440Y-81036000D01*
X145695160Y-81036000D01*
X145722738Y-81038716D01*
G37*
G36*
X163646909Y-63948081D02*
G01*
X165275887Y-64622826D01*
X165762352Y-64947872D01*
X166741930Y-65602404D01*
X167988696Y-66849170D01*
X168643228Y-67828748D01*
X168968274Y-68315213D01*
X169643019Y-69944191D01*
X169987000Y-71673502D01*
X169987000Y-73436698D01*
X169643019Y-75166009D01*
X168968274Y-76794987D01*
X168968273Y-76794988D01*
X167988696Y-78261030D01*
X166741930Y-79507796D01*
X165762352Y-80162328D01*
X165275887Y-80487374D01*
X163646909Y-81162119D01*
X161917598Y-81506100D01*
X160154402Y-81506100D01*
X158425091Y-81162119D01*
X156796113Y-80487374D01*
X156309648Y-80162328D01*
X155330070Y-79507796D01*
X154083304Y-78261030D01*
X153103727Y-76794988D01*
X153103726Y-76794987D01*
X152428981Y-75166009D01*
X152085000Y-73436698D01*
X152085000Y-71673502D01*
X152428981Y-69944191D01*
X153103726Y-68315213D01*
X153428772Y-67828748D01*
X154083304Y-66849170D01*
X155330070Y-65602404D01*
X156309648Y-64947872D01*
X156796113Y-64622826D01*
X158425091Y-63948081D01*
X160154402Y-63604100D01*
X161917598Y-63604100D01*
X163646909Y-63948081D01*
G37*
G36*
X149700238Y-77495416D02*
G01*
X149720857Y-77501671D01*
X149739853Y-77511824D01*
X149756508Y-77525492D01*
X149770176Y-77542147D01*
X149780329Y-77561143D01*
X149786584Y-77581762D01*
X149789300Y-77609340D01*
X149789300Y-78118060D01*
X149786584Y-78145638D01*
X149780329Y-78166257D01*
X149770176Y-78185253D01*
X149756508Y-78201908D01*
X149739853Y-78215576D01*
X149720857Y-78225729D01*
X149700238Y-78231984D01*
X149672660Y-78234700D01*
X149213940Y-78234700D01*
X149186362Y-78231984D01*
X149165743Y-78225729D01*
X149146747Y-78215576D01*
X149130092Y-78201908D01*
X149116424Y-78185253D01*
X149106271Y-78166257D01*
X149100016Y-78145638D01*
X149097300Y-78118060D01*
X149097300Y-77609340D01*
X149100016Y-77581762D01*
X149106271Y-77561143D01*
X149116424Y-77542147D01*
X149130092Y-77525492D01*
X149146747Y-77511824D01*
X149165743Y-77501671D01*
X149186362Y-77495416D01*
X149213940Y-77492700D01*
X149672660Y-77492700D01*
X149700238Y-77495416D01*
G37*
G36*
X148730238Y-77495416D02*
G01*
X148750857Y-77501671D01*
X148769853Y-77511824D01*
X148786508Y-77525492D01*
X148800176Y-77542147D01*
X148810329Y-77561143D01*
X148816584Y-77581762D01*
X148819300Y-77609340D01*
X148819300Y-78118060D01*
X148816584Y-78145638D01*
X148810329Y-78166257D01*
X148800176Y-78185253D01*
X148786508Y-78201908D01*
X148769853Y-78215576D01*
X148750857Y-78225729D01*
X148730238Y-78231984D01*
X148702660Y-78234700D01*
X148243940Y-78234700D01*
X148216362Y-78231984D01*
X148195743Y-78225729D01*
X148176747Y-78215576D01*
X148160092Y-78201908D01*
X148146424Y-78185253D01*
X148136271Y-78166257D01*
X148130016Y-78145638D01*
X148127300Y-78118060D01*
X148127300Y-77609340D01*
X148130016Y-77581762D01*
X148136271Y-77561143D01*
X148146424Y-77542147D01*
X148160092Y-77525492D01*
X148176747Y-77511824D01*
X148195743Y-77501671D01*
X148216362Y-77495416D01*
X148243940Y-77492700D01*
X148702660Y-77492700D01*
X148730238Y-77495416D01*
G37*
G36*
X150482000Y-75386100D02*
G01*
X147780000Y-75386100D01*
X147780000Y-69724100D01*
X150482000Y-69724100D01*
X150482000Y-75386100D01*
G37*
G36*
X174292000Y-75386100D02*
G01*
X171590000Y-75386100D01*
X171590000Y-69724100D01*
X174292000Y-69724100D01*
X174292000Y-75386100D01*
G37*
G36*
X125013056Y-62081798D02*
G01*
X125119379Y-62102947D01*
X125419842Y-62227403D01*
X125690251Y-62408085D01*
X125920215Y-62638049D01*
X126100897Y-62908458D01*
X126225353Y-63208921D01*
X126288800Y-63527891D01*
X126288800Y-63853109D01*
X126225353Y-64172079D01*
X126100897Y-64472542D01*
X125920215Y-64742951D01*
X125690251Y-64972915D01*
X125419842Y-65153597D01*
X125119379Y-65278053D01*
X125013056Y-65299202D01*
X124800411Y-65341500D01*
X124475189Y-65341500D01*
X124262544Y-65299202D01*
X124156221Y-65278053D01*
X123855758Y-65153597D01*
X123585349Y-64972915D01*
X123355385Y-64742951D01*
X123174703Y-64472542D01*
X123050247Y-64172079D01*
X122986800Y-63853109D01*
X122986800Y-63527891D01*
X123050247Y-63208921D01*
X123174703Y-62908458D01*
X123355385Y-62638049D01*
X123585349Y-62408085D01*
X123855758Y-62227403D01*
X124156221Y-62102947D01*
X124262544Y-62081798D01*
X124475189Y-62039500D01*
X124800411Y-62039500D01*
X125013056Y-62081798D01*
G37*
G36*
X176866343Y-60733214D02*
G01*
X176866346Y-60733215D01*
X176866345Y-60733215D01*
X176957339Y-60770906D01*
X176998563Y-60798451D01*
X177039230Y-60825624D01*
X177108876Y-60895270D01*
X177163595Y-60977163D01*
X177201286Y-61068157D01*
X177220500Y-61164753D01*
X177220500Y-61263247D01*
X177201286Y-61359843D01*
X177201285Y-61359845D01*
X177163594Y-61450839D01*
X177108875Y-61532731D01*
X177039231Y-61602375D01*
X176957339Y-61657094D01*
X176957338Y-61657095D01*
X176957337Y-61657095D01*
X176866343Y-61694786D01*
X176769747Y-61714000D01*
X176671253Y-61714000D01*
X176574657Y-61694786D01*
X176483663Y-61657095D01*
X176483662Y-61657095D01*
X176483661Y-61657094D01*
X176401769Y-61602375D01*
X176332125Y-61532731D01*
X176277406Y-61450839D01*
X176239715Y-61359845D01*
X176239714Y-61359843D01*
X176220500Y-61263247D01*
X176220500Y-61164753D01*
X176239714Y-61068157D01*
X176277405Y-60977163D01*
X176332124Y-60895270D01*
X176401770Y-60825624D01*
X176442437Y-60798451D01*
X176483661Y-60770906D01*
X176574655Y-60733215D01*
X176574654Y-60733215D01*
X176574657Y-60733214D01*
X176671253Y-60714000D01*
X176769747Y-60714000D01*
X176866343Y-60733214D01*
G37*
M02*
