G04 #@! TF.GenerationSoftware,KiCad,Pcbnew,(5.1.5)-3*
G04 #@! TF.CreationDate,2020-02-29T16:38:02-03:00*
G04 #@! TF.ProjectId,BKR01AT,424b5230-3141-4542-9e6b-696361645f70,rev?*
G04 #@! TF.SameCoordinates,Original*
G04 #@! TF.FileFunction,Legend,Bot*
G04 #@! TF.FilePolarity,Positive*
%FSLAX46Y46*%
G04 Gerber Fmt 4.6, Leading zero omitted, Abs format (unit mm)*
G04 Created by KiCad (PCBNEW (5.1.5)-3) date 2020-02-29 16:38:02*
%MOMM*%
%LPD*%
G04 APERTURE LIST*
%ADD10C,0.010000*%
G04 APERTURE END LIST*
D10*
G36*
X136527167Y-68485474D02*
G01*
X137114259Y-68482743D01*
X137559176Y-68474640D01*
X137889048Y-68459014D01*
X138131003Y-68433717D01*
X138312170Y-68396599D01*
X138459677Y-68345509D01*
X138496393Y-68329431D01*
X138881844Y-68078796D01*
X139216412Y-67723484D01*
X139446252Y-67322851D01*
X139470784Y-67255273D01*
X139529534Y-66920754D01*
X139523079Y-66533090D01*
X139458062Y-66165592D01*
X139348190Y-65902055D01*
X139267598Y-65750280D01*
X139294788Y-65654046D01*
X139351657Y-65600928D01*
X139565020Y-65333026D01*
X139722265Y-64956088D01*
X139802199Y-64526773D01*
X139808000Y-64381000D01*
X139736632Y-63835955D01*
X139520348Y-63375862D01*
X139155878Y-62995517D01*
X138792000Y-62763991D01*
X138665777Y-62708823D01*
X138509815Y-62667496D01*
X138298005Y-62637704D01*
X138004238Y-62617142D01*
X137602407Y-62603504D01*
X137066402Y-62594484D01*
X136844667Y-62592016D01*
X136321125Y-62588817D01*
X135845971Y-62589924D01*
X135448951Y-62594947D01*
X135159812Y-62603499D01*
X135008298Y-62615191D01*
X135003912Y-62616053D01*
X134884028Y-62648313D01*
X134787823Y-62699544D01*
X134712698Y-62787077D01*
X134656052Y-62928246D01*
X134615288Y-63140383D01*
X134587805Y-63440819D01*
X134571005Y-63846888D01*
X134562289Y-64375920D01*
X134559608Y-64931333D01*
X135744000Y-64931333D01*
X135744000Y-63830666D01*
X137028500Y-63830666D01*
X137539053Y-63833385D01*
X137907499Y-63843305D01*
X138161003Y-63863070D01*
X138326728Y-63895325D01*
X138431841Y-63942715D01*
X138467833Y-63970789D01*
X138597736Y-64186295D01*
X138619386Y-64450717D01*
X138535639Y-64693119D01*
X138434495Y-64799532D01*
X138322488Y-64853631D01*
X138148653Y-64891394D01*
X137886050Y-64915287D01*
X137507741Y-64927777D01*
X136995161Y-64931333D01*
X135744000Y-64931333D01*
X134559608Y-64931333D01*
X134559058Y-65045249D01*
X134558667Y-65585172D01*
X134559134Y-66312739D01*
X134561318Y-66889940D01*
X134566009Y-67302000D01*
X135744000Y-67302000D01*
X135744000Y-66103547D01*
X136894676Y-66131273D01*
X137358733Y-66144059D01*
X137683940Y-66159740D01*
X137900761Y-66183599D01*
X138039661Y-66220922D01*
X138131105Y-66276990D01*
X138205559Y-66357089D01*
X138207009Y-66358880D01*
X138348995Y-66621250D01*
X138325695Y-66867636D01*
X138160849Y-67094182D01*
X138067578Y-67179137D01*
X137966442Y-67237109D01*
X137824971Y-67273239D01*
X137610692Y-67292670D01*
X137291136Y-67300542D01*
X136848515Y-67302000D01*
X135744000Y-67302000D01*
X134566009Y-67302000D01*
X134566394Y-67335744D01*
X134575538Y-67669116D01*
X134589925Y-67909026D01*
X134610730Y-68074439D01*
X134639129Y-68184323D01*
X134676296Y-68257646D01*
X134723407Y-68313374D01*
X134728000Y-68318000D01*
X134797317Y-68376811D01*
X134887109Y-68420166D01*
X135022058Y-68450361D01*
X135226842Y-68469694D01*
X135526141Y-68480463D01*
X135944635Y-68484965D01*
X136507003Y-68485496D01*
X136527167Y-68485474D01*
G37*
X136527167Y-68485474D02*
X137114259Y-68482743D01*
X137559176Y-68474640D01*
X137889048Y-68459014D01*
X138131003Y-68433717D01*
X138312170Y-68396599D01*
X138459677Y-68345509D01*
X138496393Y-68329431D01*
X138881844Y-68078796D01*
X139216412Y-67723484D01*
X139446252Y-67322851D01*
X139470784Y-67255273D01*
X139529534Y-66920754D01*
X139523079Y-66533090D01*
X139458062Y-66165592D01*
X139348190Y-65902055D01*
X139267598Y-65750280D01*
X139294788Y-65654046D01*
X139351657Y-65600928D01*
X139565020Y-65333026D01*
X139722265Y-64956088D01*
X139802199Y-64526773D01*
X139808000Y-64381000D01*
X139736632Y-63835955D01*
X139520348Y-63375862D01*
X139155878Y-62995517D01*
X138792000Y-62763991D01*
X138665777Y-62708823D01*
X138509815Y-62667496D01*
X138298005Y-62637704D01*
X138004238Y-62617142D01*
X137602407Y-62603504D01*
X137066402Y-62594484D01*
X136844667Y-62592016D01*
X136321125Y-62588817D01*
X135845971Y-62589924D01*
X135448951Y-62594947D01*
X135159812Y-62603499D01*
X135008298Y-62615191D01*
X135003912Y-62616053D01*
X134884028Y-62648313D01*
X134787823Y-62699544D01*
X134712698Y-62787077D01*
X134656052Y-62928246D01*
X134615288Y-63140383D01*
X134587805Y-63440819D01*
X134571005Y-63846888D01*
X134562289Y-64375920D01*
X134559608Y-64931333D01*
X135744000Y-64931333D01*
X135744000Y-63830666D01*
X137028500Y-63830666D01*
X137539053Y-63833385D01*
X137907499Y-63843305D01*
X138161003Y-63863070D01*
X138326728Y-63895325D01*
X138431841Y-63942715D01*
X138467833Y-63970789D01*
X138597736Y-64186295D01*
X138619386Y-64450717D01*
X138535639Y-64693119D01*
X138434495Y-64799532D01*
X138322488Y-64853631D01*
X138148653Y-64891394D01*
X137886050Y-64915287D01*
X137507741Y-64927777D01*
X136995161Y-64931333D01*
X135744000Y-64931333D01*
X134559608Y-64931333D01*
X134559058Y-65045249D01*
X134558667Y-65585172D01*
X134559134Y-66312739D01*
X134561318Y-66889940D01*
X134566009Y-67302000D01*
X135744000Y-67302000D01*
X135744000Y-66103547D01*
X136894676Y-66131273D01*
X137358733Y-66144059D01*
X137683940Y-66159740D01*
X137900761Y-66183599D01*
X138039661Y-66220922D01*
X138131105Y-66276990D01*
X138205559Y-66357089D01*
X138207009Y-66358880D01*
X138348995Y-66621250D01*
X138325695Y-66867636D01*
X138160849Y-67094182D01*
X138067578Y-67179137D01*
X137966442Y-67237109D01*
X137824971Y-67273239D01*
X137610692Y-67292670D01*
X137291136Y-67300542D01*
X136848515Y-67302000D01*
X135744000Y-67302000D01*
X134566009Y-67302000D01*
X134566394Y-67335744D01*
X134575538Y-67669116D01*
X134589925Y-67909026D01*
X134610730Y-68074439D01*
X134639129Y-68184323D01*
X134676296Y-68257646D01*
X134723407Y-68313374D01*
X134728000Y-68318000D01*
X134797317Y-68376811D01*
X134887109Y-68420166D01*
X135022058Y-68450361D01*
X135226842Y-68469694D01*
X135526141Y-68480463D01*
X135944635Y-68484965D01*
X136507003Y-68485496D01*
X136527167Y-68485474D01*
G36*
X142459979Y-68485474D02*
G01*
X143075019Y-68483139D01*
X143546168Y-68476336D01*
X143898846Y-68463205D01*
X144158476Y-68441886D01*
X144350480Y-68410518D01*
X144500278Y-68367241D01*
X144592393Y-68329431D01*
X145013848Y-68052340D01*
X145348891Y-67662883D01*
X145569970Y-67203029D01*
X145649528Y-66719156D01*
X145585884Y-66319988D01*
X145412935Y-65914220D01*
X145160340Y-65543767D01*
X144857756Y-65250541D01*
X144534840Y-65076456D01*
X144476143Y-65060854D01*
X144293822Y-65006723D01*
X144211111Y-64954350D01*
X144210667Y-64951282D01*
X144266518Y-64874459D01*
X144418729Y-64702694D01*
X144644288Y-64461141D01*
X144920181Y-64174958D01*
X144930334Y-64164578D01*
X145283405Y-63788380D01*
X145514581Y-63497338D01*
X145632915Y-63269245D01*
X145647460Y-63081895D01*
X145567268Y-62913083D01*
X145480667Y-62814666D01*
X145257191Y-62664210D01*
X144975696Y-62632746D01*
X144888000Y-62641292D01*
X144790474Y-62703716D01*
X144595051Y-62867850D01*
X144322629Y-63114736D01*
X143994109Y-63425415D01*
X143630390Y-63780929D01*
X143616904Y-63794323D01*
X142472808Y-64931333D01*
X141501334Y-64931333D01*
X141501334Y-63928455D01*
X141497836Y-63487685D01*
X141484612Y-63184905D01*
X141457565Y-62988866D01*
X141412598Y-62868318D01*
X141353167Y-62798325D01*
X141102088Y-62641692D01*
X140848730Y-62628447D01*
X140730400Y-62660783D01*
X140617182Y-62708672D01*
X140526617Y-62778762D01*
X140456194Y-62888868D01*
X140403404Y-63056801D01*
X140365736Y-63300375D01*
X140340679Y-63637402D01*
X140325722Y-64085696D01*
X140318357Y-64663069D01*
X140316072Y-65387335D01*
X140316000Y-65601232D01*
X140316491Y-66309449D01*
X140318841Y-66868273D01*
X140324362Y-67297647D01*
X140324498Y-67302000D01*
X141501334Y-67302000D01*
X141501334Y-66765778D01*
X141509638Y-66478366D01*
X141531279Y-66262787D01*
X141557778Y-66173111D01*
X141658960Y-66152288D01*
X141896391Y-66134929D01*
X142236998Y-66122604D01*
X142647708Y-66116883D01*
X142747316Y-66116666D01*
X143281356Y-66123108D01*
X143670851Y-66143900D01*
X143940153Y-66181243D01*
X144113615Y-66237336D01*
X144120284Y-66240711D01*
X144339069Y-66433170D01*
X144427680Y-66684023D01*
X144385643Y-66943625D01*
X144212481Y-67162329D01*
X144129626Y-67215393D01*
X143989645Y-67246397D01*
X143715422Y-67272482D01*
X143342027Y-67291473D01*
X142904529Y-67301190D01*
X142734566Y-67302000D01*
X141501334Y-67302000D01*
X140324498Y-67302000D01*
X140334370Y-67617511D01*
X140350178Y-67847806D01*
X140373100Y-68008472D01*
X140404451Y-68119450D01*
X140445543Y-68200682D01*
X140491479Y-68264248D01*
X140666957Y-68487333D01*
X142459979Y-68485474D01*
G37*
X142459979Y-68485474D02*
X143075019Y-68483139D01*
X143546168Y-68476336D01*
X143898846Y-68463205D01*
X144158476Y-68441886D01*
X144350480Y-68410518D01*
X144500278Y-68367241D01*
X144592393Y-68329431D01*
X145013848Y-68052340D01*
X145348891Y-67662883D01*
X145569970Y-67203029D01*
X145649528Y-66719156D01*
X145585884Y-66319988D01*
X145412935Y-65914220D01*
X145160340Y-65543767D01*
X144857756Y-65250541D01*
X144534840Y-65076456D01*
X144476143Y-65060854D01*
X144293822Y-65006723D01*
X144211111Y-64954350D01*
X144210667Y-64951282D01*
X144266518Y-64874459D01*
X144418729Y-64702694D01*
X144644288Y-64461141D01*
X144920181Y-64174958D01*
X144930334Y-64164578D01*
X145283405Y-63788380D01*
X145514581Y-63497338D01*
X145632915Y-63269245D01*
X145647460Y-63081895D01*
X145567268Y-62913083D01*
X145480667Y-62814666D01*
X145257191Y-62664210D01*
X144975696Y-62632746D01*
X144888000Y-62641292D01*
X144790474Y-62703716D01*
X144595051Y-62867850D01*
X144322629Y-63114736D01*
X143994109Y-63425415D01*
X143630390Y-63780929D01*
X143616904Y-63794323D01*
X142472808Y-64931333D01*
X141501334Y-64931333D01*
X141501334Y-63928455D01*
X141497836Y-63487685D01*
X141484612Y-63184905D01*
X141457565Y-62988866D01*
X141412598Y-62868318D01*
X141353167Y-62798325D01*
X141102088Y-62641692D01*
X140848730Y-62628447D01*
X140730400Y-62660783D01*
X140617182Y-62708672D01*
X140526617Y-62778762D01*
X140456194Y-62888868D01*
X140403404Y-63056801D01*
X140365736Y-63300375D01*
X140340679Y-63637402D01*
X140325722Y-64085696D01*
X140318357Y-64663069D01*
X140316072Y-65387335D01*
X140316000Y-65601232D01*
X140316491Y-66309449D01*
X140318841Y-66868273D01*
X140324362Y-67297647D01*
X140324498Y-67302000D01*
X141501334Y-67302000D01*
X141501334Y-66765778D01*
X141509638Y-66478366D01*
X141531279Y-66262787D01*
X141557778Y-66173111D01*
X141658960Y-66152288D01*
X141896391Y-66134929D01*
X142236998Y-66122604D01*
X142647708Y-66116883D01*
X142747316Y-66116666D01*
X143281356Y-66123108D01*
X143670851Y-66143900D01*
X143940153Y-66181243D01*
X144113615Y-66237336D01*
X144120284Y-66240711D01*
X144339069Y-66433170D01*
X144427680Y-66684023D01*
X144385643Y-66943625D01*
X144212481Y-67162329D01*
X144129626Y-67215393D01*
X143989645Y-67246397D01*
X143715422Y-67272482D01*
X143342027Y-67291473D01*
X142904529Y-67301190D01*
X142734566Y-67302000D01*
X141501334Y-67302000D01*
X140324498Y-67302000D01*
X140334370Y-67617511D01*
X140350178Y-67847806D01*
X140373100Y-68008472D01*
X140404451Y-68119450D01*
X140445543Y-68200682D01*
X140491479Y-68264248D01*
X140666957Y-68487333D01*
X142459979Y-68485474D01*
G36*
X149496778Y-68396350D02*
G01*
X150047593Y-68183728D01*
X150552827Y-67844017D01*
X150990151Y-67377363D01*
X151250190Y-66963333D01*
X151317454Y-66825780D01*
X151368249Y-66687445D01*
X151405377Y-66521865D01*
X151431637Y-66302575D01*
X151449832Y-66003110D01*
X151462762Y-65597006D01*
X151473227Y-65057798D01*
X151477023Y-64820085D01*
X151484907Y-64157147D01*
X151482073Y-63644287D01*
X151463456Y-63262345D01*
X151423991Y-62992161D01*
X151358614Y-62814573D01*
X151262261Y-62710421D01*
X151129866Y-62660545D01*
X150956365Y-62645784D01*
X150902183Y-62645333D01*
X150645788Y-62677020D01*
X150471618Y-62787683D01*
X150366205Y-63000725D01*
X150316082Y-63339547D01*
X150306667Y-63680172D01*
X150306667Y-64338666D01*
X147428000Y-64338666D01*
X147428000Y-63715085D01*
X147417074Y-63351624D01*
X147377776Y-63107586D01*
X147300327Y-62934086D01*
X147260709Y-62878827D01*
X147016641Y-62665098D01*
X146751624Y-62619078D01*
X146568983Y-62677964D01*
X146431211Y-62760633D01*
X146327495Y-62868056D01*
X146253665Y-63022966D01*
X146205548Y-63248095D01*
X146178974Y-63566176D01*
X146169770Y-63999942D01*
X146173765Y-64572125D01*
X146177540Y-64811099D01*
X146196442Y-65913371D01*
X147428000Y-65913371D01*
X147428000Y-65608666D01*
X148867334Y-65608666D01*
X149391259Y-65609213D01*
X149769556Y-65612945D01*
X150025925Y-65622999D01*
X150184072Y-65642516D01*
X150267699Y-65674632D01*
X150300510Y-65722487D01*
X150306208Y-65789218D01*
X150306195Y-65799166D01*
X150232343Y-66230025D01*
X150033427Y-66633088D01*
X149740192Y-66968840D01*
X149383385Y-67197767D01*
X149165724Y-67264867D01*
X148693809Y-67278388D01*
X148258362Y-67153178D01*
X147887557Y-66911149D01*
X147609568Y-66574214D01*
X147452571Y-66164284D01*
X147428000Y-65913371D01*
X146196442Y-65913371D01*
X146205242Y-66426532D01*
X146485053Y-66994908D01*
X146840468Y-67547932D01*
X147284269Y-67972979D01*
X147794128Y-68270196D01*
X148347718Y-68439732D01*
X148922711Y-68481733D01*
X149496778Y-68396350D01*
G37*
X149496778Y-68396350D02*
X150047593Y-68183728D01*
X150552827Y-67844017D01*
X150990151Y-67377363D01*
X151250190Y-66963333D01*
X151317454Y-66825780D01*
X151368249Y-66687445D01*
X151405377Y-66521865D01*
X151431637Y-66302575D01*
X151449832Y-66003110D01*
X151462762Y-65597006D01*
X151473227Y-65057798D01*
X151477023Y-64820085D01*
X151484907Y-64157147D01*
X151482073Y-63644287D01*
X151463456Y-63262345D01*
X151423991Y-62992161D01*
X151358614Y-62814573D01*
X151262261Y-62710421D01*
X151129866Y-62660545D01*
X150956365Y-62645784D01*
X150902183Y-62645333D01*
X150645788Y-62677020D01*
X150471618Y-62787683D01*
X150366205Y-63000725D01*
X150316082Y-63339547D01*
X150306667Y-63680172D01*
X150306667Y-64338666D01*
X147428000Y-64338666D01*
X147428000Y-63715085D01*
X147417074Y-63351624D01*
X147377776Y-63107586D01*
X147300327Y-62934086D01*
X147260709Y-62878827D01*
X147016641Y-62665098D01*
X146751624Y-62619078D01*
X146568983Y-62677964D01*
X146431211Y-62760633D01*
X146327495Y-62868056D01*
X146253665Y-63022966D01*
X146205548Y-63248095D01*
X146178974Y-63566176D01*
X146169770Y-63999942D01*
X146173765Y-64572125D01*
X146177540Y-64811099D01*
X146196442Y-65913371D01*
X147428000Y-65913371D01*
X147428000Y-65608666D01*
X148867334Y-65608666D01*
X149391259Y-65609213D01*
X149769556Y-65612945D01*
X150025925Y-65622999D01*
X150184072Y-65642516D01*
X150267699Y-65674632D01*
X150300510Y-65722487D01*
X150306208Y-65789218D01*
X150306195Y-65799166D01*
X150232343Y-66230025D01*
X150033427Y-66633088D01*
X149740192Y-66968840D01*
X149383385Y-67197767D01*
X149165724Y-67264867D01*
X148693809Y-67278388D01*
X148258362Y-67153178D01*
X147887557Y-66911149D01*
X147609568Y-66574214D01*
X147452571Y-66164284D01*
X147428000Y-65913371D01*
X146196442Y-65913371D01*
X146205242Y-66426532D01*
X146485053Y-66994908D01*
X146840468Y-67547932D01*
X147284269Y-67972979D01*
X147794128Y-68270196D01*
X148347718Y-68439732D01*
X148922711Y-68481733D01*
X149496778Y-68396350D01*
G36*
X156900848Y-68268918D02*
G01*
X157053473Y-67998678D01*
X157046464Y-67757882D01*
X156878684Y-67516364D01*
X156872182Y-67509818D01*
X156793052Y-67435680D01*
X156708606Y-67381673D01*
X156592464Y-67344608D01*
X156418244Y-67321297D01*
X156159565Y-67308553D01*
X155790048Y-67303188D01*
X155283310Y-67302013D01*
X155152480Y-67302000D01*
X154608115Y-67300748D01*
X154206964Y-67295224D01*
X153922913Y-67282770D01*
X153729852Y-67260730D01*
X153601668Y-67226449D01*
X153512249Y-67177270D01*
X153455298Y-67129368D01*
X153302054Y-66886698D01*
X153285727Y-66611090D01*
X153406854Y-66362014D01*
X153447981Y-66320289D01*
X153538515Y-66256327D01*
X153666363Y-66209195D01*
X153859851Y-66174944D01*
X154147305Y-66149624D01*
X154557053Y-66129286D01*
X154908481Y-66116666D01*
X155473115Y-66092889D01*
X155898990Y-66058701D01*
X156216662Y-66006030D01*
X156456689Y-65926804D01*
X156649629Y-65812950D01*
X156826039Y-65656396D01*
X156885459Y-65594389D01*
X157156074Y-65190500D01*
X157302096Y-64719866D01*
X157324704Y-64223117D01*
X157225079Y-63740884D01*
X157004398Y-63313798D01*
X156813073Y-63099737D01*
X156628263Y-62941533D01*
X156449842Y-62821092D01*
X156251140Y-62732907D01*
X156005488Y-62671473D01*
X155686216Y-62631286D01*
X155266655Y-62606840D01*
X154720134Y-62592630D01*
X154328334Y-62586831D01*
X153803473Y-62582688D01*
X153331894Y-62583774D01*
X152941532Y-62589636D01*
X152660322Y-62599821D01*
X152516198Y-62613877D01*
X152508000Y-62616343D01*
X152243704Y-62794648D01*
X152101410Y-63041370D01*
X152089421Y-63313433D01*
X152216042Y-63567762D01*
X152307752Y-63655188D01*
X152394375Y-63715422D01*
X152496036Y-63760075D01*
X152637796Y-63791464D01*
X152844715Y-63811901D01*
X153141855Y-63823701D01*
X153554275Y-63829179D01*
X154107039Y-63830649D01*
X154207951Y-63830666D01*
X154780755Y-63831317D01*
X155207968Y-63834913D01*
X155513329Y-63843926D01*
X155720579Y-63860824D01*
X155853459Y-63888078D01*
X155935708Y-63928157D01*
X155991069Y-63983530D01*
X156016866Y-64018839D01*
X156137077Y-64310043D01*
X156098730Y-64590533D01*
X155979334Y-64762000D01*
X155892528Y-64832742D01*
X155778005Y-64880707D01*
X155603883Y-64910232D01*
X155338279Y-64925651D01*
X154949311Y-64931298D01*
X154730500Y-64931805D01*
X154144584Y-64940543D01*
X153695544Y-64970806D01*
X153351555Y-65029544D01*
X153080787Y-65123706D01*
X152851415Y-65260242D01*
X152712364Y-65372436D01*
X152356296Y-65786088D01*
X152145183Y-66254418D01*
X152077770Y-66748392D01*
X152152800Y-67238976D01*
X152369017Y-67697136D01*
X152725167Y-68093839D01*
X152833744Y-68178433D01*
X153201459Y-68445000D01*
X154961578Y-68470836D01*
X156721697Y-68496673D01*
X156900848Y-68268918D01*
G37*
X156900848Y-68268918D02*
X157053473Y-67998678D01*
X157046464Y-67757882D01*
X156878684Y-67516364D01*
X156872182Y-67509818D01*
X156793052Y-67435680D01*
X156708606Y-67381673D01*
X156592464Y-67344608D01*
X156418244Y-67321297D01*
X156159565Y-67308553D01*
X155790048Y-67303188D01*
X155283310Y-67302013D01*
X155152480Y-67302000D01*
X154608115Y-67300748D01*
X154206964Y-67295224D01*
X153922913Y-67282770D01*
X153729852Y-67260730D01*
X153601668Y-67226449D01*
X153512249Y-67177270D01*
X153455298Y-67129368D01*
X153302054Y-66886698D01*
X153285727Y-66611090D01*
X153406854Y-66362014D01*
X153447981Y-66320289D01*
X153538515Y-66256327D01*
X153666363Y-66209195D01*
X153859851Y-66174944D01*
X154147305Y-66149624D01*
X154557053Y-66129286D01*
X154908481Y-66116666D01*
X155473115Y-66092889D01*
X155898990Y-66058701D01*
X156216662Y-66006030D01*
X156456689Y-65926804D01*
X156649629Y-65812950D01*
X156826039Y-65656396D01*
X156885459Y-65594389D01*
X157156074Y-65190500D01*
X157302096Y-64719866D01*
X157324704Y-64223117D01*
X157225079Y-63740884D01*
X157004398Y-63313798D01*
X156813073Y-63099737D01*
X156628263Y-62941533D01*
X156449842Y-62821092D01*
X156251140Y-62732907D01*
X156005488Y-62671473D01*
X155686216Y-62631286D01*
X155266655Y-62606840D01*
X154720134Y-62592630D01*
X154328334Y-62586831D01*
X153803473Y-62582688D01*
X153331894Y-62583774D01*
X152941532Y-62589636D01*
X152660322Y-62599821D01*
X152516198Y-62613877D01*
X152508000Y-62616343D01*
X152243704Y-62794648D01*
X152101410Y-63041370D01*
X152089421Y-63313433D01*
X152216042Y-63567762D01*
X152307752Y-63655188D01*
X152394375Y-63715422D01*
X152496036Y-63760075D01*
X152637796Y-63791464D01*
X152844715Y-63811901D01*
X153141855Y-63823701D01*
X153554275Y-63829179D01*
X154107039Y-63830649D01*
X154207951Y-63830666D01*
X154780755Y-63831317D01*
X155207968Y-63834913D01*
X155513329Y-63843926D01*
X155720579Y-63860824D01*
X155853459Y-63888078D01*
X155935708Y-63928157D01*
X155991069Y-63983530D01*
X156016866Y-64018839D01*
X156137077Y-64310043D01*
X156098730Y-64590533D01*
X155979334Y-64762000D01*
X155892528Y-64832742D01*
X155778005Y-64880707D01*
X155603883Y-64910232D01*
X155338279Y-64925651D01*
X154949311Y-64931298D01*
X154730500Y-64931805D01*
X154144584Y-64940543D01*
X153695544Y-64970806D01*
X153351555Y-65029544D01*
X153080787Y-65123706D01*
X152851415Y-65260242D01*
X152712364Y-65372436D01*
X152356296Y-65786088D01*
X152145183Y-66254418D01*
X152077770Y-66748392D01*
X152152800Y-67238976D01*
X152369017Y-67697136D01*
X152725167Y-68093839D01*
X152833744Y-68178433D01*
X153201459Y-68445000D01*
X154961578Y-68470836D01*
X156721697Y-68496673D01*
X156900848Y-68268918D01*
G36*
X163328027Y-68411892D02*
G01*
X163547271Y-68221458D01*
X163672331Y-67969865D01*
X163684000Y-67869358D01*
X163623115Y-67741764D01*
X163447555Y-67512780D01*
X163167968Y-67194895D01*
X162794998Y-66800600D01*
X162627001Y-66629288D01*
X161570001Y-65561025D01*
X162585534Y-64548138D01*
X162925705Y-64202813D01*
X163223417Y-63889160D01*
X163457523Y-63630370D01*
X163606879Y-63449635D01*
X163650220Y-63380384D01*
X163655929Y-63115833D01*
X163531175Y-62875598D01*
X163314179Y-62698859D01*
X163043156Y-62624796D01*
X162922000Y-62633810D01*
X162822544Y-62698908D01*
X162626545Y-62864513D01*
X162356271Y-63110474D01*
X162033988Y-63416643D01*
X161757834Y-63687262D01*
X160720667Y-64717125D01*
X159683500Y-63692583D01*
X159335148Y-63353183D01*
X159021457Y-63056366D01*
X158764850Y-62822658D01*
X158587747Y-62672584D01*
X158519334Y-62626826D01*
X158347136Y-62621719D01*
X158171734Y-62660783D01*
X158058516Y-62708672D01*
X157967950Y-62778762D01*
X157897528Y-62888868D01*
X157844737Y-63056801D01*
X157807069Y-63300375D01*
X157782012Y-63637402D01*
X157767056Y-64085696D01*
X157759690Y-64663069D01*
X157757405Y-65387335D01*
X157757334Y-65601232D01*
X157757825Y-66309449D01*
X157760174Y-66868273D01*
X157765696Y-67297647D01*
X157775703Y-67617511D01*
X157791511Y-67847806D01*
X157814434Y-68008472D01*
X157845784Y-68119450D01*
X157886877Y-68200682D01*
X157932812Y-68264248D01*
X158168025Y-68444375D01*
X158444708Y-68481701D01*
X158710336Y-68372867D01*
X158773334Y-68318000D01*
X158830264Y-68251182D01*
X158872813Y-68164613D01*
X158903058Y-68034676D01*
X158923080Y-67837753D01*
X158934955Y-67550227D01*
X158940765Y-67148481D01*
X158942586Y-66608897D01*
X158942667Y-66394271D01*
X158942667Y-64639876D01*
X160873051Y-66563605D01*
X161414595Y-67101656D01*
X161851160Y-67530748D01*
X162196352Y-67862804D01*
X162463772Y-68109745D01*
X162667027Y-68283492D01*
X162819719Y-68395968D01*
X162935453Y-68459094D01*
X163027833Y-68484792D01*
X163068239Y-68487333D01*
X163328027Y-68411892D01*
G37*
X163328027Y-68411892D02*
X163547271Y-68221458D01*
X163672331Y-67969865D01*
X163684000Y-67869358D01*
X163623115Y-67741764D01*
X163447555Y-67512780D01*
X163167968Y-67194895D01*
X162794998Y-66800600D01*
X162627001Y-66629288D01*
X161570001Y-65561025D01*
X162585534Y-64548138D01*
X162925705Y-64202813D01*
X163223417Y-63889160D01*
X163457523Y-63630370D01*
X163606879Y-63449635D01*
X163650220Y-63380384D01*
X163655929Y-63115833D01*
X163531175Y-62875598D01*
X163314179Y-62698859D01*
X163043156Y-62624796D01*
X162922000Y-62633810D01*
X162822544Y-62698908D01*
X162626545Y-62864513D01*
X162356271Y-63110474D01*
X162033988Y-63416643D01*
X161757834Y-63687262D01*
X160720667Y-64717125D01*
X159683500Y-63692583D01*
X159335148Y-63353183D01*
X159021457Y-63056366D01*
X158764850Y-62822658D01*
X158587747Y-62672584D01*
X158519334Y-62626826D01*
X158347136Y-62621719D01*
X158171734Y-62660783D01*
X158058516Y-62708672D01*
X157967950Y-62778762D01*
X157897528Y-62888868D01*
X157844737Y-63056801D01*
X157807069Y-63300375D01*
X157782012Y-63637402D01*
X157767056Y-64085696D01*
X157759690Y-64663069D01*
X157757405Y-65387335D01*
X157757334Y-65601232D01*
X157757825Y-66309449D01*
X157760174Y-66868273D01*
X157765696Y-67297647D01*
X157775703Y-67617511D01*
X157791511Y-67847806D01*
X157814434Y-68008472D01*
X157845784Y-68119450D01*
X157886877Y-68200682D01*
X157932812Y-68264248D01*
X158168025Y-68444375D01*
X158444708Y-68481701D01*
X158710336Y-68372867D01*
X158773334Y-68318000D01*
X158830264Y-68251182D01*
X158872813Y-68164613D01*
X158903058Y-68034676D01*
X158923080Y-67837753D01*
X158934955Y-67550227D01*
X158940765Y-67148481D01*
X158942586Y-66608897D01*
X158942667Y-66394271D01*
X158942667Y-64639876D01*
X160873051Y-66563605D01*
X161414595Y-67101656D01*
X161851160Y-67530748D01*
X162196352Y-67862804D01*
X162463772Y-68109745D01*
X162667027Y-68283492D01*
X162819719Y-68395968D01*
X162935453Y-68459094D01*
X163027833Y-68484792D01*
X163068239Y-68487333D01*
X163328027Y-68411892D01*
G36*
X167662742Y-68346701D02*
G01*
X167674778Y-68342902D01*
X167981641Y-68215693D01*
X168273431Y-68021548D01*
X168601890Y-67725316D01*
X168640735Y-67686735D01*
X168886229Y-67428883D01*
X169076051Y-67188801D01*
X169217263Y-66939652D01*
X169316926Y-66654599D01*
X169382103Y-66306802D01*
X169419854Y-65869425D01*
X169437243Y-65315630D01*
X169441334Y-64644116D01*
X169438621Y-64011508D01*
X169426536Y-63528219D01*
X169399154Y-63174272D01*
X169350550Y-62929686D01*
X169274801Y-62774485D01*
X169165983Y-62688689D01*
X169018173Y-62652319D01*
X168848667Y-62645333D01*
X168593348Y-62677341D01*
X168419891Y-62788902D01*
X168314948Y-63003320D01*
X168265173Y-63343902D01*
X168256000Y-63680172D01*
X168256000Y-64338666D01*
X165377334Y-64338666D01*
X165377334Y-63715085D01*
X165366407Y-63351624D01*
X165327110Y-63107586D01*
X165249660Y-62934086D01*
X165210043Y-62878827D01*
X164965863Y-62664123D01*
X164698849Y-62615681D01*
X164566903Y-62648498D01*
X164431855Y-62707278D01*
X164329535Y-62785349D01*
X164255449Y-62905006D01*
X164205106Y-63088542D01*
X164174011Y-63358249D01*
X164157673Y-63736421D01*
X164151598Y-64245352D01*
X164151062Y-64711905D01*
X164152284Y-65291621D01*
X164156826Y-65730280D01*
X164162728Y-65908373D01*
X165377334Y-65908373D01*
X165377334Y-65608666D01*
X168256000Y-65608666D01*
X168256000Y-65865386D01*
X168177613Y-66301741D01*
X167963451Y-66688574D01*
X167645015Y-66999985D01*
X167253804Y-67210077D01*
X166821320Y-67292951D01*
X166548217Y-67269477D01*
X166116136Y-67106341D01*
X165758859Y-66823173D01*
X165505135Y-66453391D01*
X165383710Y-66030410D01*
X165377334Y-65908373D01*
X164162728Y-65908373D01*
X164167626Y-66056162D01*
X164187620Y-66297542D01*
X164219745Y-66482699D01*
X164266940Y-66639909D01*
X164332140Y-66797451D01*
X164378061Y-66897322D01*
X164734623Y-67477309D01*
X165195504Y-67934189D01*
X165739730Y-68258765D01*
X166346327Y-68441840D01*
X166994323Y-68474218D01*
X167662742Y-68346701D01*
G37*
X167662742Y-68346701D02*
X167674778Y-68342902D01*
X167981641Y-68215693D01*
X168273431Y-68021548D01*
X168601890Y-67725316D01*
X168640735Y-67686735D01*
X168886229Y-67428883D01*
X169076051Y-67188801D01*
X169217263Y-66939652D01*
X169316926Y-66654599D01*
X169382103Y-66306802D01*
X169419854Y-65869425D01*
X169437243Y-65315630D01*
X169441334Y-64644116D01*
X169438621Y-64011508D01*
X169426536Y-63528219D01*
X169399154Y-63174272D01*
X169350550Y-62929686D01*
X169274801Y-62774485D01*
X169165983Y-62688689D01*
X169018173Y-62652319D01*
X168848667Y-62645333D01*
X168593348Y-62677341D01*
X168419891Y-62788902D01*
X168314948Y-63003320D01*
X168265173Y-63343902D01*
X168256000Y-63680172D01*
X168256000Y-64338666D01*
X165377334Y-64338666D01*
X165377334Y-63715085D01*
X165366407Y-63351624D01*
X165327110Y-63107586D01*
X165249660Y-62934086D01*
X165210043Y-62878827D01*
X164965863Y-62664123D01*
X164698849Y-62615681D01*
X164566903Y-62648498D01*
X164431855Y-62707278D01*
X164329535Y-62785349D01*
X164255449Y-62905006D01*
X164205106Y-63088542D01*
X164174011Y-63358249D01*
X164157673Y-63736421D01*
X164151598Y-64245352D01*
X164151062Y-64711905D01*
X164152284Y-65291621D01*
X164156826Y-65730280D01*
X164162728Y-65908373D01*
X165377334Y-65908373D01*
X165377334Y-65608666D01*
X168256000Y-65608666D01*
X168256000Y-65865386D01*
X168177613Y-66301741D01*
X167963451Y-66688574D01*
X167645015Y-66999985D01*
X167253804Y-67210077D01*
X166821320Y-67292951D01*
X166548217Y-67269477D01*
X166116136Y-67106341D01*
X165758859Y-66823173D01*
X165505135Y-66453391D01*
X165383710Y-66030410D01*
X165377334Y-65908373D01*
X164162728Y-65908373D01*
X164167626Y-66056162D01*
X164187620Y-66297542D01*
X164219745Y-66482699D01*
X164266940Y-66639909D01*
X164332140Y-66797451D01*
X164378061Y-66897322D01*
X164734623Y-67477309D01*
X165195504Y-67934189D01*
X165739730Y-68258765D01*
X166346327Y-68441840D01*
X166994323Y-68474218D01*
X167662742Y-68346701D01*
M02*
