G04 #@! TF.GenerationSoftware,KiCad,Pcbnew,(5.1.5)-3*
G04 #@! TF.CreationDate,2020-02-29T16:26:23-03:00*
G04 #@! TF.ProjectId,BKR01AT,424b5230-3141-4542-9e6b-696361645f70,rev?*
G04 #@! TF.SameCoordinates,Original*
G04 #@! TF.FileFunction,Legend,Top*
G04 #@! TF.FilePolarity,Positive*
%FSLAX46Y46*%
G04 Gerber Fmt 4.6, Leading zero omitted, Abs format (unit mm)*
G04 Created by KiCad (PCBNEW (5.1.5)-3) date 2020-02-29 16:26:23*
%MOMM*%
%LPD*%
G04 APERTURE LIST*
%ADD10C,0.120000*%
%ADD11C,0.010000*%
%ADD12C,0.127000*%
%ADD13C,0.150000*%
G04 APERTURE END LIST*
D10*
X136970800Y-92579500D02*
X136970800Y-91229500D01*
X138720800Y-92579500D02*
X138720800Y-91229500D01*
X158390600Y-90519900D02*
X161090600Y-90519900D01*
X158390600Y-88219900D02*
X158390600Y-90519900D01*
X149023000Y-84221300D02*
X148623000Y-84221300D01*
X150843000Y-86441300D02*
X150843000Y-86216300D01*
X150443000Y-86441300D02*
X150843000Y-86441300D01*
X148623000Y-86441300D02*
X148623000Y-86216300D01*
X149023000Y-86441300D02*
X148623000Y-86441300D01*
X150843000Y-84221300D02*
X150843000Y-84446300D01*
X150443000Y-84221300D02*
X150843000Y-84221300D01*
X163277500Y-109451400D02*
X163277500Y-107951400D01*
X162027500Y-105451400D02*
X157527500Y-105451400D01*
X156277500Y-107951400D02*
X156277500Y-109451400D01*
X157527500Y-111951400D02*
X162027500Y-111951400D01*
X153346100Y-109451400D02*
X153346100Y-107951400D01*
X152096100Y-105451400D02*
X147596100Y-105451400D01*
X146346100Y-107951400D02*
X146346100Y-109451400D01*
X147596100Y-111951400D02*
X152096100Y-111951400D01*
X143198800Y-109489500D02*
X143198800Y-107989500D01*
X141948800Y-105489500D02*
X137448800Y-105489500D01*
X136198800Y-107989500D02*
X136198800Y-109489500D01*
X137448800Y-111989500D02*
X141948800Y-111989500D01*
X144963200Y-90273100D02*
X144413200Y-90273100D01*
X150633200Y-96493100D02*
X150633200Y-95943100D01*
X150083200Y-96493100D02*
X150633200Y-96493100D01*
X144413200Y-96493100D02*
X144413200Y-95943100D01*
X144963200Y-96493100D02*
X144413200Y-96493100D01*
X150633200Y-90273100D02*
X150633200Y-90823100D01*
X150083200Y-90273100D02*
X150633200Y-90273100D01*
X171742100Y-102298500D02*
X171742100Y-102933500D01*
X171742100Y-102933500D02*
X171107100Y-102933500D01*
X133679200Y-102350900D02*
X131394200Y-102350900D01*
X133679200Y-103820900D02*
X133679200Y-102350900D01*
X131394200Y-103820900D02*
X133679200Y-103820900D01*
X133666700Y-99163200D02*
X131381700Y-99163200D01*
X133666700Y-100633200D02*
X133666700Y-99163200D01*
X131381700Y-100633200D02*
X133666700Y-100633200D01*
X133704600Y-96089800D02*
X131419600Y-96089800D01*
X133704600Y-97559800D02*
X133704600Y-96089800D01*
X131419600Y-97559800D02*
X133704600Y-97559800D01*
X169901021Y-77436268D02*
G75*
G02X152173090Y-77440100I-8865021J4881168D01*
G01*
X152173090Y-67670100D02*
G75*
G02X169898910Y-67670100I8862910J-4885000D01*
G01*
X171506000Y-77440100D02*
X169898910Y-77440100D01*
X150566000Y-77440100D02*
X152173090Y-77440100D01*
X171506000Y-67670100D02*
X169898910Y-67670100D01*
X171506000Y-75555100D02*
X171506000Y-77440100D01*
X150566000Y-75555100D02*
X150566000Y-77440100D01*
X171506000Y-69555100D02*
X171506000Y-67670100D01*
X150566000Y-69555100D02*
X150566000Y-67670100D01*
X150566000Y-67670100D02*
X152173090Y-67670100D01*
D11*
G36*
X173355000Y-85217000D02*
G01*
X173736000Y-85217000D01*
X173736000Y-85344000D01*
X173355000Y-85344000D01*
X173355000Y-85217000D01*
G37*
X173355000Y-85217000D02*
X173736000Y-85217000D01*
X173736000Y-85344000D01*
X173355000Y-85344000D01*
X173355000Y-85217000D01*
D12*
X174740000Y-84484000D02*
X173260000Y-84484000D01*
X174740000Y-86184000D02*
X174740000Y-84484000D01*
X173260000Y-86184000D02*
X174740000Y-86184000D01*
X173260000Y-84484000D02*
X173260000Y-86184000D01*
D13*
X135821990Y-92380690D02*
X136298180Y-92380690D01*
X135298180Y-92714023D02*
X135821990Y-92380690D01*
X135298180Y-92047357D01*
X135393419Y-91761642D02*
X135345800Y-91714023D01*
X135298180Y-91618785D01*
X135298180Y-91380690D01*
X135345800Y-91285452D01*
X135393419Y-91237833D01*
X135488657Y-91190214D01*
X135583895Y-91190214D01*
X135726752Y-91237833D01*
X136298180Y-91809261D01*
X136298180Y-91190214D01*
X159264409Y-87346090D02*
X159264409Y-87822280D01*
X158931076Y-86822280D02*
X159264409Y-87346090D01*
X159597742Y-86822280D01*
X160454885Y-87822280D02*
X159883457Y-87822280D01*
X160169171Y-87822280D02*
X160169171Y-86822280D01*
X160073933Y-86965138D01*
X159978695Y-87060376D01*
X159883457Y-87107995D01*
X148971095Y-82983680D02*
X148971095Y-83793204D01*
X149018714Y-83888442D01*
X149066333Y-83936061D01*
X149161571Y-83983680D01*
X149352047Y-83983680D01*
X149447285Y-83936061D01*
X149494904Y-83888442D01*
X149542523Y-83793204D01*
X149542523Y-82983680D01*
X150542523Y-83983680D02*
X149971095Y-83983680D01*
X150256809Y-83983680D02*
X150256809Y-82983680D01*
X150161571Y-83126538D01*
X150066333Y-83221776D01*
X149971095Y-83269395D01*
X158534266Y-104519361D02*
X158677123Y-104566980D01*
X158915219Y-104566980D01*
X159010457Y-104519361D01*
X159058076Y-104471742D01*
X159105695Y-104376504D01*
X159105695Y-104281266D01*
X159058076Y-104186028D01*
X159010457Y-104138409D01*
X158915219Y-104090790D01*
X158724742Y-104043171D01*
X158629504Y-103995552D01*
X158581885Y-103947933D01*
X158534266Y-103852695D01*
X158534266Y-103757457D01*
X158581885Y-103662219D01*
X158629504Y-103614600D01*
X158724742Y-103566980D01*
X158962838Y-103566980D01*
X159105695Y-103614600D01*
X159439028Y-103566980D02*
X159677123Y-104566980D01*
X159867600Y-103852695D01*
X160058076Y-104566980D01*
X160296171Y-103566980D01*
X160581885Y-103566980D02*
X161200933Y-103566980D01*
X160867600Y-103947933D01*
X161010457Y-103947933D01*
X161105695Y-103995552D01*
X161153314Y-104043171D01*
X161200933Y-104138409D01*
X161200933Y-104376504D01*
X161153314Y-104471742D01*
X161105695Y-104519361D01*
X161010457Y-104566980D01*
X160724742Y-104566980D01*
X160629504Y-104519361D01*
X160581885Y-104471742D01*
X148336166Y-104481261D02*
X148479023Y-104528880D01*
X148717119Y-104528880D01*
X148812357Y-104481261D01*
X148859976Y-104433642D01*
X148907595Y-104338404D01*
X148907595Y-104243166D01*
X148859976Y-104147928D01*
X148812357Y-104100309D01*
X148717119Y-104052690D01*
X148526642Y-104005071D01*
X148431404Y-103957452D01*
X148383785Y-103909833D01*
X148336166Y-103814595D01*
X148336166Y-103719357D01*
X148383785Y-103624119D01*
X148431404Y-103576500D01*
X148526642Y-103528880D01*
X148764738Y-103528880D01*
X148907595Y-103576500D01*
X149240928Y-103528880D02*
X149479023Y-104528880D01*
X149669500Y-103814595D01*
X149859976Y-104528880D01*
X150098071Y-103528880D01*
X150431404Y-103624119D02*
X150479023Y-103576500D01*
X150574261Y-103528880D01*
X150812357Y-103528880D01*
X150907595Y-103576500D01*
X150955214Y-103624119D01*
X151002833Y-103719357D01*
X151002833Y-103814595D01*
X150955214Y-103957452D01*
X150383785Y-104528880D01*
X151002833Y-104528880D01*
X138290466Y-104735261D02*
X138433323Y-104782880D01*
X138671419Y-104782880D01*
X138766657Y-104735261D01*
X138814276Y-104687642D01*
X138861895Y-104592404D01*
X138861895Y-104497166D01*
X138814276Y-104401928D01*
X138766657Y-104354309D01*
X138671419Y-104306690D01*
X138480942Y-104259071D01*
X138385704Y-104211452D01*
X138338085Y-104163833D01*
X138290466Y-104068595D01*
X138290466Y-103973357D01*
X138338085Y-103878119D01*
X138385704Y-103830500D01*
X138480942Y-103782880D01*
X138719038Y-103782880D01*
X138861895Y-103830500D01*
X139195228Y-103782880D02*
X139433323Y-104782880D01*
X139623800Y-104068595D01*
X139814276Y-104782880D01*
X140052371Y-103782880D01*
X140957133Y-104782880D02*
X140385704Y-104782880D01*
X140671419Y-104782880D02*
X140671419Y-103782880D01*
X140576180Y-103925738D01*
X140480942Y-104020976D01*
X140385704Y-104068595D01*
X163373633Y-103462080D02*
X163040300Y-102985890D01*
X162802204Y-103462080D02*
X162802204Y-102462080D01*
X163183157Y-102462080D01*
X163278395Y-102509700D01*
X163326014Y-102557319D01*
X163373633Y-102652557D01*
X163373633Y-102795414D01*
X163326014Y-102890652D01*
X163278395Y-102938271D01*
X163183157Y-102985890D01*
X162802204Y-102985890D01*
X164230776Y-102462080D02*
X164040300Y-102462080D01*
X163945061Y-102509700D01*
X163897442Y-102557319D01*
X163802204Y-102700176D01*
X163754585Y-102890652D01*
X163754585Y-103271604D01*
X163802204Y-103366842D01*
X163849823Y-103414461D01*
X163945061Y-103462080D01*
X164135538Y-103462080D01*
X164230776Y-103414461D01*
X164278395Y-103366842D01*
X164326014Y-103271604D01*
X164326014Y-103033509D01*
X164278395Y-102938271D01*
X164230776Y-102890652D01*
X164135538Y-102843033D01*
X163945061Y-102843033D01*
X163849823Y-102890652D01*
X163802204Y-102938271D01*
X163754585Y-103033509D01*
X153439833Y-103423980D02*
X153106500Y-102947790D01*
X152868404Y-103423980D02*
X152868404Y-102423980D01*
X153249357Y-102423980D01*
X153344595Y-102471600D01*
X153392214Y-102519219D01*
X153439833Y-102614457D01*
X153439833Y-102757314D01*
X153392214Y-102852552D01*
X153344595Y-102900171D01*
X153249357Y-102947790D01*
X152868404Y-102947790D01*
X154344595Y-102423980D02*
X153868404Y-102423980D01*
X153820785Y-102900171D01*
X153868404Y-102852552D01*
X153963642Y-102804933D01*
X154201738Y-102804933D01*
X154296976Y-102852552D01*
X154344595Y-102900171D01*
X154392214Y-102995409D01*
X154392214Y-103233504D01*
X154344595Y-103328742D01*
X154296976Y-103376361D01*
X154201738Y-103423980D01*
X153963642Y-103423980D01*
X153868404Y-103376361D01*
X153820785Y-103328742D01*
X143208433Y-103284280D02*
X142875100Y-102808090D01*
X142637004Y-103284280D02*
X142637004Y-102284280D01*
X143017957Y-102284280D01*
X143113195Y-102331900D01*
X143160814Y-102379519D01*
X143208433Y-102474757D01*
X143208433Y-102617614D01*
X143160814Y-102712852D01*
X143113195Y-102760471D01*
X143017957Y-102808090D01*
X142637004Y-102808090D01*
X144065576Y-102617614D02*
X144065576Y-103284280D01*
X143827480Y-102236661D02*
X143589385Y-102950947D01*
X144208433Y-102950947D01*
X129139880Y-102767566D02*
X128663690Y-103100900D01*
X129139880Y-103338995D02*
X128139880Y-103338995D01*
X128139880Y-102958042D01*
X128187500Y-102862804D01*
X128235119Y-102815185D01*
X128330357Y-102767566D01*
X128473214Y-102767566D01*
X128568452Y-102815185D01*
X128616071Y-102862804D01*
X128663690Y-102958042D01*
X128663690Y-103338995D01*
X128139880Y-102434233D02*
X128139880Y-101815185D01*
X128520833Y-102148519D01*
X128520833Y-102005661D01*
X128568452Y-101910423D01*
X128616071Y-101862804D01*
X128711309Y-101815185D01*
X128949404Y-101815185D01*
X129044642Y-101862804D01*
X129092261Y-101910423D01*
X129139880Y-102005661D01*
X129139880Y-102291376D01*
X129092261Y-102386614D01*
X129044642Y-102434233D01*
X129292280Y-99579866D02*
X128816090Y-99913200D01*
X129292280Y-100151295D02*
X128292280Y-100151295D01*
X128292280Y-99770342D01*
X128339900Y-99675104D01*
X128387519Y-99627485D01*
X128482757Y-99579866D01*
X128625614Y-99579866D01*
X128720852Y-99627485D01*
X128768471Y-99675104D01*
X128816090Y-99770342D01*
X128816090Y-100151295D01*
X128387519Y-99198914D02*
X128339900Y-99151295D01*
X128292280Y-99056057D01*
X128292280Y-98817961D01*
X128339900Y-98722723D01*
X128387519Y-98675104D01*
X128482757Y-98627485D01*
X128577995Y-98627485D01*
X128720852Y-98675104D01*
X129292280Y-99246533D01*
X129292280Y-98627485D01*
X129203380Y-96481066D02*
X128727190Y-96814400D01*
X129203380Y-97052495D02*
X128203380Y-97052495D01*
X128203380Y-96671542D01*
X128251000Y-96576304D01*
X128298619Y-96528685D01*
X128393857Y-96481066D01*
X128536714Y-96481066D01*
X128631952Y-96528685D01*
X128679571Y-96576304D01*
X128727190Y-96671542D01*
X128727190Y-97052495D01*
X129203380Y-95528685D02*
X129203380Y-96100114D01*
X129203380Y-95814400D02*
X128203380Y-95814400D01*
X128346238Y-95909638D01*
X128441476Y-96004876D01*
X128489095Y-96100114D01*
X174483733Y-91155780D02*
X174007542Y-91155780D01*
X174007542Y-90155780D01*
X175293257Y-90155780D02*
X174817066Y-90155780D01*
X174769447Y-90631971D01*
X174817066Y-90584352D01*
X174912304Y-90536733D01*
X175150400Y-90536733D01*
X175245638Y-90584352D01*
X175293257Y-90631971D01*
X175340876Y-90727209D01*
X175340876Y-90965304D01*
X175293257Y-91060542D01*
X175245638Y-91108161D01*
X175150400Y-91155780D01*
X174912304Y-91155780D01*
X174817066Y-91108161D01*
X174769447Y-91060542D01*
X171926180Y-89155566D02*
X171926180Y-89631757D01*
X170926180Y-89631757D01*
X171259514Y-88393661D02*
X171926180Y-88393661D01*
X170878561Y-88631757D02*
X171592847Y-88869852D01*
X171592847Y-88250804D01*
X171033333Y-94452380D02*
X170557142Y-94452380D01*
X170557142Y-93452380D01*
X171271428Y-93452380D02*
X171890476Y-93452380D01*
X171557142Y-93833333D01*
X171700000Y-93833333D01*
X171795238Y-93880952D01*
X171842857Y-93928571D01*
X171890476Y-94023809D01*
X171890476Y-94261904D01*
X171842857Y-94357142D01*
X171795238Y-94404761D01*
X171700000Y-94452380D01*
X171414285Y-94452380D01*
X171319047Y-94404761D01*
X171271428Y-94357142D01*
X144787880Y-85891666D02*
X144787880Y-86367857D01*
X143787880Y-86367857D01*
X143883119Y-85605952D02*
X143835500Y-85558333D01*
X143787880Y-85463095D01*
X143787880Y-85225000D01*
X143835500Y-85129761D01*
X143883119Y-85082142D01*
X143978357Y-85034523D01*
X144073595Y-85034523D01*
X144216452Y-85082142D01*
X144787880Y-85653571D01*
X144787880Y-85034523D01*
X144749780Y-83516766D02*
X144749780Y-83992957D01*
X143749780Y-83992957D01*
X144749780Y-82659623D02*
X144749780Y-83231052D01*
X144749780Y-82945338D02*
X143749780Y-82945338D01*
X143892638Y-83040576D01*
X143987876Y-83135814D01*
X144035495Y-83231052D01*
X172624480Y-101361833D02*
X173338766Y-101361833D01*
X173481623Y-101409452D01*
X173576861Y-101504690D01*
X173624480Y-101647547D01*
X173624480Y-101742785D01*
X173624480Y-100361833D02*
X173624480Y-100933261D01*
X173624480Y-100647547D02*
X172624480Y-100647547D01*
X172767338Y-100742785D01*
X172862576Y-100838023D01*
X172910195Y-100933261D01*
X173494795Y-110209480D02*
X173494795Y-109209480D01*
X173494795Y-109685671D02*
X174066223Y-109685671D01*
X174066223Y-110209480D02*
X174066223Y-109209480D01*
X174494795Y-109304719D02*
X174542414Y-109257100D01*
X174637652Y-109209480D01*
X174875747Y-109209480D01*
X174970985Y-109257100D01*
X175018604Y-109304719D01*
X175066223Y-109399957D01*
X175066223Y-109495195D01*
X175018604Y-109638052D01*
X174447176Y-110209480D01*
X175066223Y-110209480D01*
X123952095Y-68575180D02*
X123952095Y-67575180D01*
X123952095Y-68051371D02*
X124523523Y-68051371D01*
X124523523Y-68575180D02*
X124523523Y-67575180D01*
X125523523Y-68575180D02*
X124952095Y-68575180D01*
X125237809Y-68575180D02*
X125237809Y-67575180D01*
X125142571Y-67718038D01*
X125047333Y-67813276D01*
X124952095Y-67860895D01*
X121623271Y-114608171D02*
X121289938Y-114608171D01*
X121289938Y-115131980D02*
X121289938Y-114131980D01*
X121766128Y-114131980D01*
X122147080Y-115131980D02*
X122147080Y-114131980D01*
X122623271Y-115131980D02*
X122623271Y-114131980D01*
X122861366Y-114131980D01*
X123004223Y-114179600D01*
X123099461Y-114274838D01*
X123147080Y-114370076D01*
X123194700Y-114560552D01*
X123194700Y-114703409D01*
X123147080Y-114893885D01*
X123099461Y-114989123D01*
X123004223Y-115084361D01*
X122861366Y-115131980D01*
X122623271Y-115131980D01*
X123575652Y-114227219D02*
X123623271Y-114179600D01*
X123718509Y-114131980D01*
X123956604Y-114131980D01*
X124051842Y-114179600D01*
X124099461Y-114227219D01*
X124147080Y-114322457D01*
X124147080Y-114417695D01*
X124099461Y-114560552D01*
X123528033Y-115131980D01*
X124147080Y-115131980D01*
X175674471Y-62666571D02*
X175341138Y-62666571D01*
X175341138Y-63190380D02*
X175341138Y-62190380D01*
X175817328Y-62190380D01*
X176198280Y-63190380D02*
X176198280Y-62190380D01*
X176674471Y-63190380D02*
X176674471Y-62190380D01*
X176912566Y-62190380D01*
X177055423Y-62238000D01*
X177150661Y-62333238D01*
X177198280Y-62428476D01*
X177245900Y-62618952D01*
X177245900Y-62761809D01*
X177198280Y-62952285D01*
X177150661Y-63047523D01*
X177055423Y-63142761D01*
X176912566Y-63190380D01*
X176674471Y-63190380D01*
X178198280Y-63190380D02*
X177626852Y-63190380D01*
X177912566Y-63190380D02*
X177912566Y-62190380D01*
X177817328Y-62333238D01*
X177722090Y-62428476D01*
X177626852Y-62476095D01*
X131456104Y-104968280D02*
X131456104Y-103968280D01*
X131694200Y-103968280D01*
X131837057Y-104015900D01*
X131932295Y-104111138D01*
X131979914Y-104206376D01*
X132027533Y-104396852D01*
X132027533Y-104539709D01*
X131979914Y-104730185D01*
X131932295Y-104825423D01*
X131837057Y-104920661D01*
X131694200Y-104968280D01*
X131456104Y-104968280D01*
X132360866Y-103968280D02*
X132979914Y-103968280D01*
X132646580Y-104349233D01*
X132789438Y-104349233D01*
X132884676Y-104396852D01*
X132932295Y-104444471D01*
X132979914Y-104539709D01*
X132979914Y-104777804D01*
X132932295Y-104873042D01*
X132884676Y-104920661D01*
X132789438Y-104968280D01*
X132503723Y-104968280D01*
X132408485Y-104920661D01*
X132360866Y-104873042D01*
X131443604Y-101780580D02*
X131443604Y-100780580D01*
X131681700Y-100780580D01*
X131824557Y-100828200D01*
X131919795Y-100923438D01*
X131967414Y-101018676D01*
X132015033Y-101209152D01*
X132015033Y-101352009D01*
X131967414Y-101542485D01*
X131919795Y-101637723D01*
X131824557Y-101732961D01*
X131681700Y-101780580D01*
X131443604Y-101780580D01*
X132395985Y-100875819D02*
X132443604Y-100828200D01*
X132538842Y-100780580D01*
X132776938Y-100780580D01*
X132872176Y-100828200D01*
X132919795Y-100875819D01*
X132967414Y-100971057D01*
X132967414Y-101066295D01*
X132919795Y-101209152D01*
X132348366Y-101780580D01*
X132967414Y-101780580D01*
X131481504Y-98707180D02*
X131481504Y-97707180D01*
X131719600Y-97707180D01*
X131862457Y-97754800D01*
X131957695Y-97850038D01*
X132005314Y-97945276D01*
X132052933Y-98135752D01*
X132052933Y-98278609D01*
X132005314Y-98469085D01*
X131957695Y-98564323D01*
X131862457Y-98659561D01*
X131719600Y-98707180D01*
X131481504Y-98707180D01*
X133005314Y-98707180D02*
X132433885Y-98707180D01*
X132719600Y-98707180D02*
X132719600Y-97707180D01*
X132624361Y-97850038D01*
X132529123Y-97945276D01*
X132433885Y-97992895D01*
X152773142Y-88114142D02*
X152725523Y-88161761D01*
X152582666Y-88209380D01*
X152487428Y-88209380D01*
X152344571Y-88161761D01*
X152249333Y-88066523D01*
X152201714Y-87971285D01*
X152154095Y-87780809D01*
X152154095Y-87637952D01*
X152201714Y-87447476D01*
X152249333Y-87352238D01*
X152344571Y-87257000D01*
X152487428Y-87209380D01*
X152582666Y-87209380D01*
X152725523Y-87257000D01*
X152773142Y-87304619D01*
X153725523Y-88209380D02*
X153154095Y-88209380D01*
X153439809Y-88209380D02*
X153439809Y-87209380D01*
X153344571Y-87352238D01*
X153249333Y-87447476D01*
X153154095Y-87495095D01*
X154058857Y-87209380D02*
X154725523Y-87209380D01*
X154296952Y-88209380D01*
X152811242Y-84354942D02*
X152763623Y-84402561D01*
X152620766Y-84450180D01*
X152525528Y-84450180D01*
X152382671Y-84402561D01*
X152287433Y-84307323D01*
X152239814Y-84212085D01*
X152192195Y-84021609D01*
X152192195Y-83878752D01*
X152239814Y-83688276D01*
X152287433Y-83593038D01*
X152382671Y-83497800D01*
X152525528Y-83450180D01*
X152620766Y-83450180D01*
X152763623Y-83497800D01*
X152811242Y-83545419D01*
X153763623Y-84450180D02*
X153192195Y-84450180D01*
X153477909Y-84450180D02*
X153477909Y-83450180D01*
X153382671Y-83593038D01*
X153287433Y-83688276D01*
X153192195Y-83735895D01*
X154620766Y-83450180D02*
X154430290Y-83450180D01*
X154335052Y-83497800D01*
X154287433Y-83545419D01*
X154192195Y-83688276D01*
X154144576Y-83878752D01*
X154144576Y-84259704D01*
X154192195Y-84354942D01*
X154239814Y-84402561D01*
X154335052Y-84450180D01*
X154525528Y-84450180D01*
X154620766Y-84402561D01*
X154668385Y-84354942D01*
X154716004Y-84259704D01*
X154716004Y-84021609D01*
X154668385Y-83926371D01*
X154620766Y-83878752D01*
X154525528Y-83831133D01*
X154335052Y-83831133D01*
X154239814Y-83878752D01*
X154192195Y-83926371D01*
X154144576Y-84021609D01*
X171730942Y-92311457D02*
X171778561Y-92359076D01*
X171826180Y-92501933D01*
X171826180Y-92597171D01*
X171778561Y-92740028D01*
X171683323Y-92835266D01*
X171588085Y-92882885D01*
X171397609Y-92930504D01*
X171254752Y-92930504D01*
X171064276Y-92882885D01*
X170969038Y-92835266D01*
X170873800Y-92740028D01*
X170826180Y-92597171D01*
X170826180Y-92501933D01*
X170873800Y-92359076D01*
X170921419Y-92311457D01*
X171826180Y-91359076D02*
X171826180Y-91930504D01*
X171826180Y-91644790D02*
X170826180Y-91644790D01*
X170969038Y-91740028D01*
X171064276Y-91835266D01*
X171111895Y-91930504D01*
X170826180Y-90454314D02*
X170826180Y-90930504D01*
X171302371Y-90978123D01*
X171254752Y-90930504D01*
X171207133Y-90835266D01*
X171207133Y-90597171D01*
X171254752Y-90501933D01*
X171302371Y-90454314D01*
X171397609Y-90406695D01*
X171635704Y-90406695D01*
X171730942Y-90454314D01*
X171778561Y-90501933D01*
X171826180Y-90597171D01*
X171826180Y-90835266D01*
X171778561Y-90930504D01*
X171730942Y-90978123D01*
X141721742Y-97856642D02*
X141674123Y-97904261D01*
X141531266Y-97951880D01*
X141436028Y-97951880D01*
X141293171Y-97904261D01*
X141197933Y-97809023D01*
X141150314Y-97713785D01*
X141102695Y-97523309D01*
X141102695Y-97380452D01*
X141150314Y-97189976D01*
X141197933Y-97094738D01*
X141293171Y-96999500D01*
X141436028Y-96951880D01*
X141531266Y-96951880D01*
X141674123Y-96999500D01*
X141721742Y-97047119D01*
X142674123Y-97951880D02*
X142102695Y-97951880D01*
X142388409Y-97951880D02*
X142388409Y-96951880D01*
X142293171Y-97094738D01*
X142197933Y-97189976D01*
X142102695Y-97237595D01*
X143531266Y-97285214D02*
X143531266Y-97951880D01*
X143293171Y-96904261D02*
X143055076Y-97618547D01*
X143674123Y-97618547D01*
X174058342Y-96407242D02*
X174010723Y-96454861D01*
X173867866Y-96502480D01*
X173772628Y-96502480D01*
X173629771Y-96454861D01*
X173534533Y-96359623D01*
X173486914Y-96264385D01*
X173439295Y-96073909D01*
X173439295Y-95931052D01*
X173486914Y-95740576D01*
X173534533Y-95645338D01*
X173629771Y-95550100D01*
X173772628Y-95502480D01*
X173867866Y-95502480D01*
X174010723Y-95550100D01*
X174058342Y-95597719D01*
X175010723Y-96502480D02*
X174439295Y-96502480D01*
X174725009Y-96502480D02*
X174725009Y-95502480D01*
X174629771Y-95645338D01*
X174534533Y-95740576D01*
X174439295Y-95788195D01*
X175344057Y-95502480D02*
X175963104Y-95502480D01*
X175629771Y-95883433D01*
X175772628Y-95883433D01*
X175867866Y-95931052D01*
X175915485Y-95978671D01*
X175963104Y-96073909D01*
X175963104Y-96312004D01*
X175915485Y-96407242D01*
X175867866Y-96454861D01*
X175772628Y-96502480D01*
X175486914Y-96502480D01*
X175391676Y-96454861D01*
X175344057Y-96407242D01*
X164619842Y-91938442D02*
X164572223Y-91986061D01*
X164429366Y-92033680D01*
X164334128Y-92033680D01*
X164191271Y-91986061D01*
X164096033Y-91890823D01*
X164048414Y-91795585D01*
X164000795Y-91605109D01*
X164000795Y-91462252D01*
X164048414Y-91271776D01*
X164096033Y-91176538D01*
X164191271Y-91081300D01*
X164334128Y-91033680D01*
X164429366Y-91033680D01*
X164572223Y-91081300D01*
X164619842Y-91128919D01*
X165572223Y-92033680D02*
X165000795Y-92033680D01*
X165286509Y-92033680D02*
X165286509Y-91033680D01*
X165191271Y-91176538D01*
X165096033Y-91271776D01*
X165000795Y-91319395D01*
X165953176Y-91128919D02*
X166000795Y-91081300D01*
X166096033Y-91033680D01*
X166334128Y-91033680D01*
X166429366Y-91081300D01*
X166476985Y-91128919D01*
X166524604Y-91224157D01*
X166524604Y-91319395D01*
X166476985Y-91462252D01*
X165905557Y-92033680D01*
X166524604Y-92033680D01*
X132958742Y-94694342D02*
X132911123Y-94741961D01*
X132768266Y-94789580D01*
X132673028Y-94789580D01*
X132530171Y-94741961D01*
X132434933Y-94646723D01*
X132387314Y-94551485D01*
X132339695Y-94361009D01*
X132339695Y-94218152D01*
X132387314Y-94027676D01*
X132434933Y-93932438D01*
X132530171Y-93837200D01*
X132673028Y-93789580D01*
X132768266Y-93789580D01*
X132911123Y-93837200D01*
X132958742Y-93884819D01*
X133911123Y-94789580D02*
X133339695Y-94789580D01*
X133625409Y-94789580D02*
X133625409Y-93789580D01*
X133530171Y-93932438D01*
X133434933Y-94027676D01*
X133339695Y-94075295D01*
X134863504Y-94789580D02*
X134292076Y-94789580D01*
X134577790Y-94789580D02*
X134577790Y-93789580D01*
X134482552Y-93932438D01*
X134387314Y-94027676D01*
X134292076Y-94075295D01*
X164673042Y-87786342D02*
X164625423Y-87833961D01*
X164482566Y-87881580D01*
X164387328Y-87881580D01*
X164244471Y-87833961D01*
X164149233Y-87738723D01*
X164101614Y-87643485D01*
X164053995Y-87453009D01*
X164053995Y-87310152D01*
X164101614Y-87119676D01*
X164149233Y-87024438D01*
X164244471Y-86929200D01*
X164387328Y-86881580D01*
X164482566Y-86881580D01*
X164625423Y-86929200D01*
X164673042Y-86976819D01*
X165625423Y-87881580D02*
X165053995Y-87881580D01*
X165339709Y-87881580D02*
X165339709Y-86881580D01*
X165244471Y-87024438D01*
X165149233Y-87119676D01*
X165053995Y-87167295D01*
X166244471Y-86881580D02*
X166339709Y-86881580D01*
X166434947Y-86929200D01*
X166482566Y-86976819D01*
X166530185Y-87072057D01*
X166577804Y-87262533D01*
X166577804Y-87500628D01*
X166530185Y-87691104D01*
X166482566Y-87786342D01*
X166434947Y-87833961D01*
X166339709Y-87881580D01*
X166244471Y-87881580D01*
X166149233Y-87833961D01*
X166101614Y-87786342D01*
X166053995Y-87691104D01*
X166006376Y-87500628D01*
X166006376Y-87262533D01*
X166053995Y-87072057D01*
X166101614Y-86976819D01*
X166149233Y-86929200D01*
X166244471Y-86881580D01*
X133399233Y-89866742D02*
X133351614Y-89914361D01*
X133208757Y-89961980D01*
X133113519Y-89961980D01*
X132970661Y-89914361D01*
X132875423Y-89819123D01*
X132827804Y-89723885D01*
X132780185Y-89533409D01*
X132780185Y-89390552D01*
X132827804Y-89200076D01*
X132875423Y-89104838D01*
X132970661Y-89009600D01*
X133113519Y-88961980D01*
X133208757Y-88961980D01*
X133351614Y-89009600D01*
X133399233Y-89057219D01*
X133875423Y-89961980D02*
X134065900Y-89961980D01*
X134161138Y-89914361D01*
X134208757Y-89866742D01*
X134303995Y-89723885D01*
X134351614Y-89533409D01*
X134351614Y-89152457D01*
X134303995Y-89057219D01*
X134256376Y-89009600D01*
X134161138Y-88961980D01*
X133970661Y-88961980D01*
X133875423Y-89009600D01*
X133827804Y-89057219D01*
X133780185Y-89152457D01*
X133780185Y-89390552D01*
X133827804Y-89485790D01*
X133875423Y-89533409D01*
X133970661Y-89581028D01*
X134161138Y-89581028D01*
X134256376Y-89533409D01*
X134303995Y-89485790D01*
X134351614Y-89390552D01*
X163452142Y-88345166D02*
X163499761Y-88392785D01*
X163547380Y-88535642D01*
X163547380Y-88630880D01*
X163499761Y-88773738D01*
X163404523Y-88868976D01*
X163309285Y-88916595D01*
X163118809Y-88964214D01*
X162975952Y-88964214D01*
X162785476Y-88916595D01*
X162690238Y-88868976D01*
X162595000Y-88773738D01*
X162547380Y-88630880D01*
X162547380Y-88535642D01*
X162595000Y-88392785D01*
X162642619Y-88345166D01*
X162975952Y-87773738D02*
X162928333Y-87868976D01*
X162880714Y-87916595D01*
X162785476Y-87964214D01*
X162737857Y-87964214D01*
X162642619Y-87916595D01*
X162595000Y-87868976D01*
X162547380Y-87773738D01*
X162547380Y-87583261D01*
X162595000Y-87488023D01*
X162642619Y-87440404D01*
X162737857Y-87392785D01*
X162785476Y-87392785D01*
X162880714Y-87440404D01*
X162928333Y-87488023D01*
X162975952Y-87583261D01*
X162975952Y-87773738D01*
X163023571Y-87868976D01*
X163071190Y-87916595D01*
X163166428Y-87964214D01*
X163356904Y-87964214D01*
X163452142Y-87916595D01*
X163499761Y-87868976D01*
X163547380Y-87773738D01*
X163547380Y-87583261D01*
X163499761Y-87488023D01*
X163452142Y-87440404D01*
X163356904Y-87392785D01*
X163166428Y-87392785D01*
X163071190Y-87440404D01*
X163023571Y-87488023D01*
X162975952Y-87583261D01*
X152284133Y-89433342D02*
X152236514Y-89480961D01*
X152093657Y-89528580D01*
X151998419Y-89528580D01*
X151855561Y-89480961D01*
X151760323Y-89385723D01*
X151712704Y-89290485D01*
X151665085Y-89100009D01*
X151665085Y-88957152D01*
X151712704Y-88766676D01*
X151760323Y-88671438D01*
X151855561Y-88576200D01*
X151998419Y-88528580D01*
X152093657Y-88528580D01*
X152236514Y-88576200D01*
X152284133Y-88623819D01*
X152617466Y-88528580D02*
X153284133Y-88528580D01*
X152855561Y-89528580D01*
X141770042Y-90334266D02*
X141817661Y-90381885D01*
X141865280Y-90524742D01*
X141865280Y-90619980D01*
X141817661Y-90762838D01*
X141722423Y-90858076D01*
X141627185Y-90905695D01*
X141436709Y-90953314D01*
X141293852Y-90953314D01*
X141103376Y-90905695D01*
X141008138Y-90858076D01*
X140912900Y-90762838D01*
X140865280Y-90619980D01*
X140865280Y-90524742D01*
X140912900Y-90381885D01*
X140960519Y-90334266D01*
X140865280Y-89477123D02*
X140865280Y-89667600D01*
X140912900Y-89762838D01*
X140960519Y-89810457D01*
X141103376Y-89905695D01*
X141293852Y-89953314D01*
X141674804Y-89953314D01*
X141770042Y-89905695D01*
X141817661Y-89858076D01*
X141865280Y-89762838D01*
X141865280Y-89572361D01*
X141817661Y-89477123D01*
X141770042Y-89429504D01*
X141674804Y-89381885D01*
X141436709Y-89381885D01*
X141341471Y-89429504D01*
X141293852Y-89477123D01*
X141246233Y-89572361D01*
X141246233Y-89762838D01*
X141293852Y-89858076D01*
X141341471Y-89905695D01*
X141436709Y-89953314D01*
X156681442Y-88408666D02*
X156729061Y-88456285D01*
X156776680Y-88599142D01*
X156776680Y-88694380D01*
X156729061Y-88837238D01*
X156633823Y-88932476D01*
X156538585Y-88980095D01*
X156348109Y-89027714D01*
X156205252Y-89027714D01*
X156014776Y-88980095D01*
X155919538Y-88932476D01*
X155824300Y-88837238D01*
X155776680Y-88694380D01*
X155776680Y-88599142D01*
X155824300Y-88456285D01*
X155871919Y-88408666D01*
X155776680Y-87503904D02*
X155776680Y-87980095D01*
X156252871Y-88027714D01*
X156205252Y-87980095D01*
X156157633Y-87884857D01*
X156157633Y-87646761D01*
X156205252Y-87551523D01*
X156252871Y-87503904D01*
X156348109Y-87456285D01*
X156586204Y-87456285D01*
X156681442Y-87503904D01*
X156729061Y-87551523D01*
X156776680Y-87646761D01*
X156776680Y-87884857D01*
X156729061Y-87980095D01*
X156681442Y-88027714D01*
X143874333Y-89461942D02*
X143826714Y-89509561D01*
X143683857Y-89557180D01*
X143588619Y-89557180D01*
X143445761Y-89509561D01*
X143350523Y-89414323D01*
X143302904Y-89319085D01*
X143255285Y-89128609D01*
X143255285Y-88985752D01*
X143302904Y-88795276D01*
X143350523Y-88700038D01*
X143445761Y-88604800D01*
X143588619Y-88557180D01*
X143683857Y-88557180D01*
X143826714Y-88604800D01*
X143874333Y-88652419D01*
X144731476Y-88890514D02*
X144731476Y-89557180D01*
X144493380Y-88509561D02*
X144255285Y-89223847D01*
X144874333Y-89223847D01*
X148791633Y-77050842D02*
X148744014Y-77098461D01*
X148601157Y-77146080D01*
X148505919Y-77146080D01*
X148363061Y-77098461D01*
X148267823Y-77003223D01*
X148220204Y-76907985D01*
X148172585Y-76717509D01*
X148172585Y-76574652D01*
X148220204Y-76384176D01*
X148267823Y-76288938D01*
X148363061Y-76193700D01*
X148505919Y-76146080D01*
X148601157Y-76146080D01*
X148744014Y-76193700D01*
X148791633Y-76241319D01*
X149172585Y-76241319D02*
X149220204Y-76193700D01*
X149315442Y-76146080D01*
X149553538Y-76146080D01*
X149648776Y-76193700D01*
X149696395Y-76241319D01*
X149744014Y-76336557D01*
X149744014Y-76431795D01*
X149696395Y-76574652D01*
X149124966Y-77146080D01*
X149744014Y-77146080D01*
X144814133Y-80594142D02*
X144766514Y-80641761D01*
X144623657Y-80689380D01*
X144528419Y-80689380D01*
X144385561Y-80641761D01*
X144290323Y-80546523D01*
X144242704Y-80451285D01*
X144195085Y-80260809D01*
X144195085Y-80117952D01*
X144242704Y-79927476D01*
X144290323Y-79832238D01*
X144385561Y-79737000D01*
X144528419Y-79689380D01*
X144623657Y-79689380D01*
X144766514Y-79737000D01*
X144814133Y-79784619D01*
X145766514Y-80689380D02*
X145195085Y-80689380D01*
X145480800Y-80689380D02*
X145480800Y-79689380D01*
X145385561Y-79832238D01*
X145290323Y-79927476D01*
X145195085Y-79975095D01*
X160250285Y-61283671D02*
X160393142Y-61331290D01*
X160440761Y-61378909D01*
X160488380Y-61474147D01*
X160488380Y-61617004D01*
X160440761Y-61712242D01*
X160393142Y-61759861D01*
X160297904Y-61807480D01*
X159916952Y-61807480D01*
X159916952Y-60807480D01*
X160250285Y-60807480D01*
X160345523Y-60855100D01*
X160393142Y-60902719D01*
X160440761Y-60997957D01*
X160440761Y-61093195D01*
X160393142Y-61188433D01*
X160345523Y-61236052D01*
X160250285Y-61283671D01*
X159916952Y-61283671D01*
X160774095Y-60807480D02*
X161345523Y-60807480D01*
X161059809Y-61807480D02*
X161059809Y-60807480D01*
X162202666Y-61807480D02*
X161631238Y-61807480D01*
X161916952Y-61807480D02*
X161916952Y-60807480D01*
X161821714Y-60950338D01*
X161726476Y-61045576D01*
X161631238Y-61093195D01*
X173078333Y-83625666D02*
X173554523Y-83625666D01*
X172983095Y-83911380D02*
X173316428Y-82911380D01*
X173649761Y-83911380D01*
X173983095Y-83387571D02*
X174316428Y-83387571D01*
X174459285Y-83911380D02*
X173983095Y-83911380D01*
X173983095Y-82911380D01*
X174459285Y-82911380D01*
X175411666Y-83911380D02*
X174840238Y-83911380D01*
X175125952Y-83911380D02*
X175125952Y-82911380D01*
X175030714Y-83054238D01*
X174935476Y-83149476D01*
X174840238Y-83197095D01*
M02*
